<?xml version="1.0" encoding="utf-8"?>
<svg version="1.1" id="lay_1" xmlns="http://www.w3.org/2000/svg" xmlns:xlink="http://www.w3.org/1999/xlink" x="0px"
     y="0px"
     viewBox="0 0 595.28 595.28" style="enable-background:new 0 0 595.28 595.28;" xml:space="preserve">
<style type="text/css">
	.st0{fill:#00A89D;}
	.st1{fill:#00505A;}
	.st2{fill:#FF825C;}
</style>
    <path class="st0" d="M440.2,266.53c-0.01-0.18-0.05-0.36-0.06-0.54c-0.22-2.46-0.45-4.93-0.8-7.35h-0.08
	c-0.02-0.09-0.02-0.18-0.03-0.27H322.02v32.08h87.6c-6.12,52.11-50.36,92.56-104.1,92.56c-57.93,0-104.89-46.96-104.89-104.89
	c0-57.93,46.96-104.89,104.89-104.89c28.97,0,55.19,11.74,74.17,30.72l21.46-21.46c-24.48-24.47-58.29-39.61-95.63-39.61
	c-74.69,0-135.25,60.55-135.25,135.25s60.55,135.25,135.25,135.25s135.25-60.55,135.25-135.25
	C440.76,274.21,440.54,270.36,440.2,266.53z"/>
    <path class="st1" d="M538.66,277.94L537.03,259l-57.15-0.19c0.16,1.42,0.35,2.83,0.48,4.27c8.24,95.79-63,180.43-158.79,188.67
	c-95.79,8.24-180.43-63-188.67-158.79c-8.24-95.79,63-180.43,158.79-188.67c52.91-4.55,102.39,15.18,137.5,49.87l41.04-41.04
	l-30.5-25.67l-23.49,20.08c-8.27-5.33-16.93-10.07-25.93-14.17l4.26-30.72L356.55,50.6L342.4,78.4c-9.15-1.64-18.5-2.64-27.99-3
	l-7.96-30.53l-39.73,3.42l-2.46,31.45c-9.95,2.12-19.6,4.96-28.92,8.46l-19.22-25.41l-35.4,18.36l9.96,30.6
	c-7.85,5.49-15.27,11.51-22.23,18.02l-27.93-16.38l-25.68,30.51l21.15,24.75c-5.11,7.95-9.67,16.27-13.64,24.9l-32.32-4.48
	l-12.05,38.01l29.1,14.81c-1.67,9.21-2.69,18.61-3.06,28.16l-31.67,8.25l3.42,39.73l32.61,2.55c2,9.34,4.62,18.43,7.84,27.22
	l-26.05,19.71l18.36,35.4l31.01-10.09c5.39,7.82,11.31,15.24,17.71,22.2l-16.48,28.1l30.51,25.68l24.6-21.03
	c7.97,5.22,16.32,9.88,24.99,13.94l-4.42,31.89l38.01,12.05l14.44-28.38c9.78,1.86,19.78,3,29.94,3.38l7.96,30.53l39.73-3.42
	l2.46-31.45c9.29-1.98,18.32-4.57,27.06-7.75l18.83,24.89l35.4-18.36l-9.59-29.48c8.17-5.58,15.89-11.73,23.12-18.4l26.67,15.64
	l25.68-30.51L476.22,389c5.44-8.29,10.28-16.98,14.47-26.03l30.29,4.2l12.05-38.01l-27.09-13.79c1.83-9.72,2.94-19.67,3.32-29.77
	L538.66,277.94z"/>
    <ellipse transform="matrix(0.7071 -0.7071 0.7071 0.7071 -107.1774 297.4904)" class="st2" cx="305.51" cy="278.12"
             rx="32.04" ry="32.04"/>
    <g>
	<path class="st2" d="M152.74,524.58l-0.01,0.04c-19.63-10.99-24.14-40.21-24.14-40.21l0,0c-2.96-9.5-9.18-17.25-18.14-20.97
		c-17.99-7.47-39.88,4.08-48.89,25.79c-9.01,21.71-1.73,45.36,16.26,52.83c7.21,2.99,15.04,2.89,22.43,0.34
		c28.64-5.98,44.14,1.56,49.43,5.05c0.64,0.59,1.34,1.09,2.08,1.54c0.02,0.02,0.07,0.06,0.07,0.06s0.02-0.01,0.03-0.01
		c2.62,1.53,5.78,2.15,8.98,1.45c6.76-1.48,11.04-8.16,9.56-14.92c-0.13-0.6-0.34-1.16-0.56-1.71
		C164.57,531.28,158.25,528.75,152.74,524.58z"/>
        <path class="st2" d="M165.61,547.08l-12.94-7.21l142.46-255.51l14.43,8.04L167.94,546.42
		C167.48,547.25,166.44,547.54,165.61,547.08z"/>
</g>
</svg>
