<?xml version="1.0" encoding="utf-8"?>
<!-- Generator: Adobe Illustrator 23.1.0, SVG Export Plug-In . SVG Version: 6.00 Build 0)  -->
<svg version="1.1" id="Слой_1" xmlns="http://www.w3.org/2000/svg" xmlns:xlink="http://www.w3.org/1999/xlink" x="0px" y="0px"
	 viewBox="0 0 566.9 566.9" style="enable-background:new 0 0 566.9 566.9;" xml:space="preserve">
<style type="text/css">
	.st0{display:none;}
	.st1{display:inline;}
	.st2{fill:none;stroke:#FF825C;stroke-width:4;stroke-linecap:round;stroke-linejoin:round;stroke-miterlimit:10;}
	.st3{fill:#FF825C;}
	.st4{fill:#FFFFFF;stroke:#FF825C;stroke-width:4;stroke-linecap:round;stroke-linejoin:round;stroke-miterlimit:10;}
	
		.st5{display:inline;fill:#FFFFFF;stroke:#FF825C;stroke-width:4;stroke-linecap:round;stroke-linejoin:round;stroke-miterlimit:10;}
	.st6{display:inline;fill:none;stroke:#FF825C;stroke-width:4;stroke-linecap:round;stroke-linejoin:round;stroke-miterlimit:10;}
	.st7{display:inline;fill:none;stroke:#FF825C;stroke-width:3;stroke-linecap:round;stroke-linejoin:round;stroke-miterlimit:10;}
	
		.st8{display:inline;fill:#FFFFFF;stroke:#FF825C;stroke-width:3;stroke-linecap:round;stroke-linejoin:round;stroke-miterlimit:10;}
	.st9{fill:#FFFFFF;}
	.st10{fill:#FFFFFF;stroke:#FF825C;stroke-width:3;stroke-linecap:round;stroke-linejoin:round;stroke-miterlimit:10;}
	.st11{fill:none;stroke:#FF825C;stroke-width:3;stroke-linecap:round;stroke-linejoin:round;stroke-miterlimit:10;}
	.st12{fill:none;stroke:#00A89D;stroke-width:3;stroke-linecap:round;stroke-linejoin:round;stroke-miterlimit:10;}
	.st13{fill:#FFFFFF;stroke:#00A89D;stroke-width:3;stroke-linecap:round;stroke-linejoin:round;stroke-miterlimit:10;}
	.st14{fill:#00A89D;}
	.st15{fill:#00505A;}
	.st16{fill:none;stroke:#FFFFFF;stroke-width:9;stroke-linecap:round;stroke-linejoin:round;stroke-miterlimit:10;}
	.st17{fill:none;stroke:#FF825C;stroke-width:2.8346;stroke-miterlimit:10;}
	.st18{fill:#FFFFFF;stroke:#FF825C;stroke-width:2.8346;stroke-miterlimit:10;}
	.st19{fill:none;stroke:#FF825C;stroke-width:2.8346;stroke-linecap:round;stroke-miterlimit:10;}
	.st20{fill:none;stroke:#00505A;stroke-width:3;stroke-linecap:round;stroke-linejoin:round;stroke-miterlimit:10;}
	.st21{fill:none;stroke:#FF825C;stroke-width:2.8346;stroke-linecap:round;stroke-linejoin:round;stroke-miterlimit:10;}
	
		.st22{display:inline;fill:none;stroke:#FF825C;stroke-width:2.8346;stroke-linecap:round;stroke-linejoin:round;stroke-miterlimit:10;}
	.st23{fill:#FFFFFF;stroke:#FF825C;stroke-width:2.8346;stroke-linecap:round;stroke-linejoin:round;stroke-miterlimit:10;}
	
		.st24{display:inline;fill:#FFFFFF;stroke:#FF825C;stroke-width:2.8346;stroke-linecap:round;stroke-linejoin:round;stroke-miterlimit:10;}
	.st25{display:inline;fill:#FFFFFF;stroke:#FF825C;stroke-width:3;stroke-miterlimit:10;}
	.st26{display:inline;fill:#FFFFFF;stroke:#FF825C;stroke-width:4;stroke-miterlimit:10;}
	.st27{fill:none;stroke:#FF825C;stroke-width:4;stroke-miterlimit:10;}
	.st28{display:inline;fill:#FF825C;}
	
		.st29{display:inline;fill:#FF825C;stroke:#FF825C;stroke-width:4;stroke-linecap:round;stroke-linejoin:round;stroke-miterlimit:10;}
</style>
<g class="st0">
	<g class="st1">
		<path class="st2" d="M263.8,261.5V133.7c0-5.7,4.6-10.2,10.2-10.2h210.8c5.7,0,10.2,4.6,10.2,10.2V267c0,5.7-4.6,10.2-10.2,10.2
			H322.3"/>
		<rect x="335.5" y="277.9" class="st2" width="83.7" height="23.1"/>
		<line class="st2" x1="366.4" y1="275.4" x2="366.4" y2="291.3"/>
		<path class="st2" d="M455.2,324.5H299.7v-9.1c0-8,6.5-14.4,14.4-14.4h126.7c8,0,14.4,6.5,14.4,14.4L455.2,324.5L455.2,324.5z"/>
		<line class="st2" x1="285.1" y1="324.5" x2="538.3" y2="324.5"/>
		<line class="st2" x1="486.9" y1="324.5" x2="486.9" y2="503.5"/>
		<line class="st2" x1="298.4" y1="324.5" x2="298.4" y2="502.9"/>
		<path class="st2" d="M118.5,312.4v50c0,22.4,18.2,40.6,40.6,40.6h118.3"/>
		<line class="st2" x1="198" y1="406" x2="198" y2="503.5"/>
		<g>
			<path class="st3" d="M386.5,198.7c0.1,0.6,0.2,1.2,0.2,1.8c0,5.3-4.3,9.6-9.6,9.6c-5.3,0-9.6-4.3-9.6-9.6c0-5.3,4.3-9.6,9.6-9.6
				c2.6,0,5,1.1,6.8,2.8l2-2c-2.2-2.2-5.3-3.6-8.7-3.6c-6.8,0-12.3,5.5-12.3,12.3c0,6.8,5.5,12.3,12.3,12.3s12.3-5.5,12.3-12.3
				c0-0.6,0-1.2-0.1-1.8L386.5,198.7z"/>
			<g>
				<path class="st3" d="M377.5,198.6v2.9h15.6c0-1,0.1-2,0.1-2.9H377.5z"/>
			</g>
			<circle class="st3" cx="377.1" cy="200.4" r="2.9"/>
			<path class="st3" d="M395.6,201.1l2.7-0.7l-0.1-1.7l-1.9,0l-3.2-0.1h-0.1v0l0,0c0,0.1,0,0.3,0,0.4c0.8,8.7-5.8,16.5-14.5,17.2
				c-8.7,0.8-16.5-5.8-17.2-14.5c-0.8-8.7,5.8-16.5,14.5-17.2c4.8-0.4,9.3,1.4,12.5,4.6l3.7-3.7l-2.8-2.3l-2.1,1.8
				c-0.8-0.5-1.5-0.9-2.4-1.3l0.4-2.8l-3.5-1.1l-1.3,2.5c-0.8-0.1-1.7-0.2-2.5-0.3l-0.7-2.8l-3.6,0.3l-0.2,2.9
				c-0.9,0.2-1.8,0.4-2.6,0.8l-1.8-2.3l-3.2,1.7l0.9,2.8c-0.7,0.5-1.4,1.1-2,1.6l-2.5-1.5l-2.3,2.8l1.9,2.3
				c-0.5,0.7-0.9,1.5-1.2,2.3l-3-0.4l-1.1,3.5l2.6,1.4c-0.1,0.8-0.3,1.7-0.3,2.6l-2.9,0.8l0.3,3.6l3,0.2c0.2,0.9,0.4,1.7,0.7,2.5
				l-2.4,1.8l1.7,3.2l2.8-0.9c0.5,0.7,1,1.4,1.6,2l-1.5,2.6l2.8,2.3l2.2-1.9c0.7,0.5,1.5,0.9,2.3,1.3l-0.4,2.9l3.5,1.1l1.3-2.6
				c0.9,0.2,1.8,0.3,2.7,0.3l0.7,2.8l3.6-0.3l0.2-2.9c0.9-0.2,1.7-0.4,2.5-0.7l1.7,2.3l3.2-1.7l-0.9-2.7c0.7-0.5,1.5-1.1,2.1-1.7
				l2.4,1.4l2.3-2.8l-1.8-2.1c0.5-0.8,0.9-1.6,1.3-2.4l2.8,0.4l1.1-3.5l-2.5-1.3C395.5,203,395.6,202.1,395.6,201.1z"/>
			<g>
				<path class="st3" d="M363.1,222.9L363.1,222.9c-1.8-1-2.2-3.7-2.2-3.7l0,0c-0.3-0.9-0.8-1.6-1.6-1.9c-1.6-0.7-3.6,0.4-4.5,2.4
					c-0.8,2-0.2,4.1,1.5,4.8c0.7,0.3,1.4,0.3,2,0c2.6-0.6,4,0.1,4.5,0.5c0.1,0.1,0.1,0.1,0.2,0.1l0,0l0,0c0.2,0.1,0.5,0.2,0.8,0.1
					c0.6-0.1,1-0.7,0.9-1.4c0-0.1,0-0.1,0-0.2C364.2,223.6,363.6,223.3,363.1,222.9z"/>
				<path class="st3" d="M363.5,224.6l-0.4-0.3l13-23.3l1.3,0.7l-12.5,22.4C364.6,224.7,364,224.9,363.5,224.6z"/>
			</g>
		</g>
		<circle class="st2" cx="377.1" cy="200.4" r="38.7"/>
		<path class="st4" d="M179,201l-21.8,12.5c-9.6,5.5-21.9,2.2-27.5-7.4l0,0c-5.5-9.6-2.2-21.9,7.4-27.5l69.6-40.1
			c9.6-5.5,21.9-2.2,27.5,7.4l0,0"/>
		<path class="st2" d="M26.1,228.1c-1.5-2.6-2.5-5.6-2.7-8.8l0,0c-0.8-11.1,7.5-20.7,18.6-21.5l80.2-5.7
			c11.1-0.8,20.7,7.6,21.5,18.6l0,0c0.8,11.1-7.6,20.7-18.6,21.5l-25,1.8"/>
		<path class="st2" d="M240.3,289.9l-34.9-46.3c1.2-1.6,2.1-3.3,2.8-5.2l27.6-75.5c3.8-10.4-1.6-22-12-25.8"/>
		<path class="st2" d="M29.5,203.4c-0.8,0.8-1.6,1.7-2.3,2.6l0,0c-6.5,9-4.5,21.6,4.5,28.1l65.1,47.1c0,0,0,0,0,0
			c0.9,0.7,1.7,1.6,2,2.7c1.3,4.5,3.4,8.8,6.3,12.7l74.1,91.6c12.9,17.1,31.3,19.1,48.5,6.2l27.3-20.6c11.4-8.6,16.7-22.3,15.2-35.6
			"/>
		<path class="st2" d="M185.6,182.8l-11.8,32.4c-11.3-3.1-23.8-1.1-33.8,6.4l-27.3,20.6c-0.2,0.2-0.4,0.3-0.6,0.5l-39.4-28.6"/>
		<path class="st2" d="M118.5,503.5v-10.2c0-10,8.1-18.2,18.2-18.2h122.5c10,0,18.2,8.1,18.2,18.2v10.2"/>
		<path class="st2" d="M150.2,242.8c0,0,23.2-10.7,40.9,4.6"/>
		<g>
			<path class="st4" d="M209.8,403h24v0c6.5,0.5,13.2-1.3,18.8-5.6l108.6-82c12.3-9.3,14.8-26.9,5.5-39.2l0,0
				c-9.3-12.3-26.9-14.8-39.2-5.5l-6.2,4.7"/>
			<path class="st2" d="M192.3,347.1l93.4-111.4c8.1-9.7,22.6-10.9,32.4-2.6l5.3,4.5c9.8,8.2,11.1,22.7,3,32.4L221.2,395.4
				c-4.4,5.2-10.4,7-16.8,6.8c-7.9-0.3-17.3-5.3-22.9-11"/>
			<path class="st4" d="M279.9,242.9l-6.4-16c-4.5-11.4,1-24.3,12.4-28.9l0,0c11.4-4.6,24.3,1,28.9,12.4l13.7,34.2
				c3.7,9.2,0.7,19.5-6.6,25.5"/>
			<path class="st4" d="M320.1,277.6l-4-10c-4.6-11.5,1-24.7,12.6-29.3l0,0c11.5-4.6,24.7,1,29.3,12.6l13.8,34.6
				c3.3,8.3,1.4,17.4-4.3,23.5"/>
		</g>
		<path class="st4" d="M146.2,236.2L146.2,236.2c-18.2,7.3-38.8-1.6-46.1-19.8l-5.5-13.7c-7.3-18.2,1.6-38.8,19.8-46.1l0,0
			c18.2-7.3,38.8,1.6,46.1,19.8l5.5,13.7C173.2,208.3,164.4,228.9,146.2,236.2z"/>
	</g>
	<g class="st1">
		<path class="st4" d="M108.2,197.3c0,0,8.3,2.3,12.6-6.2"/>
		<path class="st4" d="M133.2,184.9c0,0,8.3,2.3,12.6-6.2"/>
	</g>
	<path class="st5" d="M150.6,197.5c4.2,8.5,0.7,18.7-7.8,22.9s-18.7,0.7-22.9-7.8"/>
	<polyline class="st6" points="146.8,109.5 173.8,109.5 145.8,137.4 173.8,137.4 	"/>
	<polyline class="st6" points="90.2,67.6 117.2,67.6 89.2,95.5 117.2,95.5 	"/>
	<polyline class="st6" points="157.7,39.7 184.7,39.7 156.7,67.6 184.7,67.6 	"/>
</g>
<g class="st0">
	<line class="st7" x1="370.8" y1="197" x2="370.8" y2="359.3"/>
	<circle class="st8" cx="285.4" cy="236.1" r="103.4"/>
	<g class="st1">
		<path class="st3" d="M282.8,141.9h4.7l3,9.3c0,0.6,0.2,1.1,0.5,1.6c0.5,0.8,1.3,1.3,2.2,1.3c5.6,0.5,11.1,1.6,16.3,3.2
			c0.3,0.1,0.6,0.1,0.9,0.1c0.6,0,1.2-0.2,1.7-0.5c0.6-0.4,1-1,1.2-1.7l6.1-7.1l4.4,1.8l-1.2,9.2c-0.3,0.6-0.4,1.4-0.3,2.1
			c0.2,0.9,0.8,1.6,1.5,2c2.5,1.3,4.9,2.7,7.2,4.3c2.3,1.6,4.6,3.3,6.8,5c0.5,0.4,1.2,0.7,1.9,0.7c0.2,0,0.4,0,0.5-0.1
			c0.7-0.1,1.3-0.5,1.7-1l0.6-0.3c0.1,0,0.1-0.1,0.2-0.1l7.4-4.3l3.7,3.7l-4.6,8c0,0-0.1,0.1-0.1,0.1c-0.5,0.4-0.9,1-1,1.7
			c-0.2,0.9,0,1.8,0.6,2.5c3.6,4.3,6.7,9,9.3,13.9c0.4,0.8,1.2,1.4,2.1,1.5c0.2,0,0.4,0.1,0.6,0.1c0.5,0,0.9-0.1,1.4-0.3l9.4-0.7
			l1.8,4.3l-7.3,5.6c-0.7,0.2-1.3,0.6-1.7,1.3c-0.5,0.7-0.6,1.6-0.3,2.5c1.6,5.4,2.8,10.9,3.3,16.4c0.1,1.5,1.4,2.7,3,2.7h0.1
			l9.3,3.1v4.7l-8.8,2.4c-0.2,0-0.3,0-0.5,0c-0.6,0-1.2,0.2-1.7,0.5c-0.7,0.5-1.2,1.3-1.3,2.2c-0.5,5.6-1.6,11.2-3.3,16.5
			c-0.3,0.8-0.1,1.8,0.3,2.5c0.3,0.5,0.8,0.9,1.3,1.1l7.7,5.8l-1.8,4.3l-9.8-0.8c-0.3-0.1-0.7-0.2-1.1-0.2c-0.2,0-0.4,0-0.5,0
			c-0.9,0.2-1.7,0.7-2.1,1.5c-2.6,4.9-5.7,9.5-9.2,13.7c-1,1.2-0.9,2.9,0.2,4l0,0l4.4,8.7l-3.3,3.3l-7.9-4.6
			c-0.5-0.6-1.1-1.1-1.9-1.2c-0.2,0-0.4,0-0.5,0c-0.7,0-1.4,0.2-1.9,0.7c-1.2,1-2.5,2-4,3.1c-3.3,2.4-6.6,4.5-10,6.3
			c-0.8,0.4-1.3,1.1-1.5,2c-0.1,0.6-0.1,1.3,0.2,1.9l1.3,9.5l-4.3,1.8l-6.4-7.6c-0.2-0.5-0.6-1-1.1-1.3c-0.5-0.4-1.1-0.5-1.7-0.5
			c-0.3,0-0.6,0-0.9,0.1c-2.6,0.8-5.3,1.5-8,2c-2.8,0.5-5.6,1-8.4,1.2c-0.9,0.1-1.7,0.6-2.2,1.3c-0.4,0.6-0.6,1.4-0.5,2.1l-0.3,0.8
			l-2.7,8.1h-4.7l-2.4-8.8c0.1-0.8,0-1.6-0.5-2.2c-0.5-0.7-1.3-1.2-2.2-1.3c-3-0.3-6.1-0.8-9.2-1.4c-2.6-0.5-5-1.1-7.3-1.9
			c-0.3-0.1-0.6-0.1-0.9-0.1c-0.6,0-1.1,0.2-1.6,0.5c-0.6,0.4-1,1-1.2,1.6l-5.7,7.6l-4.4-1.8l0.8-9.8c0.3-0.6,0.3-1.2,0.2-1.8
			c-0.2-0.9-0.7-1.7-1.5-2.1c-4.4-2.3-8.7-5.2-12.8-8.5c-0.2-0.1-0.3-0.3-0.5-0.4c-0.2-0.1-0.4-0.3-0.5-0.4
			c-0.5-0.5-1.2-0.7-1.9-0.7c-0.2,0-0.4,0-0.5,0c-0.7,0.1-1.3,0.5-1.7,1l-0.6,0.3c-0.1,0-0.1,0.1-0.2,0.1l-7.4,4.3l-3.7-3.7l4.6-8.1
			c0.6-0.4,0.9-1,1.1-1.7c0.2-0.9,0-1.8-0.6-2.5c-0.1-0.1-0.2-0.3-0.3-0.4c-0.1-0.1-0.2-0.3-0.4-0.5c-3.3-4.1-6.2-8.5-8.6-13
			c-0.4-0.8-1.1-1.3-2-1.5c-0.2,0-0.4-0.1-0.6-0.1c-0.6,0-1.2,0.2-1.7,0.5l-1.9,0.1c-0.1,0-0.1,0-0.2,0l-7,1l-2-4.8l7.6-5.8
			c0.6-0.2,1.2-0.6,1.6-1.2c0.5-0.8,0.7-1.7,0.4-2.6c-0.8-2.6-1.5-5.4-2-8.1c-0.6-2.8-1-5.5-1.2-8.3c-0.1-0.9-0.6-1.7-1.3-2.2
			c-0.5-0.4-1.1-0.5-1.7-0.5c0,0-0.1,0-0.1,0l-9.3-2.4V234l7.1-2.3l2.3-0.7c0.6,0,1.1-0.2,1.6-0.5c0.8-0.5,1.3-1.3,1.4-2.2
			c0.2-2.1,0.5-4.2,0.9-6.7c0.6-3.4,1.4-6.6,2.3-9.6c0.3-0.9,0.1-1.8-0.4-2.6c-0.4-0.6-1.1-1.1-1.8-1.2l-7.1-6.1l1.8-4.4l9,1.2
			c0.5,0.3,1.1,0.5,1.7,0.5c0.2,0,0.4,0,0.6-0.1c0.9-0.2,1.6-0.8,2-1.5c1.7-3.3,3.8-6.5,6.1-9.7c1.2-1.7,2.3-3.1,3.3-4.4
			c0.6-0.7,0.8-1.6,0.6-2.4c-0.1-0.6-0.4-1.2-0.9-1.6l-3.9-6.7l-0.9-1.6l3.3-3.3l8.7,4.5c0.4,0.4,0.9,0.7,1.5,0.8
			c0.2,0,0.4,0.1,0.6,0.1c0.7,0,1.4-0.2,1.9-0.7c2.1-1.8,4.4-3.4,6.7-5c2.3-1.5,4.7-3,7.1-4.3c0.8-0.4,1.4-1.2,1.5-2.1
			c0.1-0.7,0-1.5-0.4-2.1l-0.7-9.3l4.3-1.8l5.6,7.3c0.2,0.7,0.6,1.4,1.3,1.8c0.5,0.3,1,0.5,1.6,0.5c0.3,0,0.6,0,0.9-0.1
			c5.3-1.6,10.9-2.8,16.6-3.3c0.9-0.1,1.7-0.6,2.2-1.3c0.4-0.5,0.5-1.2,0.5-1.8l1.4-5.4L282.8,141.9 M280.4,138.9l-1.6,6.1l-1.6,6.1
			l0.1,0.2c-5.9,0.6-11.7,1.7-17.2,3.4l-0.1-0.4l-0.1-0.1v0l-7.4-9.7l-8.5,3.5l0.9,12.4l0.1,0.1v0l0.3,0.4c-2.5,1.3-5,2.8-7.4,4.4
			c-2.4,1.6-4.7,3.3-7,5.2l-0.1-0.2l-11.3-5.8l-6.5,6.5l2.1,3.6l4.2,7.2l0.2,0.1c-1.2,1.5-2.3,3-3.4,4.5c-2.3,3.2-4.4,6.6-6.3,10.1
			l-0.5-0.4l-12.1-1.6l-3.5,8.5l0.1,0.1l0,0l9.4,8.1l0.6,0.1c-1,3.3-1.8,6.6-2.4,10c-0.4,2.3-0.8,4.6-1,6.9l-0.1,0l-0.2-0.1l0,0
			l-2.9,0.9l-9.2,2.9v9.2l0,0l0,0l12.1,3.2l0,0l0,0l0.1,0l0.2-0.1c0.3,2.9,0.7,5.8,1.3,8.6c0.6,2.9,1.3,5.7,2.1,8.4l-0.4,0l-0.4,0.3
			l-9.5,7.3l0.2,0.6l0,0l3.5,8.5l9.3-1.3l2.8-0.2l0.4-0.3l0.1-0.1c2.5,4.7,5.5,9.2,8.9,13.5c0.3,0.3,0.5,0.6,0.7,0.9l-0.2,0.1
			l-0.1,0.1l-0.2,0.1l-6.1,10.6l0.5,0.5l6.5,6.5l9.4-5.5l1.1-0.6l0.1-0.1l0.2-0.1l0.1-0.2c0.4,0.3,0.7,0.6,1.1,0.9
			c4.2,3.4,8.6,6.3,13.2,8.8l-0.2,0.2l-1,12.7l0.1,0l0,0.1l8.5,3.5l7.6-10l0-0.4c2.5,0.8,5,1.4,7.5,1.9c3.2,0.7,6.4,1.2,9.5,1.5
			l0,0.2l-0.1,0.4l0,0l3.2,11.8h9.2l0,0l3.3-10.1l0.5-1.7l0,0l-0.1-0.3l-0.1-0.3c2.9-0.3,5.8-0.7,8.7-1.3c2.8-0.6,5.6-1.3,8.3-2.1
			l0,0.2l0.1,0.1v0l8.2,9.7l8.5-3.5l-1.7-12.4l-0.1-0.1v0l-0.1-0.1c3.6-1.9,7-4.1,10.4-6.5c1.4-1,2.8-2.1,4.2-3.2l0.3,0.5l10.6,6.1
			l6.5-6.5l-5.6-11.1l-0.4-0.4c3.6-4.4,6.8-9.2,9.5-14.2l0.1,0.1l12.7,1l3.5-8.5l-10-7.6l-0.2,0c1.7-5.5,2.8-11.2,3.4-17.1l0.5,0.1
			l11.8-3.2v-9.2l0,0l0,0l-11.8-3.9h-0.5c-0.5-5.7-1.7-11.4-3.4-17l0.4-0.1l9.7-7.4l-3.5-8.5l-12.4,0.9l-0.3,0.3
			c-2.7-5-5.9-9.9-9.6-14.4l0.2-0.1l0.1-0.2l0.1,0l6.1-10.6l-0.5-0.5l-6.5-6.5l-9.4,5.5L340,170l-0.1,0.1l-0.2,0.1l-0.1,0.2
			c-2.2-1.9-4.6-3.6-7-5.2c-2.4-1.6-4.9-3.1-7.5-4.4l0.2-0.3l1.6-12.1l-0.1,0l0-0.1l-8.5-3.5l-8.1,9.4l0,0.5
			c-5.4-1.7-11.1-2.8-16.9-3.3l0.1-0.2l-3.9-12.1H280.4L280.4,138.9z"/>
	</g>
	<g class="st1">
		<path class="st9" d="M445.1,243.8l-2.8-10.3l0-0.1c0.1-0.4,0-0.9-0.2-1.2s-0.6-0.6-1.1-0.6c-3-0.3-6.2-0.8-9.4-1.4
			c-2.6-0.6-5.1-1.2-7.4-1.9c-0.1,0-0.3-0.1-0.4-0.1c-0.3,0-0.6,0.1-0.8,0.2c-0.4,0.2-0.6,0.6-0.7,1l-6.6,8.7l-6.5-2.7l0.9-11.2
			c0.2-0.3,0.3-0.7,0.2-1.1c-0.1-0.4-0.4-0.8-0.8-1.1c-4.5-2.4-8.9-5.3-13-8.6c-0.2-0.1-0.3-0.3-0.5-0.4c-0.2-0.1-0.4-0.3-0.6-0.5
			c-0.3-0.2-0.6-0.3-1-0.3c-0.1,0-0.2,0-0.3,0c-0.4,0.1-0.7,0.3-1,0.6c0,0-0.1,0.1-0.1,0.1l-0.8,0.4l-8.5,5l-5.4-5.4l5.3-9.3
			c0,0,0.1-0.1,0.1-0.1c0.3-0.2,0.6-0.6,0.6-0.9c0.1-0.4,0-0.9-0.3-1.3c-0.1-0.2-0.3-0.3-0.4-0.5c-0.1-0.1-0.2-0.3-0.3-0.4
			c-3.4-4.2-6.4-8.7-8.8-13.3c-0.2-0.4-0.6-0.7-1-0.8c-0.1,0-0.2,0-0.3,0c-0.3,0-0.6,0.1-0.9,0.3l-0.2,0.1l-2.3,0.2l-8.3,1.1
			l-2.9-6.9l8.6-6.6l0.1-0.1c0.4-0.1,0.8-0.3,1-0.6c0.3-0.4,0.3-0.9,0.2-1.3c-0.8-2.7-1.5-5.5-2.1-8.3c-0.6-2.8-1-5.6-1.2-8.5
			c0-0.4-0.3-0.8-0.6-1.1c-0.3-0.2-0.5-0.3-0.9-0.3c-0.1,0-0.1,0-0.2,0l-10.6-2.8V145l10.7-3.4c0,0,0.1,0,0.1,0
			c0.3,0,0.6-0.1,0.8-0.2c0.4-0.3,0.7-0.6,0.7-1.1c0.2-2.1,0.5-4.3,1-6.8c0.6-3.5,1.4-6.8,2.3-9.8c0.1-0.4,0.1-0.9-0.2-1.3
			s-0.7-0.6-1.1-0.7l-0.1,0l-8.3-7.1l2.7-6.4l10.6,1.4l0.2,0.2c0.3,0.2,0.6,0.3,0.9,0.3c0.1,0,0.2,0,0.3,0c0.4-0.1,0.8-0.4,1-0.8
			c1.7-3.3,3.8-6.6,6.2-9.9c1.3-1.8,2.3-3.2,3.4-4.4c0.3-0.3,0.4-0.8,0.3-1.2c-0.1-0.4-0.3-0.7-0.6-0.9l-5.5-9.5l4.9-4.9l9.9,5.1
			c0.2,0.3,0.5,0.5,0.9,0.6c0.1,0,0.2,0,0.3,0c0.4,0,0.7-0.1,1-0.3c2.2-1.8,4.5-3.5,6.8-5.1c2.3-1.6,4.8-3,7.3-4.3
			c0.4-0.2,0.7-0.6,0.8-1c0.1-0.4,0-0.9-0.3-1.3l-0.1-0.1L409.3,61l6.4-2.7l6.5,8.5l0,0.1c0.1,0.4,0.3,0.8,0.7,1.1
			c0.2,0.2,0.5,0.2,0.8,0.2c0.1,0,0.3,0,0.4-0.1c5.4-1.7,11.1-2.8,16.9-3.3c0.4,0,0.8-0.3,1.1-0.6c0.2-0.3,0.3-0.7,0.3-1.1l2.8-10.6
			h6.9l3.4,10.6c0,0.3,0,0.7,0.2,1c0.3,0.4,0.7,0.6,1.1,0.7c5.7,0.5,11.3,1.6,16.6,3.3c0.1,0,0.3,0.1,0.4,0.1c0.3,0,0.6-0.1,0.8-0.3
			c0.4-0.3,0.6-0.7,0.6-1.1l7.1-8.2l6.5,2.7l-1.4,10.6c-0.3,0.3-0.4,0.8-0.3,1.2c0.1,0.4,0.4,0.8,0.8,1c2.5,1.3,5,2.8,7.3,4.4
			c2.4,1.6,4.7,3.3,6.9,5.1c0.3,0.2,0.6,0.3,1,0.3c0.1,0,0.2,0,0.3,0c0.4-0.1,0.7-0.3,1-0.6c0,0,0.1-0.1,0.1-0.1l0.8-0.4l8.5-5
			l5.4,5.4l-5.3,9.2c-0.1,0.1-0.2,0.2-0.2,0.3c-0.3,0.2-0.5,0.5-0.6,0.9c-0.1,0.4,0,0.9,0.3,1.3c3.7,4.4,6.8,9.2,9.5,14.1
			c0.2,0.4,0.6,0.7,1,0.8c0.1,0,0.2,0,0.3,0c0.3,0,0.6-0.1,0.9-0.3l10.8-0.8l2.7,6.4l-8.5,6.5h0c-0.4,0.1-0.8,0.3-1.1,0.7
			s-0.3,0.8-0.2,1.3c1.7,5.4,2.8,11.1,3.3,16.7c0.1,0.8,0.7,1.4,1.5,1.4h0.3l10.5,3.5v6.9l-10.3,2.8l-0.2,0c-0.1,0-0.3-0.1-0.4-0.1
			c-0.3,0-0.6,0.1-0.9,0.3c-0.4,0.3-0.6,0.6-0.6,1.1c-0.5,5.8-1.7,11.4-3.3,16.9c-0.1,0.4-0.1,0.9,0.2,1.3c0.2,0.3,0.5,0.5,0.8,0.6
			l8.8,6.6l-2.6,6.4l-11.2-0.9c-0.2-0.1-0.5-0.2-0.7-0.2c-0.1,0-0.2,0-0.3,0c-0.5,0.1-0.8,0.4-1,0.8c-2.7,5-5.8,9.7-9.4,14
			c-0.5,0.6-0.5,1.5,0.1,2l0.2,0.2l5,9.9l-4.9,4.9l-9.2-5.3l-0.1-0.1c-0.2-0.4-0.6-0.6-1-0.7c-0.1,0-0.2,0-0.3,0
			c-0.4,0-0.7,0.1-1,0.4c-1.2,1-2.5,2-4.1,3.2c-3.3,2.4-6.7,4.6-10.2,6.4c-0.4,0.2-0.7,0.6-0.8,1c-0.1,0.4,0,0.8,0.2,1.1l1.5,10.9
			l-6.4,2.6l-7.3-8.6c-0.1-0.3-0.3-0.6-0.6-0.8c-0.3-0.2-0.5-0.3-0.9-0.3c-0.1,0-0.3,0-0.4,0.1c-2.7,0.8-5.4,1.5-8.2,2
			c-2.8,0.6-5.7,1-8.5,1.2c-0.5,0-0.9,0.3-1.1,0.7s-0.3,0.9-0.2,1.3l0,0.1l-3.4,10.3L445.1,243.8L445.1,243.8z"/>
		<path class="st3" d="M446.3,54h4.7l3,9.3c0,0.6,0.2,1.1,0.5,1.6c0.5,0.8,1.3,1.3,2.2,1.3c5.6,0.5,11.1,1.6,16.3,3.2
			c0.3,0.1,0.6,0.1,0.9,0.1c0.6,0,1.2-0.2,1.7-0.5c0.6-0.4,1-1,1.2-1.7l6.1-7.1l4.4,1.8l-1.2,9.2c-0.3,0.6-0.4,1.4-0.3,2.1
			c0.2,0.9,0.8,1.6,1.5,2c2.5,1.3,4.9,2.7,7.2,4.3c2.3,1.6,4.6,3.3,6.8,5c0.5,0.4,1.2,0.7,1.9,0.7c0.2,0,0.4,0,0.5-0.1
			c0.7-0.1,1.3-0.5,1.7-1l0.6-0.3c0.1,0,0.1-0.1,0.2-0.1l7.4-4.3l3.7,3.7l-4.6,8c0,0-0.1,0.1-0.1,0.1c-0.5,0.4-0.9,1-1,1.7
			c-0.2,0.9,0,1.8,0.6,2.5c3.6,4.3,6.7,9,9.3,13.9c0.4,0.8,1.2,1.4,2.1,1.5c0.2,0,0.4,0.1,0.6,0.1c0.5,0,0.9-0.1,1.4-0.3l9.4-0.7
			l1.8,4.3l-7.3,5.6c-0.7,0.2-1.3,0.7-1.7,1.3c-0.5,0.7-0.6,1.7-0.3,2.5c1.7,5.3,2.8,10.9,3.3,16.4c0.2,1.5,1.4,2.7,3,2.7h0.1
			l9.3,3.1v4.7l-8.8,2.4c-0.2,0-0.3,0-0.5,0c-0.6,0-1.2,0.2-1.7,0.5c-0.7,0.5-1.2,1.3-1.3,2.2c-0.5,5.6-1.6,11.2-3.3,16.6
			c-0.3,0.8-0.1,1.8,0.3,2.5c0.3,0.5,0.8,0.9,1.3,1.1l7.7,5.8l-1.8,4.3l-9.8-0.8c-0.3-0.1-0.7-0.2-1.1-0.2c-0.2,0-0.4,0-0.5,0.1
			c-0.9,0.2-1.7,0.7-2.1,1.5c-2.6,4.9-5.7,9.5-9.2,13.7c-1,1.2-0.9,2.9,0.2,4l0,0.1l4.4,8.7l-3.3,3.3l-7.9-4.6
			c-0.5-0.6-1.1-1.1-1.9-1.2c-0.2,0-0.4-0.1-0.5-0.1c-0.7,0-1.4,0.2-1.9,0.7c-1.2,1-2.5,2-4,3.1c-3.3,2.4-6.6,4.5-10,6.3
			c-0.8,0.4-1.3,1.1-1.5,2c-0.1,0.6-0.1,1.3,0.2,1.9l1.3,9.5L483,236l-6.4-7.6c-0.2-0.5-0.6-1-1.1-1.3c-0.5-0.4-1.1-0.5-1.7-0.5
			c-0.3,0-0.6,0-0.9,0.1c-2.6,0.8-5.3,1.5-8,2c-2.8,0.6-5.6,1-8.4,1.2c-0.9,0.1-1.7,0.6-2.2,1.3c-0.4,0.6-0.6,1.4-0.5,2.1l-0.3,0.8
			l-2.7,8.1h-4.7l-2.4-8.8c0.1-0.8,0-1.6-0.5-2.2c-0.5-0.7-1.3-1.2-2.2-1.3c-3-0.3-6.1-0.8-9.2-1.4c-2.6-0.5-5-1.2-7.3-1.9
			c-0.3-0.1-0.6-0.1-0.9-0.1c-0.6,0-1.1,0.2-1.6,0.5c-0.6,0.4-1,1-1.2,1.6l-5.7,7.6l-4.4-1.8l0.8-9.8c0.3-0.6,0.3-1.2,0.2-1.8
			c-0.2-0.9-0.7-1.7-1.5-2.1c-4.4-2.3-8.7-5.2-12.8-8.4c-0.2-0.1-0.3-0.3-0.5-0.4c-0.2-0.1-0.4-0.3-0.5-0.4
			c-0.5-0.4-1.2-0.7-1.9-0.7c-0.2,0-0.4,0-0.5,0.1c-0.7,0.1-1.3,0.5-1.7,1l-0.6,0.3c-0.1,0-0.1,0.1-0.2,0.1l-7.4,4.3l-3.7-3.7
			l4.6-8.1c0.5-0.4,0.9-1.1,1.1-1.7c0.2-0.9,0-1.8-0.6-2.5c-0.1-0.1-0.2-0.3-0.3-0.4c-0.1-0.1-0.2-0.3-0.4-0.5
			c-3.3-4.1-6.2-8.5-8.6-13c-0.4-0.8-1.1-1.3-2-1.5c-0.2-0.1-0.4-0.1-0.6-0.1c-0.6,0-1.2,0.2-1.7,0.5l-1.9,0.1c-0.1,0-0.1,0-0.2,0
			l-7,1l-2-4.8l7.5-5.8c0.6-0.2,1.2-0.6,1.6-1.2c0.5-0.8,0.7-1.7,0.4-2.6c-0.8-2.6-1.5-5.4-2-8.1c-0.5-2.8-1-5.5-1.2-8.3
			c-0.1-0.9-0.5-1.7-1.3-2.2c-0.5-0.4-1.1-0.5-1.7-0.5c0,0,0,0-0.1,0l-9.3-2.4v-4.7l7.1-2.3l2.3-0.7c0.6,0,1.1-0.2,1.6-0.5
			c0.8-0.5,1.3-1.3,1.4-2.2c0.2-2.1,0.5-4.2,0.9-6.7c0.6-3.4,1.4-6.6,2.3-9.7c0.3-0.9,0.1-1.8-0.4-2.6c-0.4-0.6-1.1-1.1-1.8-1.2
			L361,114l1.8-4.4l9,1.2c0.5,0.3,1.1,0.5,1.7,0.5c0.2,0,0.4,0,0.6-0.1c0.9-0.2,1.6-0.8,2-1.5c1.7-3.3,3.8-6.5,6.1-9.7
			c1.2-1.7,2.3-3.1,3.3-4.3c0.6-0.7,0.8-1.6,0.6-2.4c-0.1-0.6-0.4-1.2-0.9-1.6l-3.9-6.7l-0.9-1.6l3.3-3.3l8.7,4.5
			c0.4,0.4,0.9,0.7,1.5,0.8c0.2,0,0.4,0.1,0.6,0.1c0.7,0,1.4-0.2,1.9-0.7c2.1-1.8,4.4-3.4,6.7-5c2.3-1.5,4.7-3,7.1-4.3
			c0.8-0.4,1.4-1.2,1.5-2.1c0.1-0.7,0-1.5-0.4-2.2l-0.7-9.3l4.3-1.8l5.6,7.3c0.2,0.7,0.6,1.3,1.3,1.8c0.5,0.3,1,0.5,1.6,0.5
			c0.3,0,0.6,0,0.9-0.1c5.3-1.7,10.9-2.8,16.6-3.3c0.9-0.1,1.7-0.6,2.2-1.3c0.4-0.5,0.5-1.2,0.5-1.8l1.4-5.5L446.3,54 M444,51
			l-1.6,6l-1.6,6l0.1,0.2c-5.9,0.6-11.7,1.7-17.2,3.4l-0.1-0.4l-0.1-0.1v0l-7.4-9.7l-8.5,3.5l0.9,12.4l0.1,0.1v0l0.3,0.4
			c-2.5,1.3-5,2.8-7.4,4.4c-2.4,1.6-4.7,3.3-7,5.2l-0.1-0.2l-11.3-5.8l-6.5,6.5l2.1,3.6l4.2,7.2l0.2,0.1c-1.2,1.5-2.3,3-3.5,4.5
			c-2.3,3.2-4.5,6.6-6.3,10.1L373,108l-12.1-1.6l-3.5,8.5l0.1,0.1l0,0l9.4,8.1l0.6,0.1c-1,3.3-1.8,6.6-2.4,10
			c-0.4,2.3-0.8,4.6-1,6.9l-0.1,0l-0.2-0.1l0,0l-2.9,0.9l-9.2,2.9v9.2l0,0l0,0l12.1,3.2l0,0l0,0l0.1,0l0.2-0.1
			c0.3,2.9,0.7,5.8,1.3,8.6c0.6,2.9,1.3,5.7,2.1,8.4l-0.4,0l-0.4,0.3l-9.5,7.3l0.2,0.6l0,0l3.5,8.5l9.3-1.3l2.8-0.2l0.4-0.3l0.1-0.1
			c2.5,4.7,5.5,9.2,8.9,13.5c0.3,0.3,0.5,0.6,0.7,0.9l-0.2,0.1l-0.1,0.1l-0.2,0.1l-6.1,10.6l0.5,0.5l6.5,6.5l9.4-5.5l1.1-0.6
			l0.1-0.1l0.2-0.1l0.1-0.2c0.4,0.3,0.7,0.6,1.1,0.9c4.2,3.4,8.6,6.3,13.2,8.8l-0.2,0.2l-1,12.7l0.1,0l0,0.1l8.5,3.5l7.6-10l0-0.4
			c2.5,0.8,5,1.4,7.5,1.9c3.2,0.7,6.4,1.2,9.5,1.5l0,0.2l-0.1,0.4l0,0l3.2,11.8h9.2l0,0l3.3-10.1l0.5-1.7l0,0l-0.1-0.3l-0.1-0.3
			c2.9-0.3,5.8-0.7,8.7-1.3c2.8-0.6,5.6-1.3,8.3-2.1l0,0.2l0.1,0.1v0l8.2,9.7l8.5-3.5l-1.7-12.4l-0.1-0.1v0l-0.1-0.1
			c3.6-1.9,7-4.1,10.4-6.5c1.4-1,2.8-2.1,4.2-3.2l0.3,0.5l10.6,6.1l6.5-6.5l-5.6-11.1l-0.4-0.4c3.6-4.4,6.8-9.2,9.5-14.2l0.2,0.1
			l12.7,1l3.5-8.5l-10-7.6l-0.2,0c1.7-5.5,2.8-11.2,3.4-17.1l0.5,0.1l11.8-3.2v-9.2l0,0l0,0l-11.8-3.9h-0.5
			c-0.5-5.7-1.7-11.4-3.4-17l0.4-0.1l9.7-7.4L537,107l-12.4,0.9l-0.3,0.3c-2.7-5-5.9-9.9-9.7-14.4l0.2-0.1l0.1-0.2l0.1,0l6.1-10.6
			l-0.5-0.5l-6.5-6.5l-9.4,5.5l-1.2,0.6l-0.1,0.1l-0.2,0.1l-0.1,0.2c-2.2-1.8-4.6-3.6-7-5.2c-2.4-1.6-4.9-3.1-7.5-4.4l0.2-0.3
			l1.6-12.1l-0.1,0l0-0.1l-8.5-3.5l-8.1,9.4l0,0.5c-5.4-1.7-11.1-2.8-16.9-3.3l0.1-0.2l-3.9-12.1L444,51L444,51z"/>
	</g>
	<path class="st8" d="M195.3,281c-0.5-4-1.8-7.9-3.6-11.4l0.2-0.1c0.7-2.8,2.3-5.5,4.7-7.4l-4.4-5.4c-2.4,2-5.3,3-8.2,3.1l-0.4,0.3
		c-3.1-2.5-6.8-4.4-10.8-5.6c-1.1-2.2-1.6-4.8-1.4-7.5l-6.8-0.7c-0.3,2.7-1.3,5.1-2.9,7.1c-4.6,0.3-9,1.7-12.9,3.9
		c-2.4-0.8-4.6-2.2-6.3-4.3l-5.3,4.3c1.7,2.1,2.7,4.5,3,7c-2.9,3.4-5.1,7.4-6.4,11.9c-2.2,1.1-4.8,1.6-7.5,1.4l-0.7,6.8
		c2.7,0.3,5.1,1.3,7.1,2.9c0.3,4.3,1.5,8.4,3.4,12.1c-0.8,2.6-2.3,4.9-4.5,6.8l4.4,5.4c2.1-1.8,4.7-2.8,7.2-3
		c3.4,3,7.5,5.3,12.1,6.7c1.1,2.3,1.6,4.8,1.3,7.5l6.9,0.7c0.3-2.7,1.3-5.1,2.8-7c4.8-0.3,9.3-1.8,13.3-4.1c2.4,0.8,4.6,2.3,6.3,4.4
		l5.4-4.4c-1.8-2.2-2.8-4.7-3-7.3c2.8-3.4,4.9-7.3,6.1-11.6c2.4-1.3,5.2-2,8.1-1.7l0.7-7C200.2,284.3,197.4,283,195.3,281z"/>
	<g class="st1">
		<path class="st3" d="M285.4,222.5c7.5,0,13.5,6.1,13.5,13.5c0,7.5-6.1,13.5-13.5,13.5c-7.5,0-13.5-6.1-13.5-13.5
			C271.9,228.6,277.9,222.5,285.4,222.5 M285.4,219.5c-9.1,0-16.5,7.4-16.5,16.5c0,9.1,7.4,16.5,16.5,16.5c9.1,0,16.5-7.4,16.5-16.5
			C301.9,226.9,294.5,219.5,285.4,219.5L285.4,219.5z"/>
	</g>
	<circle class="st8" cx="164.4" cy="284.8" r="13.3"/>
	<g class="st1">
		<path class="st3" d="M448.9,82.5c36.2,0,65.6,29.4,65.6,65.6s-29.4,65.6-65.6,65.6s-65.6-29.4-65.6-65.6S412.8,82.5,448.9,82.5
			 M448.9,79.5c-37.9,0-68.6,30.7-68.6,68.6s30.7,68.6,68.6,68.6s68.6-30.7,68.6-68.6S486.8,79.5,448.9,79.5L448.9,79.5z"/>
	</g>
	<g class="st1">
		<path class="st3" d="M285.4,171.6c35.5,0,64.5,28.9,64.5,64.4s-28.9,64.4-64.5,64.4s-64.4-28.9-64.4-64.4S249.8,171.6,285.4,171.6
			 M285.4,168.6c-37.3,0-67.4,30.2-67.4,67.4s30.2,67.4,67.4,67.4s67.5-30.2,67.5-67.4C352.8,198.8,322.6,168.6,285.4,168.6
			L285.4,168.6z"/>
	</g>
	<path class="st8" d="M282.3,227.9l-119.8,48.5c-4.6,1.8-6.8,7-4.9,11.6l0,0c1.8,4.5,7,6.8,11.6,4.9L289,244.4
		c4.5-1.8,6.8-7,4.9-11.6l0,0C292.1,228.3,286.9,226.1,282.3,227.9z"/>
	<g class="st1">
		<path class="st3" d="M130.5,200.9c0.3,1.8,0.5,3.7,0.5,5.6c0,16.6-13.5,30.1-30.1,30.1s-30.1-13.5-30.1-30.1s13.5-30.1,30.1-30.1
			c8.3,0,15.8,3.4,21.3,8.8l6.2-6.2c-7-7-16.7-11.4-27.4-11.4c-21.4,0-38.8,17.4-38.8,38.8s17.4,38.8,38.8,38.8s38.8-17.4,38.8-38.8
			c0-1.9-0.1-3.8-0.4-5.6L130.5,200.9z"/>
		<g>
			<path class="st3" d="M102,200.9v9.2h49.1c0.1-3.1,0.3-6.1,0.4-9.2H102z"/>
		</g>
		<g>
			<path class="st9" d="M100.1,264.3c-0.2-0.6-0.7-1.1-1.4-1.1c-2.8-0.1-5.6-0.4-8.4-0.9c-0.1,0-0.2,0-0.3,0c-0.6,0-1.1,0.3-1.3,0.8
				l-3.6,7l-8.5-2.7l1.1-7.9c0.1-0.6-0.3-1.3-0.8-1.6c-2.4-1.1-4.8-2.4-7-3.9c-0.3-0.2-0.5-0.2-0.8-0.2c-0.3,0-0.7,0.1-1,0.4
				l-6.1,5.2l-6.8-5.7l4.1-7c0.3-0.6,0.3-1.3-0.2-1.8c-1.8-1.9-3.5-4-5-6.2c-0.3-0.4-0.8-0.6-1.2-0.6c-0.2,0-0.3,0-0.5,0.1l-7.7,2.5
				l-4.1-7.9l6.5-4.9c0.5-0.4,0.7-1.1,0.5-1.7c-0.9-2.4-1.6-5-2.2-7.6c-0.1-0.6-0.7-1.1-1.3-1.2l-8.1-0.6l-0.8-8.9l7.9-2.1
				c0.6-0.2,1.1-0.7,1.1-1.4c0.1-2.7,0.4-5.3,0.9-7.9c0.1-0.6-0.2-1.3-0.8-1.6l-7.2-3.7l2.7-8.5l8,1.1c0.1,0,0.1,0,0.2,0
				c0.6,0,1.1-0.3,1.4-0.9c1.1-2.4,2.4-4.8,3.8-7c0.4-0.6,0.3-1.3-0.1-1.8l-5.2-6.1l5.7-6.8l6.9,4.1c0.2,0.1,0.5,0.2,0.8,0.2
				c0.4,0,0.7-0.1,1-0.4c1.9-1.8,4-3.5,6.2-5c0.5-0.4,0.8-1.1,0.6-1.7l-2.5-7.6l7.9-4.1l4.8,6.3c0.3,0.4,0.7,0.6,1.2,0.6
				c0.2,0,0.3,0,0.5-0.1c2.6-1,5.3-1.8,8.1-2.4c0.7-0.1,1.1-0.7,1.2-1.4l0.6-7.8l8.9-0.8l2,7.5c0.2,0.6,0.7,1.1,1.4,1.1
				c2.7,0.1,5.3,0.4,7.8,0.8c0.1,0,0.2,0,0.3,0c0.6,0,1.1-0.3,1.3-0.8l3.5-6.8l8.5,2.7l-1.1,7.6c-0.1,0.7,0.3,1.3,0.9,1.6
				c2.5,1.1,4.9,2.5,7.2,4c0.3,0.2,0.5,0.2,0.8,0.2c0.4,0,0.7-0.1,1-0.4l5.8-4.9l6.5,5.5L136,169c-9.6-9-22-13.9-35.1-13.9
				c-1.5,0-3,0.1-4.4,0.2c-13.7,1.2-26.1,7.6-35,18.2S48.4,197.3,49.6,211c2.3,26.4,24.8,47.1,51.3,47.1l0,0c1.5,0,3-0.1,4.4-0.2
				c28.2-2.4,49.2-27.3,47-55.4l8.6,0.1l4.7,0l0.2,2.8l-7.2,1.9c-0.6,0.2-1.1,0.7-1.1,1.4c-0.1,2.8-0.4,5.6-0.9,8.3
				c-0.1,0.6,0.2,1.3,0.8,1.6l6.6,3.4l-2.7,8.5l-7.4-1c-0.1,0-0.1,0-0.2,0c-0.6,0-1.1,0.3-1.4,0.9c-1.2,2.5-2.5,5-4,7.3
				c-0.4,0.6-0.3,1.3,0.1,1.8l4.9,5.7l-5.7,6.8l-6.6-3.9c-0.2-0.1-0.5-0.2-0.8-0.2c-0.4,0-0.7,0.1-1,0.4c-2,1.9-4.2,3.6-6.5,5.1
				c-0.6,0.4-0.8,1.1-0.6,1.7l2.4,7.3l-7.9,4.1l-4.6-6.1c-0.3-0.4-0.7-0.6-1.2-0.6c-0.2,0-0.3,0-0.5,0.1c-2.4,0.9-5,1.6-7.6,2.2
				c-0.7,0.1-1.1,0.7-1.2,1.4l-0.6,7.8l-8.9,0.8L100.1,264.3z"/>
			<path class="st3" d="M98.6,142.9l1.7,6.3c0.3,1.3,1.5,2.2,2.8,2.2c2.6,0.1,5.1,0.4,7.6,0.8c0.2,0,0.4,0.1,0.5,0.1
				c1.1,0,2.2-0.6,2.7-1.6l2.9-5.7l6.1,1.9l-0.9,6.3c-0.2,1.3,0.5,2.6,1.7,3.1c2.4,1.1,4.8,2.4,7.1,3.9c0.5,0.3,1.1,0.5,1.6,0.5
				c0.7,0,1.4-0.2,1.9-0.7l4.8-4.1l4.3,3.6l-7.4,7.4c-9.7-8.6-22.1-13.3-35.1-13.3c-1.5,0-3.1,0.1-4.6,0.2
				c-29.1,2.5-50.8,28.2-48.3,57.4c2.3,27.2,25.5,48.5,52.8,48.5c1.5,0,3.1-0.1,4.6-0.2c28.5-2.5,49.8-27.1,48.4-55.4l7.1,0.1l3.3,0
				l0,0.2l-6,1.6c-1.3,0.3-2.2,1.5-2.2,2.8c-0.1,2.7-0.4,5.4-0.9,8.1c-0.3,1.3,0.4,2.6,1.6,3.2l5.5,2.8l-1.9,6.1l-6.2-0.9
				c-0.1,0-0.3,0-0.4,0c-1.1,0-2.2,0.7-2.7,1.7c-1.1,2.4-2.5,4.8-3.9,7.1c-0.7,1.1-0.6,2.6,0.2,3.6l4.1,4.8l-4.1,4.9l-5.5-3.2
				c-0.5-0.3-1-0.4-1.5-0.4c-0.7,0-1.5,0.3-2,0.8c-2,1.8-4.1,3.5-6.3,5c-1.1,0.8-1.6,2.1-1.2,3.4l2,6l-5.7,2.9l-3.9-5.1
				c-0.6-0.8-1.5-1.2-2.4-1.2c-0.3,0-0.7,0.1-1,0.2c-2.4,0.9-4.8,1.6-7.4,2.1c-1.3,0.3-2.3,1.4-2.4,2.7l-0.5,6.5l-6.3,0.5l-1.7-6.3
				c-0.3-1.3-1.5-2.2-2.8-2.2c-2.7-0.1-5.5-0.4-8.1-0.9c-0.2,0-0.4,0-0.6,0c-1.1,0-2.2,0.6-2.7,1.6l-3,5.9l-6.1-1.9l0.9-6.6
				c0.2-1.3-0.5-2.6-1.7-3.1c-2.3-1.1-4.6-2.4-6.8-3.8c-0.5-0.3-1.1-0.5-1.6-0.5c-0.7,0-1.4,0.2-1.9,0.7l-5.1,4.4l-4.9-4.1l3.5-5.9
				c0.7-1.1,0.5-2.6-0.4-3.6c-1.7-1.9-3.4-3.9-4.8-6c-0.6-0.8-1.5-1.3-2.5-1.3c-0.3,0-0.6,0.1-0.9,0.1l-6.5,2.1l-2.9-5.6l5.5-4.1
				c1-0.8,1.5-2.2,1-3.4c-0.9-2.4-1.6-4.9-2.1-7.4c-0.3-1.3-1.4-2.3-2.7-2.4l-6.8-0.5l-0.5-6.3l6.6-1.7c1.3-0.3,2.2-1.5,2.2-2.8
				c0.1-2.6,0.4-5.2,0.8-7.7c0.2-1.3-0.4-2.6-1.6-3.2l-6.1-3.1l1.9-6.1l6.8,0.9c0.1,0,0.3,0,0.4,0c1.2,0,2.2-0.7,2.7-1.8
				c1.1-2.3,2.3-4.6,3.7-6.8c0.7-1.1,0.6-2.6-0.2-3.6l-4.4-5.2l4.1-4.9l5.8,3.4c0.5,0.3,1,0.4,1.5,0.4c0.7,0,1.5-0.3,2-0.8
				c1.9-1.8,3.9-3.4,6.1-4.9c1.1-0.8,1.5-2.1,1.1-3.4l-2.1-6.4l5.7-2.9l4,5.3c0.6,0.8,1.5,1.2,2.4,1.2c0.3,0,0.7-0.1,1.1-0.2
				c2.5-1,5.2-1.7,7.9-2.3c1.3-0.3,2.3-1.4,2.4-2.7l0.5-6.5L98.6,142.9 M100.9,139.7l-11.4,1l-0.7,9c-2.8,0.6-5.6,1.4-8.3,2.4
				l-5.5-7.3l-10.2,5.3l2.9,8.8c-2.3,1.6-4.4,3.3-6.4,5.2l-8-4.7l-7.4,8.8l6.1,7.1c-1.5,2.3-2.8,4.7-3.9,7.1l-9.3-1.3L35.3,192
				l8.4,4.3c-0.5,2.6-0.8,5.3-0.9,8.1l-9.1,2.4l1,11.4l9.4,0.7c0.6,2.7,1.3,5.3,2.3,7.8l-7.5,5.6l5.3,10.2l8.9-2.9
				c1.5,2.2,3.2,4.4,5.1,6.4l-4.7,8.1l8.8,7.4l7.1-6c2.3,1.5,4.7,2.8,7.2,4l-1.3,9.1l10.9,3.5l4.1-8.1c2.8,0.5,5.7,0.9,8.6,1
				l2.3,8.8l11.4-1l0.7-9c2.7-0.6,5.3-1.3,7.8-2.2l5.4,7.1l10.2-5.3l-2.8-8.5c2.3-1.6,4.6-3.4,6.6-5.3l7.6,4.5l7.4-8.8l-5.7-6.7
				c1.6-2.4,2.9-4.9,4.1-7.5l8.7,1.2l3.5-10.9l-7.8-4c0.5-2.8,0.8-5.6,0.9-8.5l8.4-2.2l-0.5-5.4l-6.1,0l-10.1-0.2h-0.2l0,0.1h0
				c0.1,0.4,0.1,0.8,0.1,1.2c2.4,27.5-18.1,51.8-45.6,54.1c-1.4,0.1-2.9,0.2-4.3,0.2c-25.7,0-47.6-19.7-49.8-45.7
				c-2.4-27.5,18.1-51.8,45.6-54.1c1.4-0.1,2.9-0.2,4.3-0.2c13.5,0,26,5.5,35.1,14.5l11.8-11.8l-8.8-7.4l-6.7,5.8
				c-2.4-1.5-4.9-2.9-7.4-4.1l1.2-8.8l-10.9-3.5l-4.1,8c-2.6-0.5-5.3-0.8-8-0.9L100.9,139.7L100.9,139.7z"/>
		</g>
		<g>
			<path class="st3" d="M60,283.5l-3.3-1.8l40.9-73.3l4.1,2.3l-40.4,72.4C61.1,283.6,60.5,283.8,60,283.5z"/>
			<path class="st3" d="M56.8,277.3L56.8,277.3c-5.6-3.1-6.9-11.5-6.9-11.5l0,0c-0.8-2.7-2.6-5-5.2-6c-5.2-2.1-11.4,1.2-14,7.4
				c-2.6,6.2-0.5,13,4.7,15.2c2.1,0.9,4.3,0.8,6.4,0.1c8.2-1.7,12.7,0.5,14.2,1.5c0.2,0.2,0.4,0.3,0.6,0.4c0,0,0,0,0,0h0
				c0.8,0.4,1.7,0.6,2.6,0.4c1.9-0.4,3.2-2.3,2.7-4.3c0-0.2-0.1-0.3-0.2-0.5C60.2,279.2,58.3,278.5,56.8,277.3z"/>
		</g>
		<ellipse class="st3" cx="100.9" cy="206.6" rx="9.2" ry="9.2"/>
	</g>
	<path class="st7" d="M361.5,382.6c0.3,0,9.5-23.1,9.5-23.1l9.4,22.9"/>
	<circle class="st8" cx="370.8" cy="359.3" r="9.6"/>
	<rect x="355.7" y="377.6" class="st8" width="30.2" height="15.5"/>
	<g class="st1">
		<polygon class="st10" points="378.4,393.1 363.5,393.1 361.5,405.2 380.4,405.2 		"/>
	</g>
	<rect x="366.9" y="405.5" class="st8" width="7.8" height="5.4"/>
	<line class="st7" x1="370.9" y1="429.6" x2="325.5" y2="465.5"/>
	<path class="st8" d="M367.6,410.9c2.2,0,4.3,0,6.6,0c0,0.3,0,0.7,0,1c0.2,1.1,0.2,2.2,0.6,3.2c1,3.2-0.1,6-3.2,7.4
		c-0.9,0.4-1.8,0.7-2.7,1.1c-3,1.3-4.6,4.6-3.7,7.6c1,3,4.1,4.9,7.2,4.2c2.4-0.5,4.3-2.5,4.7-5c0.6-3.8,3.1-6.1,6.3-7.9
		c0.1,0,0.1-0.1,0.2-0.1c0.8,0,1.8-0.2,2.3,0.2c0.6,0.6-0.2,1.4-0.7,1.9c-1.4,1.2-1.5,2.8-1.4,4.5c0.3,6.5-4.3,12.4-10.6,13.9
		c-6.5,1.5-13.3-1.7-15.9-7.7c-3.5-8,0.5-16,7.1-18.7c0.4-0.1,0.7-0.3,1.1-0.5c1.6-0.7,2.3-1.9,2.3-3.6
		C367.6,412,367.6,411.5,367.6,410.9z"/>
	<line class="st7" x1="416.5" y1="465.6" x2="370.9" y2="429.6"/>
	<path class="st7" d="M412.7,531.7h-83.9c-4.7,0-8.5-3.8-8.5-8.5v-49.5c0-4.7,3.8-8.5,8.5-8.5h83.9c4.7,0,8.5,3.8,8.5,8.5v49.5
		C421.3,527.8,417.4,531.7,412.7,531.7z"/>
	<line class="st7" x1="370.8" y1="531.7" x2="370.8" y2="465.1"/>
	<line class="st7" x1="421.3" y1="498.4" x2="320.3" y2="498.4"/>
	<circle class="st7" cx="448.9" cy="148.1" r="23.3"/>
	<circle class="st7" cx="448.9" cy="148.1" r="13.1"/>
</g>
<g id="Слой_3">
	<path class="st9" d="M124.1,437.6H64.6C44.4,437.6,28,421.2,28,401v-59.6c0-20.2,16.4-36.6,36.6-36.6h59.6
		c20.2,0,36.6,16.4,36.6,36.6V401C160.8,421.2,144.4,437.6,124.1,437.6z"/>
	<path class="st11" d="M129.2,437.6H59.5c-17.4,0-31.5-14.1-31.5-31.5v-69.7c0-17.4,14.1-31.5,31.5-31.5h69.7
		c17.4,0,31.5,14.1,31.5,31.5v69.7C160.7,423.5,146.6,437.6,129.2,437.6z"/>
	<path class="st12" d="M128.9,426.1H59.8c-11.2,0-20.3-9.1-20.3-20.4v-69.1c0-11.2,9.1-20.4,20.3-20.4h69.1
		c11.2,0,20.4,9.1,20.4,20.4v69.1C149.3,417,140.2,426.1,128.9,426.1z"/>
	<circle class="st9" cx="207.8" cy="270.5" r="109.5"/>
	<path class="st13" d="M149.3,363.6c-18.3-11-32.9-27.6-41.5-47.3"/>
	<path class="st11" d="M103.8,304.8c-3.6-10.8-5.5-22.3-5.5-34.3c0-60.4,49-109.5,109.5-109.5s109.5,49,109.5,109.5
		S268.3,380,207.8,380c-16.9,0-32.8-3.8-47.1-10.6"/>
	<circle class="st13" cx="207.8" cy="270.5" r="97.2"/>
	<g>
		<path class="st14" d="M109.7,368.3c0.2,0.9,0.3,1.9,0.3,2.9c0,8.6-7,15.6-15.7,15.6c-8.6,0-15.7-7-15.7-15.6s7-15.6,15.7-15.6
			c4.3,0,8.2,1.8,11.1,4.6l3.2-3.2c-3.7-3.6-8.7-5.9-14.3-5.9c-11.1,0-20.2,9-20.2,20.2s9,20.2,20.2,20.2s20.2-9,20.2-20.2
			c0-1-0.1-2-0.2-2.9L109.7,368.3z"/>
		<g>
			<path class="st14" d="M94.9,368.3v4.8h25.5c0.1-1.6,0.1-3.2,0.2-4.8H94.9z"/>
		</g>
		<ellipse class="st3" cx="94.4" cy="371.2" rx="4.8" ry="4.8"/>
		<path class="st15" d="M124.6,372.3l4.4-1.1l-0.2-2.8l-3.2,0l-5.3-0.1h-0.1l0,0.1h0c0,0.2,0.1,0.4,0.1,0.6
			c1.2,14.3-9.4,26.9-23.7,28.1c-14.3,1.2-26.9-9.4-28.1-23.7c-1.2-14.3,9.4-26.9,23.7-28.1c7.9-0.7,15.3,2.3,20.5,7.4l6.1-6.1
			l-4.6-3.8l-3.5,3c-1.2-0.8-2.5-1.5-3.9-2.1l0.6-4.6l-5.7-1.8l-2.1,4.1c-1.4-0.2-2.8-0.4-4.2-0.5l-1.2-4.5l-5.9,0.5l-0.4,4.7
			c-1.5,0.3-2.9,0.7-4.3,1.3l-2.9-3.8l-5.3,2.7l1.5,4.6c-1.2,0.8-2.3,1.7-3.3,2.7l-4.2-2.4l-3.8,4.5l3.2,3.7c-0.8,1.2-1.4,2.4-2,3.7
			l-4.8-0.7l-1.8,5.7l4.3,2.2c-0.3,1.4-0.4,2.8-0.5,4.2l-4.7,1.2l0.5,5.9l4.9,0.4c0.3,1.4,0.7,2.8,1.2,4.1l-3.9,2.9l2.7,5.3l4.6-1.5
			c0.8,1.2,1.7,2.3,2.6,3.3l-2.5,4.2l4.6,3.8l3.7-3.1c1.2,0.8,2.4,1.5,3.7,2.1l-0.7,4.8l5.7,1.8l2.2-4.2c1.5,0.3,2.9,0.5,4.5,0.5
			l1.2,4.5l5.9-0.5l0.4-4.7c1.4-0.3,2.7-0.7,4-1.2l2.8,3.7l5.3-2.7l-1.4-4.4c1.2-0.8,2.4-1.8,3.4-2.7l4,2.3l3.8-4.5l-3-3.5
			c0.8-1.2,1.5-2.5,2.2-3.9l4.5,0.6l1.8-5.7l-4-2.1C124.4,375.3,124.5,373.8,124.6,372.3z"/>
		<g>
			<path class="st3" d="M71.4,408L71.4,408c-2.9-1.6-3.6-6-3.6-6l0,0c-0.4-1.4-1.4-2.6-2.7-3.1c-2.7-1.1-6,0.6-7.3,3.9
				c-1.3,3.2-0.3,6.8,2.4,7.9c1.1,0.5,2.2,0.4,3.3,0c4.3-0.9,6.6,0.2,7.4,0.8c0.1,0.1,0.2,0.2,0.3,0.2l0,0l0,0
				c0.4,0.2,0.9,0.3,1.3,0.2c1-0.2,1.7-1.2,1.4-2.2c0-0.1-0.1-0.2-0.1-0.3C73.2,409,72.2,408.6,71.4,408z"/>
			<path class="st3" d="M72.7,411l-1.3-0.7l21.3-38.1l2.2,1.2L74,410.6C73.8,411.1,73.2,411.2,72.7,411z"/>
		</g>
	</g>
	<g>
		<circle class="st9" cx="460.5" cy="418.1" r="38.6"/>
		<circle class="st16" cx="460.5" cy="418.1" r="38.6"/>
		<circle class="st11" cx="460.5" cy="418.1" r="38.6"/>
	</g>
	<g>
		<circle class="st9" cx="430.5" cy="418.1" r="46.8"/>
		<circle class="st16" cx="430.5" cy="418.1" r="46.8"/>
		<circle class="st11" cx="430.5" cy="418.1" r="46.8"/>
	</g>
	<g>
		<circle class="st9" cx="460.5" cy="418.1" r="38.6"/>
		<circle class="st16" cx="460.5" cy="418.1" r="38.6"/>
		<circle class="st11" cx="460.5" cy="418.1" r="38.6"/>
	</g>
	<g>
		<circle class="st9" cx="462.5" cy="418.1" r="38.6"/>
		<circle class="st16" cx="462.5" cy="418.1" r="38.6"/>
		<circle class="st11" cx="462.5" cy="418.1" r="38.6"/>
	</g>
	<g>
		<circle class="st9" cx="430.5" cy="418.1" r="46.8"/>
		<circle class="st16" cx="430.5" cy="418.1" r="46.8"/>
		<circle class="st11" cx="430.5" cy="418.1" r="46.8"/>
	</g>
	<g>
		<g>
			<g>
				<g>
					<path class="st17" d="M208.7,265.9h-2.5c-11.8,0-21.4-9.6-21.4-21.4v-10.5c0-11.8,9.6-21.4,21.4-21.4h2.5
						c11.8,0,21.4,9.6,21.4,21.4v10.5C230.1,256.3,220.5,265.9,208.7,265.9z"/>
					<path class="st17" d="M253.6,288.4c-7.4-7.3-16.5-12.8-26.6-16c-2.4-0.8-5,0.2-6.4,2.3c-1.7,2.5-4.5,4.2-7.7,4.2h-11.6
						c-3.2,0-5.9-1.6-7.6-4c-1.5-2.1-4.2-3.1-6.6-2.3c-10.8,3.5-20.4,9.6-28,17.8c-8.6,9.2-6.3,24.1,4.8,30.3l0,0
						c26.4,14.6,58.4,14.8,84.9,0.4l0,0C260.9,314.5,263.4,298,253.6,288.4z"/>
				</g>
			</g>
			<path class="st18" d="M230.1,231v-12.1c0-8.2-6.7-14.9-14.9-14.9h-15.4c-8.2,0-14.9,6.7-14.9,14.9v13.8c0,0.7,0.8,1.1,1.4,0.7
				c5-3.5,23.2-14.2,42.5,0c0.6,0.4,1.4,0,1.4-0.7V231z"/>
			<path class="st17" d="M184.9,227.8c0,0,22.1-18.5,45.2,0"/>
			<path class="st17" d="M233.9,243.6h-3c-0.5,0-0.8-0.4-0.8-0.8v-16.6c0-0.5,0.4-0.8,0.8-0.8h3c3.2,0,5.8,2.6,5.8,5.8v6.6
				C239.7,241,237.1,243.6,233.9,243.6z"/>
			<path class="st17" d="M181.1,243.6h3c0.5,0,0.8-0.4,0.8-0.8v-16.6c0-0.5-0.4-0.8-0.8-0.8h-3c-3.2,0-5.8,2.6-5.8,5.8v6.6
				C175.3,241,177.9,243.6,181.1,243.6z"/>
			<path class="st19" d="M239.7,234.3v7.3c0,6.8-5.5,12.3-12.3,12.3H213"/>
			<path class="st3" d="M211.6,257.2h4.7c1.7,0,3-1.4,3-3v-0.4c0-1.7-1.4-3-3-3h-4.7c-1.7,0-3,1.4-3,3v0.4
				C208.6,255.8,209.9,257.2,211.6,257.2z"/>
		</g>
		<g>
			<path class="st17" d="M227.3,315.6h-5.8c-4.2,0-7.6-3.4-7.6-7.6v-12.1c0-1.9,1.5-3.4,3.4-3.4h14.2c1.9,0,3.4,1.5,3.4,3.4V308
				C234.9,312.2,231.5,315.6,227.3,315.6z"/>
			<line class="st19" x1="227.7" y1="292.5" x2="227.7" y2="283.4"/>
			<line class="st19" x1="221.1" y1="292.5" x2="221.1" y2="288"/>
			<circle class="st3" cx="224.4" cy="299.5" r="2.7"/>
		</g>
	</g>
	<g>
		<circle class="st9" cx="400.5" cy="418.1" r="52.8"/>
		<circle class="st16" cx="400.5" cy="418.1" r="52.8"/>
		<circle class="st11" cx="400.5" cy="418.1" r="52.8"/>
	</g>
	<g>
		<g>
			<path class="st20" d="M401.3,412.5h-1.5c-6.9,0-12.5-5.6-12.5-12.5v-6.1c0-6.9,5.6-12.5,12.5-12.5h1.5c6.9,0,12.5,5.6,12.5,12.5
				v6.1C413.8,406.9,408.2,412.5,401.3,412.5z"/>
			<path class="st20" d="M428.3,426.4c-4.6-4.8-10.4-8.4-16.9-10.3c-1.2-0.4-2.4,0.1-3,1.2c-0.9,1.6-2.7,2.7-4.7,2.7h-6.8
				c-2,0-3.7-1.1-4.6-2.7c-0.6-1-1.9-1.5-3-1.2c-6.5,2-12.4,5.7-16.9,10.5c-5,5.4-3.7,14.1,2.8,17.6l0,0c15.4,8.5,34,8.6,49.5,0.3
				l0.9-0.5C432,440.6,433.5,431.8,428.3,426.4z"/>
		</g>
	</g>
	<g>
		
			<ellipse transform="matrix(0.1602 -0.9871 0.9871 0.1602 162.3376 727.065)" class="st9" cx="508.5" cy="268.1" rx="38.6" ry="38.7"/>
		
			<ellipse transform="matrix(0.1602 -0.9871 0.9871 0.1602 162.3376 727.065)" class="st16" cx="508.5" cy="268.1" rx="38.6" ry="38.7"/>
		
			<ellipse transform="matrix(0.1602 -0.9871 0.9871 0.1602 162.3376 727.065)" class="st11" cx="508.5" cy="268.1" rx="38.6" ry="38.7"/>
	</g>
	<g>
		
			<ellipse transform="matrix(0.1602 -0.9871 0.9871 0.1602 137.143 697.4523)" class="st9" cx="478.5" cy="268.1" rx="46.8" ry="46.8"/>
		
			<ellipse transform="matrix(0.1602 -0.9871 0.9871 0.1602 137.143 697.4523)" class="st16" cx="478.5" cy="268.1" rx="46.8" ry="46.8"/>
		
			<ellipse transform="matrix(0.1602 -0.9871 0.9871 0.1602 137.143 697.4523)" class="st11" cx="478.5" cy="268.1" rx="46.8" ry="46.8"/>
	</g>
	<g>
		
			<ellipse transform="matrix(0.1602 -0.9871 0.9871 0.1602 162.3376 727.065)" class="st9" cx="508.5" cy="268.1" rx="38.6" ry="38.7"/>
		
			<ellipse transform="matrix(0.1602 -0.9871 0.9871 0.1602 162.3376 727.065)" class="st16" cx="508.5" cy="268.1" rx="38.6" ry="38.7"/>
		
			<ellipse transform="matrix(0.1602 -0.9871 0.9871 0.1602 162.3376 727.065)" class="st11" cx="508.5" cy="268.1" rx="38.6" ry="38.7"/>
	</g>
	<g>
		
			<ellipse transform="matrix(0.1602 -0.9871 0.9871 0.1602 164.0172 729.0392)" class="st9" cx="510.5" cy="268.1" rx="38.6" ry="38.7"/>
		
			<ellipse transform="matrix(0.1602 -0.9871 0.9871 0.1602 164.0172 729.0392)" class="st16" cx="510.5" cy="268.1" rx="38.6" ry="38.7"/>
		
			<ellipse transform="matrix(0.1602 -0.9871 0.9871 0.1602 164.0172 729.0392)" class="st11" cx="510.5" cy="268.1" rx="38.6" ry="38.7"/>
	</g>
	<g>
		
			<ellipse transform="matrix(0.1602 -0.9871 0.9871 0.1602 137.143 697.4523)" class="st9" cx="478.5" cy="268.1" rx="46.8" ry="46.8"/>
		
			<ellipse transform="matrix(0.1602 -0.9871 0.9871 0.1602 137.143 697.4523)" class="st16" cx="478.5" cy="268.1" rx="46.8" ry="46.8"/>
		
			<ellipse transform="matrix(0.1602 -0.9871 0.9871 0.1602 137.143 697.4523)" class="st11" cx="478.5" cy="268.1" rx="46.8" ry="46.8"/>
	</g>
	<g>
		<circle class="st9" cx="448.5" cy="268.1" r="52.8"/>
		<circle class="st16" cx="448.5" cy="268.1" r="52.8"/>
		<circle class="st11" cx="448.5" cy="268.1" r="52.8"/>
	</g>
	<g>
		<path class="st20" d="M449.3,262.5h-1.5c-6.9,0-12.5-5.6-12.5-12.5v-6.1c0-6.9,5.6-12.5,12.5-12.5h1.5c6.9,0,12.5,5.6,12.5,12.5
			v6.1C461.8,256.9,456.2,262.5,449.3,262.5z"/>
		<path class="st20" d="M476.3,276.4c-4.6-4.8-10.4-8.4-16.9-10.3c-1.2-0.4-2.4,0.1-3,1.2c-0.9,1.6-2.7,2.7-4.7,2.7h-6.8
			c-2,0-3.7-1.1-4.6-2.7c-0.6-1-1.9-1.5-3-1.2c-6.5,2-12.4,5.7-16.9,10.5c-5,5.4-3.7,14.1,2.8,17.6l0,0c15.4,8.5,34,8.6,49.5,0.3
			l0.9-0.5C480,290.6,481.5,281.8,476.3,276.4z"/>
	</g>
	<g>
		<line class="st21" x1="303.3" y1="329.1" x2="356" y2="381.7"/>
		<polyline class="st21" points="339.5,383.9 357.7,383.9 357.7,365.9 		"/>
	</g>
	<g>
		<line class="st21" x1="317.4" y1="268.4" x2="389.7" y2="268.4"/>
		<polyline class="st21" points="379.6,281.6 392.5,268.7 379.7,256 		"/>
	</g>
	<g>
		<circle class="st9" cx="460.5" cy="128" r="38.6"/>
		<circle class="st16" cx="460.5" cy="128" r="38.6"/>
		<circle class="st11" cx="460.5" cy="128" r="38.6"/>
	</g>
	<g>
		<circle class="st9" cx="430.5" cy="128" r="46.8"/>
		<circle class="st16" cx="430.5" cy="128" r="46.8"/>
		<circle class="st11" cx="430.5" cy="128" r="46.8"/>
	</g>
	<g>
		<circle class="st9" cx="460.5" cy="128" r="38.6"/>
		<circle class="st16" cx="460.5" cy="128" r="38.6"/>
		<circle class="st11" cx="460.5" cy="128" r="38.6"/>
	</g>
	<g>
		<circle class="st9" cx="462.5" cy="128" r="38.6"/>
		<circle class="st16" cx="462.5" cy="128" r="38.6"/>
		<circle class="st11" cx="462.5" cy="128" r="38.6"/>
	</g>
	<g>
		<circle class="st9" cx="430.5" cy="128" r="46.8"/>
		<circle class="st16" cx="430.5" cy="128" r="46.8"/>
		<circle class="st11" cx="430.5" cy="128" r="46.8"/>
	</g>
	<g>
		<circle class="st9" cx="400.5" cy="128" r="52.8"/>
		<circle class="st16" cx="400.5" cy="128" r="52.8"/>
		<circle class="st11" cx="400.5" cy="128" r="52.8"/>
	</g>
	<g>
		<path class="st20" d="M401.3,122.3h-1.5c-6.9,0-12.5-5.6-12.5-12.5v-6.1c0-6.9,5.6-12.5,12.5-12.5h1.5c6.9,0,12.5,5.6,12.5,12.5
			v6.1C413.8,116.8,408.2,122.3,401.3,122.3z"/>
		<path class="st20" d="M428.3,136.3c-4.6-4.8-10.4-8.4-16.9-10.3c-1.2-0.3-2.4,0.2-3,1.2c-0.9,1.6-2.7,2.7-4.7,2.7H397
			c-2,0-3.7-1.1-4.6-2.7c-0.6-1.1-1.9-1.5-3-1.2c-6.5,2-12.4,5.7-16.9,10.5c-5,5.4-3.7,14.1,2.8,17.6l0,0c15.4,8.5,34,8.6,49.5,0.3
			l0.9-0.5C432.1,150.5,433.5,141.7,428.3,136.3z"/>
	</g>
	<g>
		<line class="st21" x1="303.3" y1="217.2" x2="356" y2="164.6"/>
		<polyline class="st21" points="339.5,162.4 357.7,162.4 357.7,180.4 		"/>
	</g>
</g>
<g id="Слой_4" class="st0">
	
		<ellipse transform="matrix(0.8385 -0.5449 0.5449 0.8385 -121.8858 211.903)" class="st22" cx="296.5" cy="311.6" rx="226.1" ry="126.4"/>
	<polyline class="st22" points="199,495.2 238.1,495.2 238.1,319 355.2,319 355.2,173.3 442.3,173.3 	"/>
	<g class="st1">
		<g>
			<path class="st23" d="M55.3,396.8c-0.2-2.5-0.3-4.7-0.6-7c-0.1-0.8-0.3-1.6-0.7-2.3c-1.3-2.7-0.7-5.3,0.2-8
				c0.4-1.2,1.3-1.8,2.7-1.8c8.9,0.2,17.8,0.4,26.7,0.5c2.7,0,5.4-0.1,8.1-0.1c5.4,0.1,10.9,0.1,16.3,0.4c2.5,0.2,4.9,1.1,7.3,1.7
				c1.2,0.3,2.8-0.5,3.7-1.9c0.9-1.5,0.9-3-0.3-4c-3.1-2.6-4.7-6.3-6.5-9.7c-0.9-1.7-1-3.8-1.3-5.7c-0.3-1.4,0.6-2.4,2.2-3.1
				c-1-0.3-1.7-0.4-2.4-0.6c-1.7-0.4-3.4-0.9-5.1-1.3c-5-1.2-8.9-4.2-12.4-7.8c-1.3-1.4-2.1-1.4-3.4,0c-1.5,1.5-2.8,3.2-3.1,5.5
				c-0.2,1.5-0.8,1.6-2.3,1.2c-1.3-0.4-2.7-0.4-4.1-0.7c-1.2-0.2-2.3-0.5-3.5-0.9c-0.4-0.1-0.5-0.9-0.8-1.3c0.4-0.2,0.8-0.5,1.3-0.6
				c1-0.2,2.1-0.2,3.1-0.3c3-0.3,4.8-2.4,6.4-4.7c0.2-0.3,0.3-0.7,0.4-1.3c-2.8,0.1-4.9-1-7-2.5c-1.1-0.8-2.6-1.1-3.9-1.7
				c-1.6-0.7-3.3-1.4-4.9-2.3c-0.8-0.5-1.3-0.4-1.5,0.5c-0.4,2.1-0.7,4.2-0.8,6.4c-0.1,1.1,0.2,2.3-1.3,2.9c1.8,0.4,3.3,1.2,3.9,2.8
				c0.6,1.6,0.9,3.5-0.1,5.4c-1.8-1-3.5-2-5.2-3c-0.1,0-0.2-0.1-0.2-0.2c-0.6-1.6-1-3.3-1.9-4.7c-1.1-1.8-0.4-3.2,0.2-4.8
				c0.8-2.1,1.4-4.2,2.2-6.6c-2,0.3-3.5,0.8-4.6,1.9c-1.4,1.4-2.7,3-4.1,4.4c-0.5,0.6-1.2,1-1.9,1.6c0.5,0.7,1.2,1.6,2,2.7
				c-0.6,1.6-1.3,3.4-1.9,5.1c-0.2,0-0.3,0-0.5,0c-0.7-0.8-1.2-1.7-2-2.3c-1.6-1.4-1.7-3-1.2-4.9c0.2-0.9,0-1.9,0-2.8
				c0-1,0.2-1.8,1.2-2.2c3.3-1.4,5.6-4,8-6.5c1.5-1.5,3.1-2.5,5.4-2.1c0.3,0.1,0.8-0.2,1-0.4c0.9-1,1.9-1.2,3.2-1
				c1.8,0.3,3.6,0.3,5.4,0.4c0.8,0,1.2-0.3,1.3-1.1c0.5-3.1,1.8-5.9,3.5-8.4c0.7-1,1-2.3,1.5-3.4c1.3-3.3,2.5-6.7,4.8-9.6
				c0.8-1,1.4-2.1,2.1-3.2c-2.2-1.4-4.3-1.4-6.5-1c-0.5,0.1-1,0.8-1.5,0.9c-1.2,0.3-2.3,0.7-3.5,0.6c-0.7,0-1.7-0.6-1.2-1.9
				c-0.4,0-0.8,0.1-1.1,0.1c-1.1,0.1-1.8-0.3-1.8-1.5c0-1.3-0.1-2.5,0.1-3.8c0.1-0.5,0.7-1.3,1.2-1.4c3.4-0.8,6.3-2.6,9.1-4.5
				c1.1-0.8,2.2-1.6,3.5-2.1c0.7-0.4,1.7-0.4,2.5-0.4c1.1-0.1,1.7-0.6,1.7-1.8c0-1,0.2-1.9,0.6-3c0.8,1.4,1.7,2.8,2.4,3.9
				c1.8,0.3,3.6,0.5,5.3,0.8c1.1,0.2,2.1,0.4,2.7,1.6c0.3,0.6,1.4,0.8,2.2,1.1c1.2,0.5,2.3,1,2.5,2.7c-0.6-0.1-1.1-0.1-1.6-0.2
				c1.5,2.1,3,4.1,4.4,6.3c0.6,0.9,0.6,2.1,0.9,3.2c-0.1,0.1-0.3,0.1-0.4,0.2c-0.4-0.2-0.9-0.4-1.6-0.7c0.1,1,0.2,1.8,0.3,2.6
				c-0.4,0.1-0.9,0.3-1,0.3c-0.2,1.3-0.4,2.4-0.7,3.6c0.8-0.1,1.7-0.3,2.7-0.5c0.2-1.1,0.4-2.3,0.7-3.4c1.3-4,4.6-6.3,7.9-8.5
				c1.4-0.9,1.4-1.6,0.2-2.7c-0.4-0.3-0.5-1-0.6-1.5c-0.1-0.7,0.1-1.5,0.1-2.2c0-0.1,0-0.3,0.1-0.4c1.3-0.8,0.9-2.3,1.5-3.4
				c0.2-0.4,0.5-0.8,0.8-1.2c0.5-0.6,1.1-1.2,1.8-2c0.7,0.3,1.7,0.7,2.6,1.2c3.3,1.9,3.5,4.6,3.1,7.5c-0.1,0.6-0.2,1.1-0.3,1.7
				c-0.2,1.6-1,2.3-2.8,2.2c3.9,1.7,3.4,5.5,3.9,8.6c0.5,3.8,0.7,7.6,1,11.4c0.1,1.3-0.1,2.6-1.2,3.6c-0.2,0.1-0.2,0.6-0.2,0.8
				c0.7,3.4,1.3,6.8,3,9.9c0.7,1.2,1.4,2,2.8,2.5c2.4,0.7,4.2,2.4,5.5,4.5c1.9,3.2,3.7,6.6,5.6,9.8c0.2,0.3,0.6,0.6,1,0.8
				c2.9,1,4.8,3.1,6.1,5.7c1.2,2.2,2.5,4.4,3.6,6.6c1.9,3.8,2,8.1,3,12.1c0.5,2.1,1.1,4.2,1.7,6.3c0.9,3.1,2.4,5.8,4.9,8
				c2.5,2.3,4.7,4.9,7,7.5c-0.6,0.8-0.6,0.8-4,1c0.7,0.5,1.4,1,2.2,1.6c-0.1,0.1-0.3,0.2-0.5,0.3c0.3,0.2,0.5,0.3,0.8,0.5
				c-0.6,0.2-1.1,0.3-1.7,0.5c0.1,0.4,0.2,0.8,0.4,1.4c-0.7,0.1-1.4,0.1-2.1,0.2c-0.5,0-1.3-0.3-1.2,0.8c0,0.1-0.6,0.4-0.9,0.4
				c-1.3,0-2.6,0-4.1,0c0.3,0.4,0.4,0.6,0.6,0.9c2.4,2.7,5,5.1,8.3,6.8c0.3,0.1,0.6,0.4,0.8,0.7c7.2,10.9,14.2,22,19.3,34.1
				c0.8,2,1.5,4,2.1,6.1c0.3,1,0.2,2,0.3,3.1c-0.7,0-1.2,0-1.7,0c-50.4,0.2-100.8,0.3-151.1,0.5c-1.1,0-1.6-0.3-1.8-1.5
				c-1.2-6.3-2.1-12.5-0.9-18.9c0.4-2,1.2-4.1,2-6c1-2.1,2.7-3.5,4.9-4.4c4.4-1.8,8.6-4.1,12.4-7c2.2-1.7,4.1-3.6,5.4-6.1
				c0.3-0.5,0.8-1,1.1-1.5c2.3-3.1,1.8-6-1.5-8C60.7,398.5,58.3,396.8,55.3,396.8z M133.6,385.1c3.2,0.9,6,1.8,8.9,2.6
				c6,1.7,11.8,3.7,16.4,8c0,0,0.1,0,0.3-0.1c-0.8-2.1-1.7-4.2-2.5-6.2c-2.7-6.7-4.9-13.5-5.6-20.7c-0.2-2-0.7-4-2.1-5.6
				c-0.6-0.7-0.7-1.7-1.1-2.6c-0.5-1.2-1-2.4-1.6-3.6c-0.1,0-0.3,0-0.4,0.1c-1.9,4.1-5.3,6.1-9.6,6.7c0,0.3,0,0.5,0.1,0.6
				c1.1,2.6,2.3,5.1,5,6.6c1.8,1,1.9,2.5,0.6,4c-0.3,0.4-0.7,0.8-1.1,1.2C138.4,379.2,136.1,382.1,133.6,385.1z M122.6,382.2
				c2.1,0.6,3.8,1.1,5.5,1.5c0.4,0.1,0.9-0.1,1.1-0.3c1.5-1.9,3.1-3.7,4.2-5.7c1.7-2.9,0.6-5.3-2.4-6.7c-1.3-0.6-2.6-1.2-3.5-2.2
				s-1.8-1-3-0.7c0.2,3.1,1.2,5.8,3,8.3c1.5,2,0.9,3.5-1.3,4.5C125.2,381.1,124.1,381.6,122.6,382.2z"/>
		</g>
		<g>
			<g>
				<rect x="104.1" y="452.1" class="st23" width="101" height="84.9"/>
				<g>
					<rect x="113.3" y="462.1" class="st23" width="82.4" height="21.7"/>
					<line class="st21" x1="122.5" y1="468.1" x2="122.5" y2="477.2"/>
					<line class="st21" x1="129.6" y1="468.1" x2="129.6" y2="477.2"/>
					<line class="st21" x1="136.7" y1="468.1" x2="136.7" y2="477.2"/>
					<line class="st21" x1="187" y1="468.1" x2="187" y2="477.2"/>
					<line class="st21" x1="178.2" y1="473" x2="143.5" y2="473"/>
				</g>
				<g>
					<rect x="113.3" y="483.6" class="st23" width="82.4" height="21.7"/>
					<line class="st21" x1="122.5" y1="489.6" x2="122.5" y2="498.8"/>
					<line class="st21" x1="129.6" y1="489.6" x2="129.6" y2="498.8"/>
					<line class="st21" x1="136.7" y1="489.6" x2="136.7" y2="498.8"/>
					<line class="st21" x1="187" y1="489.6" x2="187" y2="498.8"/>
					<line class="st21" x1="178.2" y1="494.5" x2="143.5" y2="494.5"/>
				</g>
				<g>
					<rect x="113.3" y="505.4" class="st23" width="82.4" height="21.7"/>
					<line class="st21" x1="122.5" y1="511.4" x2="122.5" y2="520.5"/>
					<line class="st21" x1="129.6" y1="511.4" x2="129.6" y2="520.5"/>
					<line class="st21" x1="136.7" y1="511.4" x2="136.7" y2="520.5"/>
					<line class="st21" x1="187" y1="511.4" x2="187" y2="520.5"/>
					<line class="st21" x1="178.2" y1="516.3" x2="143.5" y2="516.3"/>
				</g>
			</g>
			<g>
				<rect x="66.7" y="429.1" class="st23" width="101" height="107.8"/>
				<g>
					<rect x="76.1" y="462.1" class="st23" width="82" height="21.6"/>
					<line class="st21" x1="85.3" y1="468" x2="85.3" y2="477.1"/>
					<line class="st21" x1="92.3" y1="468" x2="92.3" y2="477.1"/>
					<line class="st21" x1="99.4" y1="468" x2="99.4" y2="477.1"/>
					<line class="st21" x1="149.4" y1="468" x2="149.4" y2="477.1"/>
					<line class="st21" x1="141.2" y1="472.6" x2="105.7" y2="472.6"/>
				</g>
				<g>
					<rect x="76.1" y="440.5" class="st23" width="82" height="21.6"/>
					<line class="st21" x1="85.3" y1="446.4" x2="85.3" y2="455.5"/>
					<line class="st21" x1="92.3" y1="446.4" x2="92.3" y2="455.5"/>
					<line class="st21" x1="99.4" y1="446.4" x2="99.4" y2="455.5"/>
					<line class="st21" x1="149.4" y1="446.4" x2="149.4" y2="455.5"/>
					<line class="st21" x1="141.2" y1="451" x2="105.7" y2="451"/>
				</g>
				<g>
					<rect x="76.1" y="483.7" class="st23" width="82" height="21.6"/>
					<line class="st21" x1="85.3" y1="489.6" x2="85.3" y2="498.7"/>
					<line class="st21" x1="92.3" y1="489.6" x2="92.3" y2="498.7"/>
					<line class="st21" x1="99.4" y1="489.6" x2="99.4" y2="498.7"/>
					<line class="st21" x1="149.4" y1="489.6" x2="149.4" y2="498.7"/>
					<line class="st21" x1="141.2" y1="494.2" x2="105.7" y2="494.2"/>
				</g>
				<rect x="76.1" y="514.1" class="st23" width="82" height="13.6"/>
				<line class="st21" x1="145.6" y1="514.1" x2="145.6" y2="527.7"/>
			</g>
			<g>
				<rect x="35.5" y="410.5" class="st23" width="101" height="126.4"/>
				<g>
					<rect x="45.9" y="421.6" class="st23" width="80.3" height="21.1"/>
					<line class="st21" x1="54.8" y1="427.4" x2="54.8" y2="436.3"/>
					<line class="st21" x1="65.4" y1="427.4" x2="65.4" y2="436.3"/>
					<line class="st21" x1="75.6" y1="432.2" x2="118.8" y2="432.2"/>
				</g>
				<g>
					<rect x="45.9" y="442.8" class="st23" width="80.3" height="21.1"/>
					<line class="st21" x1="54.8" y1="448.6" x2="54.8" y2="457.5"/>
					<line class="st21" x1="65.4" y1="448.6" x2="65.4" y2="457.5"/>
					<line class="st21" x1="75.6" y1="453.3" x2="118.8" y2="453.3"/>
				</g>
				<g>
					<rect x="45.9" y="463.9" class="st23" width="80.3" height="21.1"/>
					<line class="st21" x1="54.8" y1="469.7" x2="54.8" y2="478.6"/>
					<line class="st21" x1="65.4" y1="469.7" x2="65.4" y2="478.6"/>
					<line class="st21" x1="75.6" y1="474.5" x2="118.8" y2="474.5"/>
				</g>
				<g>
					<rect x="45.9" y="485.1" class="st23" width="80.3" height="21.1"/>
					<line class="st21" x1="54.8" y1="490.9" x2="54.8" y2="499.8"/>
					<line class="st21" x1="65.4" y1="490.9" x2="65.4" y2="499.8"/>
					<line class="st21" x1="75.6" y1="495.6" x2="118.8" y2="495.6"/>
				</g>
				<rect x="45.9" y="514.1" class="st21" width="80.3" height="13.6"/>
				<line class="st21" x1="74.1" y1="514.1" x2="74.1" y2="527.7"/>
				<line class="st21" x1="88.4" y1="514.1" x2="88.4" y2="527.7"/>
				<line class="st21" x1="59.8" y1="514.1" x2="59.8" y2="527.7"/>
			</g>
		</g>
	</g>
	<polyline class="st22" points="243.4,234.9 243.4,291 323.3,291 323.3,403 355.2,403 	"/>
	<circle class="st24" cx="307.6" cy="296.5" r="54.9"/>
	<circle class="st25" cx="490.2" cy="273.2" r="8.9"/>
	<circle class="st25" cx="357.5" cy="153.5" r="8.9"/>
	<circle class="st25" cx="283.5" cy="457.6" r="8.9"/>
	<circle class="st25" cx="149.7" cy="271.1" r="8.9"/>
	<g class="st1">
		<g>
			<path class="st23" d="M522,397.9c-0.3,0-0.6,0-0.8-0.2c-0.8-0.1-1.5-0.2-1.7-1.2c0-0.3-0.3-0.5-0.5-0.5c-0.8-0.1-0.8-0.6-0.7-1.3
				c0.1-0.8,0-1-0.8-1.1c-0.3,0-0.6,0-0.5-0.4c0.1-0.5-0.2-0.7-0.7-0.5c-0.4,0.1-0.5-0.2-0.6-0.5c0-0.1,0-0.1,0-0.2
				c0-0.6-0.3-1.1-0.2-1.8c0-0.5-0.4-0.9-0.4-1.4c0-0.5-0.3-0.9-0.3-1.3c-0.2-0.9-0.1-1.8-0.4-2.7c-0.1-0.3-0.2-0.5-0.3-0.7
				c-0.2-0.4,0-0.8-0.2-1.1c0-0.2-0.1-0.4-0.2-0.6c0-0.3-0.1-0.7-0.2-1c0-0.3-0.1-0.6-0.2-0.9c-0.1-0.3-0.2-0.6-0.2-0.9
				c-0.1-1-0.4-2-0.5-3c-0.1-0.5-0.3-1-0.1-1.5c0.6-1.3,0.6-2.7,0.2-4c-0.1-0.4-0.3-0.8-0.2-1.3c0-0.4,0-0.7-0.3-1
				c-0.3-0.4-0.7-0.7-1-1.1c0-0.1-0.1-0.1-0.2-0.1c-0.1-0.1-0.3,0-0.5,0c-0.2,0.1-0.3,0-0.5-0.1c-0.9-0.8-1.6-1.7-2.3-2.7
				c-0.2-0.3-0.4-0.5-0.5-0.8c-0.6-0.8-1.1-1.6-1.3-2.6c-0.1-0.3-0.2-0.5-0.3-0.9c-0.4-1.6-1-3.1-0.4-4.7c0.1-0.4,0.1-0.9-0.3-1.2
				c-0.1-0.1-0.3-0.1-0.4-0.2c-0.1,0-0.3-0.1-0.4-0.1c-0.1,0-0.2,0-0.3,0.1c-0.3,0.1-0.4,0.4-0.5,0.6c-0.2,0.4-0.2,0.8,0,1.1
				c0.3,0.3,0.2,0.7,0.1,1.1c-0.1,1.6-0.2,3.1-1.1,4.5c-0.4,0.5-0.5,1.1-0.9,1.6c-0.2,0.4-0.4,0.7-0.7,1.1c-0.6,0.9-1.4,1.6-2.1,2.4
				c-1.1,1.1-2.3,2.1-3,3.5c-0.1,0.1-0.2,0.2-0.4,0.1c-0.6-0.3-0.8-0.9-1.2-1.3c-0.4-0.5-0.8-1-1-1.5c-0.7-1.3-1.1-2.7-0.5-4.2
				c0-0.2,0-0.4,0-0.5c-0.2-0.4-0.4-0.7-0.9-0.8c-0.1,0-0.2,0-0.3,0c-0.4,0.1-0.7,0.4-0.9,0.8c0,0.2,0,0.3,0,0.5
				c0,0.2,0.1,0.3,0.2,0.5c0.3,0.4,0.1,0.8,0.1,1.2c0,0.5-0.2,0.8-0.4,1.2c-0.1,1.1-1.1,1.8-1.5,2.8c-0.2,0.3-0.4,0.5-0.7,0.7
				c-0.3,0.2-0.4,0.5-0.8,0.6c0,0-0.1,0-0.1-0.1c-0.3-0.6-0.1-1.3-0.2-1.9c-0.3-0.9-0.5-1.8-0.5-2.7c0-0.8,0.1-1.6-0.1-2.4
				c0-0.1-0.1-0.3-0.2-0.4c-0.4-0.4-0.4-0.9-0.3-1.4c0-0.4,0-0.8-0.2-1.3c-0.5-1-0.4-1.9,0.3-2.7c0.4-0.3,1-0.5,0.8-1.2
				c-0.5-0.6-1.3-0.6-2-0.9c-0.3-0.3-0.2-0.7-0.3-1.1c0-0.1-0.1-0.1-0.1-0.2c-0.6-0.6-0.5-1.4-0.7-2.1c-0.4-1-0.7-1.9-1.1-2.8
				c-0.3-0.4-0.2-0.9-0.4-1.3c-0.1-0.2-0.2-0.4-0.3-0.6c0-0.1-0.1-0.3-0.2-0.4c-0.3-0.2-0.1-0.4-0.1-0.6c0-0.7-0.4-1.1-0.6-1.7
				c-0.3-0.2-0.1-0.5-0.1-0.8c0-0.2-0.2-0.4-0.2-0.7c0-0.3-0.2-0.6-0.3-0.9c-0.1-0.2-0.2-0.5-0.2-0.7c0-0.6-0.3-1.1-0.5-1.7
				c-0.1-0.2-0.4-0.3-0.4-0.5c0-0.3-0.1-0.5-0.1-0.8c0.3-0.6-0.1-1.3,0.2-2c0-0.7,0.3-1.4-0.1-2c-0.4-0.7-0.4-1.4-0.2-2.1
				c0.1-0.4,0.2-0.7,0.2-1.1c0-0.3,0.1-0.4,0.3-0.6c0-0.1,0.1-0.1,0.1-0.2c0.2-0.4,0-0.8,0.4-1.1c0.6-0.6,0.7-1.4,0.5-2.3
				c-0.2-0.4-0.2-0.8-0.5-1.1c-0.6-0.5-1-1.2-1.6-1.8c-0.5-0.7-0.8-1.5-0.8-2.4c0-0.3,0-0.5,0.1-0.8c0.1-0.3,0.1-0.6,0-0.9
				c-0.2-0.3-0.3-0.7-0.7-0.8c-0.5,0.1-0.6,0.6-0.8,1c0,0.2,0,0.4,0.1,0.6c0.1,0.4,0,0.7,0,1c0,0.7-0.4,1.3-0.6,1.9
				c-0.4,0.7-1,1.3-1.6,1.8c-0.5,0.7-0.9,1.4-0.9,2.3c0,0.3,0,0.6,0.1,0.9c0.1,0.2,0.3,0.4,0.4,0.6c0.1,0.1,0.2,0.3,0.2,0.5
				c-0.1,0.5,0.3,0.9,0.3,1.5c0,0.1,0,0.1,0.1,0.2c0.2,0.3,0.2,0.6,0.2,1c0,0.3,0.1,0.5,0,0.8c0,0.1,0,0.1,0,0.2
				c0.1,0.2,0.1,0.5-0.1,0.7c-0.2,0.2-0.3,0.5-0.4,0.7c0,0.3,0,0.7,0,1c0,0.1,0,0.2,0,0.3c0,0.1,0,0.2,0.1,0.2
				c0.5,0.5,0.3,1,0.3,1.5c0,0.1,0,0.1,0,0.2c0,0.2,0,0.3-0.1,0.5c-0.1,0.2-0.2,0.5-0.2,0.8c0,0.2,0,0.4,0,0.5
				c-0.2,0.5-0.5,1-0.6,1.6c-0.1,0.3-0.3,0.6-0.3,1c0,0.1,0,0.1,0,0.2c0,0.4,0,0.7-0.2,1c0,0.1-0.1,0.2-0.1,0.3c0,0.3,0,0.5-0.2,0.7
				c-0.4,0.4-0.3,1-0.3,1.5c0,0.3,0,0.5-0.2,0.7c-0.1,0.2-0.2,0.3-0.3,0.5c-0.2,0.4-0.1,1-0.5,1.4c-0.1,0.1-0.1,0.3-0.1,0.5
				c-0.3,0.8-0.9,1.5-0.9,2.5c0,0.5-0.1,0.9-0.3,1.3c0,0.2,0,0.4-0.1,0.6c0,0.2-0.2,0.3-0.2,0.5c0,0.1,0,0.2,0,0.3
				c0,0.2,0,0.2-0.2,0c-0.1,0-0.2,0-0.2,0c-0.3,0.5-0.6,0.9-1.2,1.1c-0.4,0.2-0.7,0.5-0.5,1c0.3,0.3,0.6,0.6,0.7,1
				c0.1,0.1,0.1,0.2,0.2,0.3c0.2,0.3,0.1,0.6,0,1c-0.1,0.7-0.5,1.4-0.6,2.2c0,0.2-0.1,0.4-0.2,0.5c0,0.3-0.2,0.5-0.3,0.7
				c0,0.3-0.2,0.5-0.4,0.7c-0.8,1.4-2,2.3-3,3.4c-0.1,0.1-0.2,0.2-0.3,0.3c-0.3,0.4-0.6,0.8-0.9,1.2c-0.1,0.1-0.2,0.3-0.2,0.4
				c-0.1,0.3-0.2,0.5-0.5,0.5c-0.3,0-0.4-0.3-0.4-0.5c-0.1-0.5-0.8-0.6-0.9-1.2c-0.2-0.2-0.4-0.4-0.6-0.7c-0.4-0.4-0.8-0.9-1.1-1.3
				c-0.9-1.3-1.6-2.7-1.9-4.3c-0.3-0.7-0.2-1.4,0.2-2c0-0.1,0-0.3,0-0.4c-0.4-0.7-0.6-1.5-0.5-2.3c-0.1-1-0.3-2,0.1-2.9
				c0.1-0.1,0.1-0.2,0.1-0.4c0-0.3-0.4-0.4-0.4-0.7c-0.1-0.2-0.4-0.4-0.5-0.2c-0.3,0.3-0.8,0.3-1,0.7c0,0.2,0.1,0.3,0.3,0.4
				c0.3,0.1,0.5,0.4,0.5,0.7c0,0.6,0.1,1.1-0.1,1.7c-0.1,0.3,0,0.6-0.1,0.8c0,0.5,0.2,1-0.1,1.4c-0.5,0.6-0.5,1.2-0.2,1.9
				c0.1,0.2,0,0.5,0,0.8c-0.3,1.6-0.9,3.1-1.8,4.5c-0.1,0.1-0.2,0.2-0.2,0.4c-0.1,0.2-0.3,0.3-0.4,0.5c-0.2,0.2-0.4,0.3-0.5,0.5
				c0,0.5-0.5,0.5-0.7,0.8c-0.1,0.4-0.5,0.6-0.8,0.8c-0.2,0.2-0.1,0.6-0.4,0.8c-0.2,0.2-0.4,0.4-0.5,0.7c0.1,0.5-0.3,1-0.4,1.5
				c0.2,0.6-0.1,1.1-0.1,1.7c0.2,0.3,0.3,0.7,0.5,1.1c0.5,0.9,0.8,1.8,0.8,2.8c0,0.1,0.1,0.2,0.2,0.3c0.4,0.8,0.4,1.6,0.3,2.5
				c0.3,1.1,0.3,2.2,0.1,3.4c0,0.1-0.1,0.1-0.2,0.1c0-0.5-0.3-0.8-0.7-1c-0.6-0.5-0.4-1.3-0.5-2c-0.1-0.3-0.1-0.5-0.1-0.8
				c-0.2-1.9-0.6-3.9-0.8-5.8c-0.2-1.7-0.3-3.5-0.6-5.2c-0.2-1.3-0.2-2.6-0.6-3.8c-0.2-0.2-0.3-0.4-0.6-0.3c-0.4,0.3-0.4,0.7-0.4,1
				c-0.2,0.8-0.3,1.7-0.5,2.5c-0.4,1.3-0.4,2.6-0.5,4c0,0.2-0.1,0.5-0.1,0.7c0,0.1,0,0.2,0,0.3c-0.2,0.9-0.3,1.9-0.5,2.9
				c-0.2,1.9-0.6,3.7-0.8,5.5c-0.1,0.7-0.4,1.2-1,1.5c-0.1,0.1-0.1,0.3-0.1,0.4c0.3,0.7-0.1,1.5-0.1,2.2c0,1.8,0,3.5,0,5.3
				c0,0.6-0.2,1.2-0.8,1.5c-0.2,0.3-0.2,0.6-0.2,0.9c0,0.6,0.1,1.1-0.1,1.7c0.1,1.1,0.3,2.2,0,3.3c0,0.1,0,0.2,0,0.3
				c0,0.4,0,0.8,0,1.2c0,0,0,0,0,0.1c0,0,0,0.1,0,0.1c0,0,0,0,0,0c0,0,0,0,0,0.1c0,0,0-0.1,0-0.1c0-0.1,0-0.1,0-0.2
				c-0.1-0.2,0-0.5-0.2-0.6c-0.1-0.1-0.3-0.2-0.5-0.1c-0.6,0.4-0.4,1-0.6,1.5c0,0.1-0.1,0.2-0.2,0.2c-0.1,0-0.1,0-0.1-0.1
				c-0.1-0.7-0.4-1.3-0.5-2c0-0.3,0.1-0.6-0.2-0.9c-0.2-0.1-0.4,0-0.5,0.1c-0.2,0.3-0.1,0.6-0.2,0.8c-0.3,0.6-0.1,1.3-0.5,1.9
				c-0.2,0.5-0.8,0.8-0.7,1.5c0,0.3,0.5,0.5,0.1,0.9c-0.6,0.2-1.2,0.1-1.8,0.1c-0.2,0.1-0.4,0-0.7,0c-0.1,0-0.2,0-0.3,0
				c-0.2,0-0.5,0-0.7-0.1c-0.1,0-0.3-0.1-0.5-0.1c-0.2,0-0.4-0.1-0.6-0.2c-0.2-0.1-0.5-0.2-0.7-0.3c-0.7-0.2-1.4-0.2-2.1-0.3
				c-0.6,0.1-1.2,0.4-1.7-0.3c-0.1-0.2-0.4-0.1-0.5,0c-0.1,0-0.2,0.1-0.3,0.1c-0.1,0.1-0.3,0.2-0.4,0c0-0.1-0.1-0.1-0.1-0.2
				c-0.2-0.2-0.5-0.3-0.7-0.1c-0.8,0.5-1.6,0.4-2.3-0.1c-0.1,0-0.2,0-0.3-0.1c-0.2-0.3-0.1-0.7,0-1c0.2-0.3,0.1-0.6,0-1
				c-0.1-0.2-0.2-0.3-0.3-0.5c-0.2-0.5-0.2-1,0-1.5c0-0.1,0-0.2,0-0.3c0-0.5-0.1-0.9-0.6-1.1c-0.2-0.1-0.5-0.2-0.5-0.5
				c0.1-1.3-0.7-2.6-0.2-3.9c0-0.2,0-0.5,0-0.7c0-0.1,0-0.2,0-0.3c-0.2-0.7-0.2-1.4,0.1-2c0.1-0.5,0.1-1,0-1.4
				c-0.1-0.2-0.3-0.5-0.4-0.7c-0.5-0.5-0.6-1.2-0.9-1.8c-0.1-0.3-0.2-0.6-0.4-0.9c-0.3-0.5-0.3-1.1-0.9-1.4c-0.1,0-0.3,0-0.4,0
				c-0.8,0.4-0.7,1.4-1.2,2c-0.3,0.8-0.5,1.7-1.4,2c-0.2,0.1-0.3,0.3-0.2,0.5c0.2,1.1,0.3,2.2,0,3.3c-0.2,0.3,0.1,0.7,0,1
				c-0.2,1.3-0.4,2.6-0.7,3.8c-0.1,0.4,0,0.8-0.4,1.1c-0.1,0.2-0.1,0.4-0.1,0.6c0,0.1,0,0.1-0.1,0.2c-0.1,0.2-0.3,0.3-0.5,0.2
				c-0.2-0.1-0.3-0.2-0.4-0.4c-0.2-0.3-0.6-0.4-1-0.5c-0.9-0.4-2.1-0.3-2.7-1.4c-0.1,0-0.1,0-0.2,0c-0.3,0.1-0.4,0.3-0.4,0.5
				c0,0.1,0,0.2,0,0.3c0,0.1-0.1,0.1-0.2,0.1c-0.2,0-0.3-0.1-0.4-0.2c-0.5-0.4-1.2-0.3-1.8-0.5c-0.5,0-0.9-0.2-1.3-0.3
				c-0.4-0.1-0.7-0.2-1-0.4c-1-0.4-2.1-0.9-3.2-1c-0.4,0-0.8-0.1-1.2-0.3c-0.7-0.3-1.5-0.3-2.2-0.6c-0.4-0.2-0.7-0.5-0.6-1
				c0.2-0.8,0.1-1.6,0.1-2.5c0-2.1,0-4.2,0-6.4c0-0.7-0.1-1.3,0.1-2c0-0.1,0-0.2,0.1-0.3c0.1-0.4,0.6-0.8,0.3-1.3
				c-0.1-0.1-0.1-0.3-0.1-0.5c0-1.1-0.2-2.1,0.2-3.2c0-0.1,0-0.2,0-0.3c-0.4-0.8,0-1.7-0.2-2.6c0-0.3,0-0.6,0-0.9
				c0-0.3-0.2-0.5-0.3-0.7c-0.1-0.3-0.1-0.6-0.1-0.8c-0.1-0.2-0.2-0.5-0.3-0.7c-0.1-1.1-0.5-2.1-0.4-3.2c0-0.3-0.1-0.5-0.4-0.5
				c-0.3,0-0.5,0.2-0.5,0.5c0,0.4,0,0.9-0.1,1.3c-0.1,0.3,0,0.5-0.1,0.8c0,0.2-0.1,0.4-0.3,0.5c-0.3,0-0.3-0.2-0.4-0.4
				c-0.2-0.3-0.4-0.4-0.7-0.5c-0.3-0.1-0.4-0.4-0.4-0.7c0-0.6-0.2-1.2-0.2-1.9c-0.2-0.5,0.3-1.1-0.4-1.4c-0.2,0-0.3,0.1-0.4,0.2
				c0,0,0,0.1,0,0.1c0,0.1,0,0.1,0,0.2c0,0,0,0.1,0,0.1c0,0.1,0,0.2,0,0.4c0,0.2,0,0.3,0,0.5c0-0.2,0-0.3,0-0.5c0-0.1,0-0.2,0-0.4
				c0-0.1,0-0.2,0-0.2c0,0,0,0,0,0c0,0,0-0.1,0-0.1c0.2-0.6,0.1-1.2,0.1-1.8c0-0.2,0-0.4,0-0.6c0.1-0.7-0.2-1.3-0.2-2
				c0-0.2-0.1-0.4-0.2-0.6c-0.1-0.2-0.2-0.6-0.5-0.6c-0.4,0-0.4,0.3-0.5,0.6c0,0.3,0.2,0.6,0,0.8c-0.1,0.2-0.2,0.3-0.3,0.5
				c-0.1,0.2-0.1,0.4-0.2,0.6c0,0.4,0,0.8-0.1,1.1c0-0.4,0-0.7,0.1-1.1c0-0.2,0.1-0.4,0.2-0.6c0.1-0.3,0.2-0.6,0.3-0.9
				c-0.2-0.5,0.2-0.9,0.3-1.4c-0.2-1.2-0.5-2.5-0.2-3.7c0.1-0.4-0.1-0.7-0.2-1c0-0.1-0.1-0.2-0.1-0.4c-0.1-0.5,0.2-1,0.3-1.4
				c0-0.1,0-0.3,0-0.4c0-0.5,0-1,0-1.5c0-0.1,0-0.3,0-0.4c-0.1-0.4-0.4-0.7-0.1-1.1c0.1-0.4,0.1-0.7-0.1-1c-0.2-0.7-0.1-1.4-0.1-2.1
				c-0.1-0.6,0.5-0.9,0.6-1.4c-0.2-0.7-0.4-1.4-0.4-2c0-0.2,0-0.4,0-0.5c-0.1-0.3-0.2-0.7-0.1-1c0-0.4,0-0.8-0.4-1
				c-0.1-0.1-0.3-0.1-0.5-0.2c-0.2,0-0.2-0.3-0.4-0.3c-0.1-0.1-0.3-0.1-0.4-0.1c-0.2,0.1-0.2,0.4-0.4,0.6c-0.1,0.1-0.2,0.1-0.3,0
				c-0.1-0.6-0.1-1.2-0.3-1.8c-0.3-0.7-0.4-1.4-0.5-2.2c0-0.2-0.1-0.3-0.2-0.5c-0.2-2.1-0.6-4.1-1.2-6.1c0-0.3-0.2-0.6-0.2-1
				c-0.1-0.7-0.2-1.4-0.4-2c-0.1-0.5-0.1-1-0.3-1.5c-0.2-0.4-0.2-0.9-0.3-1.3c-0.1-0.4-0.1-0.8-0.2-1.2c-0.1-0.4-0.2-0.8-0.1-1.2
				c-0.2-0.9-0.1-1.8-0.2-2.7c0.5-0.3,0.7,0.4,1.1,0.3c0.2-0.1,0.3-0.2,0.3-0.4c0-0.3-0.1-0.6-0.2-0.9c-0.1-0.4-0.2-0.7,0.2-1
				c0.1-0.1,0.3-0.2,0.4-0.3c0.7-0.6,0.7-0.6,0.1-1.2c-0.4,0-0.8-0.1-1.1-0.3c-0.3-0.2-0.3-0.5-0.4-0.8c-0.1-0.3-0.2-0.6-0.6-0.6
				s-0.5,0.3-0.6,0.6c-0.1,0.4-0.1,0.9-0.8,0.9c-0.2,0-0.3,0.1-0.5,0.1c-0.4,0.2-1.3-0.3-0.9,0.8c0,0.1,0.1,0.1,0.2,0.2
				c1.1,0.7,1.1,0.7,0.6,1.9c0,0.3,0,0.6,0.3,0.8c0.1,0,0.2,0,0.3,0c0.7-0.3,0.7,0,0.6,0.6c-0.1,0.7,0,1.4-0.2,2
				c0,0.2-0.2,0.4-0.2,0.6c-0.1,0.7,0,1.3-0.2,2c-0.1,0.7-0.2,1.4-0.5,2c0,0.2,0,0.4,0,0.5c0,0.4-0.1,0.7-0.2,1
				c-0.1,0.3-0.1,0.6-0.1,0.9c0,0.4-0.1,0.7-0.3,1c0,0.1,0,0.2,0,0.3c-0.2,1-0.4,2.1-0.7,3.1c0,0.1,0,0.2,0,0.3
				c0,0.3-0.1,0.5-0.1,0.8c-0.3,1.7-0.7,3.4-0.8,5.1c-0.1,0.3-0.1,0.6-0.5,0.6c-0.4,0-0.4-0.4-0.4-0.6c0-0.1,0-0.2,0-0.3
				c-0.1-0.1-0.2-0.3-0.3-0.4c-0.1,0-0.2,0-0.3,0c-0.3,0.2-0.4,0.4-0.4,0.8c0,0.2,0.1,0.5-0.2,0.7c-0.3,0.1-0.5,0.1-0.7,0.4
				c-0.2,0.2-0.1,0.5-0.2,0.8c-0.2,0.9,0,2-0.8,2.8c-0.2,0.4,0.1,0.6,0.3,0.8c0.6,0.5,0.3,1.3,0.5,1.9c0,0.1,0,0.2,0,0.4
				c0,0.3,0,0.5-0.1,0.7c0,0.4-0.3,0.6-0.3,1c0.1,1,0.1,2.1-0.1,3.1c0,0.5,0.3,0.9,0.4,1.4c0.1,0.2,0.1,0.4,0,0.6
				c-0.1,0.4-0.1,0.8-0.2,1.1c0,0.1,0,0.2,0,0.4c-0.1,0.7,0,1.4-0.1,2.1c0,0.2,0,0.4-0.1,0.5c0,0.1,0,0.1-0.1,0.1c0,0-0.1,0-0.2,0
				c-0.2,0-0.3,0-0.5,0.1c-0.1,0.1-0.1,0.1-0.1,0.2c0,0.3-0.1,0.6-0.2,0.9c0,0.7-0.1,1.3-0.3,1.9c0.1,0.9-0.4,1.8-0.1,2.7
				c0.4,1.7-0.3,3.3-0.5,4.9c0,0.2-0.1,0.3-0.3,0.4c-0.3,0.1-0.5,0.4-0.8,0.2c-0.2-0.1-0.3-0.3-0.4-0.4c-0.1-0.2-0.4-0.3-0.4-0.5
				c-0.4-1-0.5-2.1-0.6-3.2c0-0.3-0.1-0.6-0.5-0.5c-0.3,0-0.4,0.3-0.4,0.6c-0.2,1.2-0.2,2.5-0.6,3.7c-0.3,0.5,0,1.2-0.5,1.6
				c-0.1,0.1-0.1,0.1-0.1,0.2c-0.2,0.5,0,1-0.3,1.5c-0.1,0.2-0.1,0.4-0.1,0.6c0,0.1,0.1,0.2,0.1,0.3c0,0.1,0.2,0.2,0.1,0.4
				c0,0-0.1,0-0.1-0.1c-0.1-0.1-0.3-0.2-0.4-0.2c-0.2,0-0.3,0.2-0.4,0.3c-0.1,0.2-0.1,0.5-0.1,0.7c0,0.3,0,0.6-0.4,0.7
				c-0.3,0.4-0.6,0.3-1,0.3c-0.2,0-0.3,0.1-0.4,0.3c-0.1,0.1-0.1,0.2-0.1,0.4c0,0.1-0.1,0.2-0.1,0.4c0.1,0.7-0.1,1.1-0.9,1.2
				c-0.4,0.1-0.7,0.2-1,0.3c-0.3,0.2-0.6,0.3-0.9,0.4c-0.8,0.5-1.7,0.8-2.5,1.4c-1.1,0.8-2.1,1.6-3.1,2.5c-0.2,0.4-0.4,0.7-0.8,1
				c-0.4,0.3-0.5,0.1-0.5-0.3c0-0.5-0.2-0.9-0.4-1.3c-0.4-0.8-0.6-1.7-0.7-2.6c-0.1-0.3-0.3-0.5-0.3-0.9c-0.2-0.8-0.2-1.6-0.9-2.2
				c-0.1,0-0.2,0-0.3,0c-0.7,0.4-0.4,1.3-0.9,1.9c-0.1,0.5-0.2,0.9-0.5,1.3c-0.1,0.4-0.2,0.9-0.4,1.2c0,0.1-0.1,0.1-0.1,0.2
				c-0.4,1.1-0.7,2.2-1.3,3.2c0,0.1-0.1,0.1-0.1,0.2c-0.1,0.3-0.1,0.6-0.4,0.8c-0.2-0.2,0-0.5-0.2-0.7c0-0.1-0.1-0.1-0.2-0.2
				c-0.3,0-0.4,0.1-0.5,0.3c-0.4,0.5-0.2,1.4-0.9,1.8c-0.2,0.2-0.3,0.5-0.3,0.8s0,0.6-0.2,0.9c0,0.2,0,0.4,0,0.6
				c0.1,0.5,0.1,1,0,1.5c0,14,0,27.9,0,41.9c0,0.6,10.4,37.3,11,37.3c55,0,110.4-6.9,165.4-6.8c1.2-6.7-3-36.6-2.6-39.6
				C525.8,413.1,520.6,405.6,522,397.9z"/>
		</g>
		<g>
			<g>
				<rect x="422.3" y="458.1" class="st23" width="105.1" height="88.3"/>
				<g>
					<rect x="432" y="468.6" class="st23" width="85.8" height="22.6"/>
					<line class="st21" x1="441.5" y1="474.8" x2="441.5" y2="484.3"/>
					<line class="st21" x1="448.9" y1="474.8" x2="448.9" y2="484.3"/>
					<line class="st21" x1="456.3" y1="474.8" x2="456.3" y2="484.3"/>
					<line class="st21" x1="508.6" y1="474.8" x2="508.6" y2="484.3"/>
					<line class="st21" x1="499.5" y1="479.9" x2="463.4" y2="479.9"/>
				</g>
				<g>
					<rect x="432" y="491" class="st23" width="85.8" height="22.6"/>
					<line class="st21" x1="441.5" y1="497.2" x2="441.5" y2="506.8"/>
					<line class="st21" x1="448.9" y1="497.2" x2="448.9" y2="506.8"/>
					<line class="st21" x1="456.3" y1="497.2" x2="456.3" y2="506.8"/>
					<line class="st21" x1="508.6" y1="497.2" x2="508.6" y2="506.8"/>
					<line class="st21" x1="499.5" y1="502.3" x2="463.4" y2="502.3"/>
				</g>
				<g>
					<rect x="432" y="513.6" class="st23" width="85.8" height="22.6"/>
					<line class="st21" x1="441.5" y1="519.8" x2="441.5" y2="529.4"/>
					<line class="st21" x1="448.9" y1="519.8" x2="448.9" y2="529.4"/>
					<line class="st21" x1="456.3" y1="519.8" x2="456.3" y2="529.4"/>
					<line class="st21" x1="508.6" y1="519.8" x2="508.6" y2="529.4"/>
					<line class="st21" x1="499.5" y1="524.9" x2="463.4" y2="524.9"/>
				</g>
			</g>
			<g>
				<rect x="383.4" y="434.2" class="st23" width="105.1" height="112.2"/>
				<g>
					<rect x="393.3" y="468.6" class="st23" width="85.3" height="22.5"/>
					<line class="st21" x1="402.8" y1="474.7" x2="402.8" y2="484.2"/>
					<line class="st21" x1="410.1" y1="474.7" x2="410.1" y2="484.2"/>
					<line class="st21" x1="417.5" y1="474.7" x2="417.5" y2="484.2"/>
					<line class="st21" x1="469.5" y1="474.7" x2="469.5" y2="484.2"/>
					<line class="st21" x1="460.9" y1="479.5" x2="424" y2="479.5"/>
				</g>
				<g>
					<rect x="393.3" y="446.1" class="st23" width="85.3" height="22.5"/>
					<line class="st21" x1="402.8" y1="452.2" x2="402.8" y2="461.7"/>
					<line class="st21" x1="410.1" y1="452.2" x2="410.1" y2="461.7"/>
					<line class="st21" x1="417.5" y1="452.2" x2="417.5" y2="461.7"/>
					<line class="st21" x1="469.5" y1="452.2" x2="469.5" y2="461.7"/>
					<line class="st21" x1="460.9" y1="457" x2="424" y2="457"/>
				</g>
				<g>
					<rect x="393.3" y="491" class="st23" width="85.3" height="22.5"/>
					<line class="st21" x1="402.8" y1="497.2" x2="402.8" y2="506.7"/>
					<line class="st21" x1="410.1" y1="497.2" x2="410.1" y2="506.7"/>
					<line class="st21" x1="417.5" y1="497.2" x2="417.5" y2="506.7"/>
					<line class="st21" x1="469.5" y1="497.2" x2="469.5" y2="506.7"/>
					<line class="st21" x1="460.9" y1="502" x2="424" y2="502"/>
				</g>
				<rect x="393.3" y="522.7" class="st23" width="85.3" height="14.2"/>
				<line class="st21" x1="465.6" y1="522.7" x2="465.6" y2="536.9"/>
			</g>
			<g>
				<rect x="351" y="414.9" class="st23" width="105.1" height="131.6"/>
				<g>
					<rect x="361.8" y="426.4" class="st23" width="83.5" height="22"/>
					<line class="st21" x1="371.1" y1="432.5" x2="371.1" y2="441.7"/>
					<line class="st21" x1="382.1" y1="432.5" x2="382.1" y2="441.7"/>
					<line class="st21" x1="392.7" y1="437.4" x2="437.7" y2="437.4"/>
				</g>
				<g>
					<rect x="361.8" y="448.4" class="st23" width="83.5" height="22"/>
					<line class="st21" x1="371.1" y1="454.5" x2="371.1" y2="463.8"/>
					<line class="st21" x1="382.1" y1="454.5" x2="382.1" y2="463.8"/>
					<line class="st21" x1="392.7" y1="459.4" x2="437.7" y2="459.4"/>
				</g>
				<g>
					<rect x="361.8" y="470.5" class="st23" width="83.5" height="22"/>
					<line class="st21" x1="371.1" y1="476.5" x2="371.1" y2="485.8"/>
					<line class="st21" x1="382.1" y1="476.5" x2="382.1" y2="485.8"/>
					<line class="st21" x1="392.7" y1="481.5" x2="437.7" y2="481.5"/>
				</g>
				<g>
					<rect x="361.8" y="492.5" class="st23" width="83.5" height="22"/>
					<line class="st21" x1="371.1" y1="498.5" x2="371.1" y2="507.8"/>
					<line class="st21" x1="382.1" y1="498.5" x2="382.1" y2="507.8"/>
					<line class="st21" x1="392.7" y1="503.5" x2="437.7" y2="503.5"/>
				</g>
				<rect x="361.8" y="522.7" class="st21" width="83.5" height="14.2"/>
				<line class="st21" x1="391.1" y1="522.7" x2="391.1" y2="536.9"/>
				<line class="st21" x1="406" y1="522.7" x2="406" y2="536.9"/>
				<line class="st21" x1="376.2" y1="522.7" x2="376.2" y2="536.9"/>
			</g>
		</g>
	</g>
	<g class="st1">
		<g>
			<path class="st23" d="M518.1,116.9c-0.2,0-0.4,0-0.5-0.2c-0.5-0.1-1-0.1-1.1-0.8c0-0.2-0.2-0.3-0.4-0.3c-0.5-0.1-0.5-0.4-0.5-0.8
				c0.1-0.6,0-0.7-0.5-0.7c-0.2,0-0.4,0-0.3-0.3c0.1-0.3-0.1-0.4-0.5-0.3c-0.3,0.1-0.3-0.1-0.4-0.3c0,0,0-0.1,0-0.1
				c0-0.4-0.2-0.8-0.1-1.2c0-0.3-0.3-0.6-0.3-0.9c0-0.3-0.2-0.6-0.2-0.9c-0.1-0.6-0.1-1.2-0.3-1.8c-0.1-0.2-0.1-0.3-0.2-0.5
				c-0.2-0.2,0-0.5-0.1-0.8c0-0.1-0.1-0.3-0.1-0.4c0-0.2-0.1-0.4-0.1-0.7c0-0.2-0.1-0.4-0.1-0.6c-0.1-0.2-0.1-0.4-0.1-0.6
				c-0.1-0.7-0.3-1.3-0.3-2c0-0.3-0.2-0.7-0.1-1c0.4-0.9,0.4-1.8,0.1-2.7c-0.1-0.3-0.2-0.5-0.1-0.8c0-0.2,0-0.4-0.2-0.6
				c-0.2-0.3-0.5-0.5-0.6-0.8c0,0-0.1-0.1-0.1-0.1c-0.1,0-0.2,0-0.3,0c-0.1,0-0.2,0-0.3-0.1c-0.6-0.5-1.1-1.1-1.5-1.8
				c-0.1-0.2-0.3-0.3-0.4-0.5c-0.4-0.5-0.8-1.1-0.9-1.8c0-0.2-0.2-0.4-0.2-0.6c-0.3-1-0.7-2.1-0.3-3.2c0.1-0.3,0-0.6-0.2-0.8
				c-0.1-0.1-0.2-0.1-0.3-0.1c-0.1,0-0.2,0-0.3,0c-0.1,0-0.1,0-0.2,0c-0.2,0.1-0.3,0.3-0.3,0.4c-0.1,0.3-0.1,0.5,0,0.8
				c0.2,0.2,0.1,0.5,0.1,0.8c-0.1,1-0.2,2.1-0.7,3c-0.3,0.3-0.3,0.7-0.6,1.1c-0.1,0.3-0.3,0.5-0.5,0.7c-0.4,0.6-0.9,1.1-1.4,1.6
				c-0.7,0.7-1.5,1.4-2,2.3c-0.1,0.1-0.1,0.1-0.2,0.1c-0.4-0.2-0.6-0.6-0.8-0.9c-0.3-0.3-0.5-0.7-0.7-1c-0.4-0.9-0.8-1.8-0.3-2.8
				c0-0.1,0-0.2,0-0.3c-0.1-0.3-0.3-0.5-0.6-0.6c-0.1,0-0.1,0-0.2,0c-0.3,0.1-0.5,0.3-0.6,0.5c0,0.1,0,0.2,0,0.3
				c0,0.1,0.1,0.2,0.1,0.3c0.2,0.3,0.1,0.5,0.1,0.8c0,0.3-0.1,0.6-0.2,0.8c-0.1,0.7-0.7,1.2-1,1.8c-0.1,0.2-0.3,0.4-0.5,0.5
				c-0.2,0.1-0.3,0.3-0.5,0.4c0,0-0.1,0-0.1-0.1c-0.2-0.4-0.1-0.9-0.2-1.3c-0.2-0.6-0.4-1.2-0.4-1.8c0-0.5,0.1-1.1-0.1-1.6
				c0-0.1,0-0.2-0.1-0.3c-0.2-0.3-0.2-0.6-0.2-0.9c0-0.3,0-0.6-0.1-0.8c-0.3-0.6-0.3-1.3,0.2-1.8c0.2-0.2,0.6-0.3,0.6-0.8
				c-0.3-0.4-0.9-0.4-1.3-0.6c-0.2-0.2-0.1-0.5-0.2-0.7c0-0.1,0-0.1-0.1-0.1c-0.4-0.4-0.3-0.9-0.5-1.4c-0.2-0.6-0.5-1.3-0.8-1.9
				c-0.2-0.3-0.1-0.6-0.3-0.9c-0.1-0.1-0.1-0.2-0.2-0.4c0-0.1-0.1-0.2-0.1-0.3c-0.2-0.1-0.1-0.3,0-0.4c0-0.4-0.3-0.8-0.4-1.2
				c-0.2-0.2-0.1-0.4-0.1-0.6c0-0.2-0.1-0.3-0.1-0.4c0-0.2-0.1-0.4-0.2-0.6c-0.1-0.1-0.1-0.3-0.1-0.5c0-0.4-0.2-0.7-0.3-1.1
				c-0.1-0.1-0.3-0.2-0.3-0.3c0-0.2,0-0.3,0-0.5c0.2-0.4-0.1-0.9,0.1-1.3c0-0.4,0.2-0.9-0.1-1.3c-0.3-0.5-0.3-0.9-0.1-1.4
				c0.1-0.2,0.1-0.5,0.1-0.7c0-0.2,0.1-0.3,0.2-0.4c0-0.1,0-0.1,0-0.2c0.1-0.2,0-0.5,0.2-0.7c0.4-0.4,0.5-1,0.3-1.5
				c-0.1-0.3-0.1-0.6-0.4-0.7c-0.4-0.3-0.7-0.8-1-1.2c-0.3-0.5-0.5-1-0.5-1.6c0-0.2,0-0.3,0-0.5c0.1-0.2,0.1-0.4,0-0.6
				c-0.1-0.2-0.2-0.5-0.5-0.5c-0.4,0.1-0.4,0.4-0.5,0.7c0,0.1,0,0.3,0.1,0.4c0.1,0.2,0,0.5,0,0.7c0,0.4-0.2,0.8-0.4,1.2
				c-0.3,0.5-0.6,0.8-1.1,1.2c-0.4,0.4-0.6,0.9-0.6,1.5c0,0.2,0,0.4,0.1,0.6c0.1,0.1,0.2,0.2,0.3,0.4c0.1,0.1,0.1,0.2,0.1,0.3
				c0,0.3,0.2,0.6,0.2,1c0,0.1,0,0.1,0.1,0.1c0.1,0.2,0.1,0.4,0.1,0.6c0,0.2,0,0.3,0,0.5c0,0.1,0,0.1,0,0.2c0,0.2,0.1,0.3-0.1,0.4
				c-0.1,0.2-0.2,0.3-0.3,0.5c0,0.2,0,0.4,0,0.7c0,0.1,0,0.1,0,0.2s0,0.1,0,0.2c0.3,0.3,0.2,0.7,0.2,1c0,0.1,0,0.1,0,0.2
				c0,0.1,0,0.2-0.1,0.3c-0.1,0.2-0.1,0.3-0.1,0.5c0,0.1,0,0.3,0,0.4c-0.1,0.3-0.3,0.7-0.4,1.1c-0.1,0.2-0.2,0.4-0.2,0.7
				c0,0.1,0,0.1,0,0.2c0,0.3,0,0.5-0.2,0.7c0,0.1-0.1,0.1-0.1,0.2c0,0.2,0,0.3-0.1,0.5c-0.2,0.3-0.2,0.6-0.2,1c0,0.2,0,0.3-0.1,0.5
				c-0.1,0.1-0.2,0.2-0.2,0.3c-0.2,0.3-0.1,0.7-0.4,0.9c0,0.1-0.1,0.2-0.1,0.3c-0.2,0.6-0.6,1-0.6,1.7c0,0.3-0.1,0.6-0.2,0.9
				c0,0.1,0,0.3-0.1,0.4c0,0.1-0.1,0.2-0.2,0.4c0,0.1,0,0.1,0,0.2c0,0.1,0,0.1-0.1,0c0,0-0.1,0-0.1,0c-0.2,0.3-0.4,0.6-0.8,0.7
				c-0.3,0.1-0.5,0.3-0.3,0.7c0.2,0.2,0.4,0.4,0.5,0.7c0,0.1,0.1,0.1,0.1,0.2c0.1,0.2,0,0.4,0,0.7c-0.1,0.5-0.3,0.9-0.4,1.4
				c0,0.1-0.1,0.2-0.1,0.4c0,0.2-0.1,0.3-0.2,0.5c0,0.2-0.1,0.3-0.2,0.5c-0.5,0.9-1.3,1.6-2,2.3c-0.1,0.1-0.1,0.2-0.2,0.2
				c-0.2,0.3-0.4,0.5-0.6,0.8c-0.1,0.1-0.1,0.2-0.2,0.3c0,0.2-0.1,0.3-0.3,0.3c-0.2,0-0.2-0.2-0.3-0.4c-0.1-0.4-0.5-0.4-0.6-0.8
				c-0.1-0.2-0.3-0.3-0.4-0.5c-0.3-0.3-0.5-0.6-0.8-0.9c-0.6-0.9-1.1-1.8-1.3-2.8c-0.2-0.5-0.1-0.9,0.1-1.3c0-0.1,0-0.2,0-0.3
				c-0.3-0.5-0.4-1-0.4-1.5c-0.1-0.7-0.2-1.3,0.1-1.9c0-0.1,0.1-0.2,0.1-0.2c0-0.2-0.3-0.3-0.3-0.5c-0.1-0.2-0.2-0.3-0.4-0.1
				c-0.2,0.2-0.5,0.2-0.6,0.5c0,0.1,0.1,0.2,0.2,0.2c0.2,0.1,0.3,0.3,0.3,0.5c0,0.4,0.1,0.8-0.1,1.1c0,0.2,0,0.4,0,0.6
				c0,0.3,0.1,0.7-0.1,0.9c-0.3,0.4-0.4,0.8-0.2,1.2c0.1,0.2,0,0.3,0,0.5c-0.2,1.1-0.6,2.1-1.2,3c-0.1,0.1-0.1,0.2-0.1,0.3
				c-0.1,0.1-0.2,0.2-0.3,0.3c-0.1,0.1-0.3,0.2-0.4,0.4c0,0.3-0.4,0.3-0.5,0.5c-0.1,0.3-0.3,0.4-0.5,0.6c-0.1,0.2-0.1,0.4-0.2,0.5
				c-0.1,0.1-0.2,0.3-0.3,0.4c0.1,0.4-0.2,0.7-0.3,1c0.1,0.4,0,0.8-0.1,1.1c0.1,0.2,0.2,0.5,0.3,0.7c0.3,0.6,0.5,1.2,0.5,1.8
				c0,0.1,0.1,0.1,0.1,0.2c0.3,0.5,0.3,1.1,0.2,1.7c0.2,0.7,0.2,1.5,0,2.2c0,0.1-0.1,0.1-0.1,0c0-0.3-0.2-0.5-0.5-0.7
				c-0.4-0.4-0.3-0.9-0.4-1.3c-0.1-0.2-0.1-0.4-0.1-0.6c-0.1-1.3-0.4-2.6-0.5-3.9c-0.1-1.2-0.2-2.3-0.4-3.4
				c-0.1-0.8-0.1-1.7-0.4-2.5c-0.1-0.1-0.2-0.3-0.4-0.2c-0.3,0.2-0.3,0.4-0.3,0.7c-0.1,0.6-0.2,1.1-0.3,1.7
				c-0.3,0.9-0.2,1.8-0.4,2.6c0,0.2-0.1,0.3-0.1,0.4c0,0.1,0,0.1,0,0.2c-0.1,0.6-0.2,1.3-0.3,1.9c-0.1,1.2-0.4,2.4-0.5,3.7
				c0,0.4-0.2,0.8-0.6,1c0,0.1-0.1,0.2-0.1,0.3c0.2,0.5,0,1,0,1.5c0,1.2,0,2.3,0,3.5c0,0.4-0.1,0.8-0.5,1c-0.1,0.2-0.1,0.4-0.1,0.6
				c0,0.4,0,0.8,0,1.1c0,0.7,0.2,1.5,0,2.2c0,0.1,0,0.1,0,0.2c0,0.3,0,0.5,0,0.8c0,0,0,0,0,0c0,0,0,0.1,0,0.1v0c0,0,0,0,0,0.1
				c0,0,0,0,0-0.1c0,0,0-0.1,0-0.1c0-0.1,0-0.3-0.1-0.4c-0.1-0.1-0.2-0.1-0.3-0.1c-0.4,0.2-0.3,0.6-0.4,1c0,0.1,0,0.1-0.1,0.1
				c0,0-0.1,0-0.1-0.1c-0.1-0.4-0.3-0.9-0.3-1.3c0-0.2,0-0.4-0.1-0.6c-0.1-0.1-0.3,0-0.4,0.1c-0.1,0.2-0.1,0.4-0.2,0.5
				c-0.2,0.4-0.1,0.9-0.3,1.2c-0.1,0.3-0.5,0.6-0.5,1c0,0.2,0.3,0.3,0.1,0.6c-0.4,0.2-0.8,0.1-1.2,0.1c-0.1,0-0.3,0-0.4,0
				c-0.1,0-0.1,0-0.2,0c-0.1,0-0.3,0-0.5,0c-0.1,0-0.2-0.1-0.3-0.1c-0.1,0-0.3-0.1-0.4-0.1c-0.1-0.1-0.3-0.1-0.5-0.2
				c-0.5-0.1-0.9-0.1-1.4-0.2c-0.4,0.1-0.8,0.3-1.1-0.2c-0.1-0.1-0.3-0.1-0.4,0c-0.1,0-0.1,0.1-0.2,0.1c-0.1,0-0.2,0.2-0.3,0
				c0,0,0-0.1-0.1-0.1c-0.1-0.1-0.3-0.2-0.5-0.1c-0.5,0.4-1,0.2-1.5-0.1c-0.1,0-0.1,0-0.2-0.1c-0.1-0.2-0.1-0.4,0-0.6
				c0.1-0.2,0.1-0.4,0-0.6c-0.1-0.1-0.1-0.2-0.2-0.3c-0.1-0.3-0.1-0.7,0-1c0-0.1,0-0.1,0-0.2c0-0.3-0.1-0.6-0.4-0.8
				c-0.1-0.1-0.3-0.1-0.3-0.3c0.1-0.9-0.5-1.7-0.1-2.6c0-0.2,0-0.3,0-0.4c0-0.1,0-0.1,0-0.2c-0.1-0.4-0.1-0.9,0-1.3
				c0.1-0.3,0.1-0.6,0-0.9c-0.1-0.2-0.2-0.3-0.3-0.5c-0.3-0.3-0.4-0.8-0.6-1.2c-0.1-0.2-0.1-0.4-0.2-0.6c-0.2-0.3-0.2-0.7-0.6-0.9
				c-0.1,0-0.2,0-0.3,0c-0.5,0.3-0.5,0.9-0.8,1.3c-0.2,0.5-0.3,1.1-0.9,1.3c-0.1,0.1-0.2,0.2-0.2,0.3c0.1,0.7,0.2,1.5,0,2.2
				c-0.1,0.2,0.1,0.4,0,0.7c-0.1,0.9-0.3,1.7-0.5,2.6c-0.1,0.3,0,0.5-0.2,0.7c-0.1,0.1-0.1,0.3-0.1,0.4c0,0.1,0,0.1,0,0.1
				c-0.1,0.1-0.2,0.2-0.3,0.1c-0.1-0.1-0.2-0.2-0.3-0.2c-0.1-0.2-0.4-0.3-0.6-0.3c-0.6-0.2-1.4-0.2-1.8-0.9c0,0-0.1,0-0.1,0
				c-0.2,0.1-0.2,0.2-0.2,0.3c0,0.1,0,0.1,0,0.2c0,0.1-0.1,0.1-0.1,0.1c-0.1,0-0.2-0.1-0.3-0.2c-0.4-0.3-0.8-0.2-1.2-0.3
				c-0.3,0-0.6-0.1-0.9-0.2c-0.3-0.1-0.5-0.1-0.7-0.3c-0.7-0.3-1.4-0.6-2.1-0.7c-0.3,0-0.5-0.1-0.8-0.2c-0.5-0.2-1-0.2-1.5-0.4
				c-0.3-0.2-0.5-0.3-0.4-0.7c0.1-0.5,0-1.1,0.1-1.6c0-1.4,0-2.8,0-4.2c0-0.4,0-0.9,0.1-1.3c0-0.1,0-0.1,0-0.2
				c0-0.3,0.4-0.5,0.2-0.8c0-0.1-0.1-0.2-0.1-0.3c0-0.7-0.1-1.4,0.1-2.1c0-0.1,0-0.1,0-0.2c-0.3-0.6,0-1.2-0.2-1.7
				c0-0.2,0-0.4,0-0.6c0-0.2-0.1-0.3-0.2-0.5c-0.1-0.2,0-0.4-0.1-0.6c-0.1-0.2-0.1-0.3-0.2-0.5c-0.1-0.7-0.3-1.4-0.3-2.1
				c0-0.2-0.1-0.3-0.3-0.4c-0.2,0-0.3,0.1-0.3,0.3c0,0.3,0,0.6-0.1,0.8c0,0.2,0,0.3-0.1,0.5c0,0.1,0,0.3-0.2,0.3
				c-0.2,0-0.2-0.1-0.3-0.2c-0.1-0.2-0.3-0.3-0.5-0.3c-0.2-0.1-0.3-0.3-0.3-0.4c0-0.4-0.2-0.8-0.1-1.2c-0.1-0.3,0.2-0.7-0.3-0.9
				c-0.1,0-0.2,0.1-0.2,0.2c0,0,0,0.1,0,0.1c0,0,0,0.1,0,0.1c0,0,0,0,0,0.1c0,0.1,0,0.2,0,0.2c0,0.1,0,0.2,0,0.3c0-0.1,0-0.2,0-0.3
				c0-0.1,0-0.2,0-0.2c0-0.1,0-0.1,0-0.2c0,0,0,0,0,0c0,0,0-0.1,0-0.1c0.1-0.4,0.1-0.8,0.1-1.2c0-0.1,0-0.3,0-0.4
				c0-0.4-0.1-0.9-0.1-1.3c0-0.2-0.1-0.3-0.1-0.4c-0.1-0.2-0.1-0.4-0.4-0.4c-0.3,0-0.3,0.2-0.3,0.4c0,0.2,0.1,0.4,0,0.6
				c-0.1,0.1-0.1,0.2-0.2,0.3c0,0.1-0.1,0.3-0.1,0.4c0,0.3,0,0.5,0,0.7c0-0.2,0-0.5,0-0.7c0-0.1,0-0.3,0.1-0.4
				c0.1-0.2,0.1-0.4,0.2-0.6c-0.1-0.3,0.1-0.6,0.2-0.9c-0.1-0.8-0.3-1.6-0.1-2.5c0.1-0.3-0.1-0.4-0.1-0.7c0-0.1,0-0.2-0.1-0.2
				c-0.1-0.3,0.1-0.6,0.2-0.9c0-0.1,0-0.2,0-0.3c0-0.3,0-0.7,0-1c0-0.1,0-0.2,0-0.3c-0.1-0.2-0.3-0.5-0.1-0.7c0.1-0.2,0-0.4,0-0.7
				c-0.1-0.5,0-0.9-0.1-1.4c0-0.4,0.3-0.6,0.4-0.9c-0.1-0.4-0.2-0.9-0.3-1.4c0-0.1,0-0.2,0-0.4c-0.1-0.2-0.1-0.4-0.1-0.7
				c0-0.3,0-0.5-0.2-0.7c-0.1-0.1-0.2-0.1-0.3-0.1c-0.1,0-0.1-0.2-0.3-0.2c-0.1-0.1-0.2-0.1-0.3,0c-0.1,0.1-0.1,0.3-0.2,0.4
				c-0.1,0.1-0.1,0.1-0.2,0c-0.1-0.4,0-0.8-0.2-1.2c-0.2-0.5-0.3-0.9-0.3-1.4c0-0.1-0.1-0.2-0.1-0.3c-0.1-1.4-0.4-2.7-0.8-4.1
				c0-0.2-0.1-0.4-0.1-0.6c0-0.4-0.1-0.9-0.2-1.3c-0.1-0.3,0-0.7-0.2-1c-0.1-0.3-0.2-0.6-0.2-0.9c-0.1-0.3-0.1-0.5-0.1-0.8
				c-0.1-0.3-0.1-0.5-0.1-0.8c-0.1-0.6-0.1-1.2-0.1-1.8c0.3-0.2,0.5,0.3,0.7,0.2c0.1,0,0.2-0.1,0.2-0.3c0-0.2-0.1-0.4-0.1-0.6
				c-0.1-0.2-0.1-0.5,0.1-0.7c0.1-0.1,0.2-0.1,0.3-0.2c0.5-0.4,0.5-0.4,0.1-0.8c-0.3,0-0.5-0.1-0.8-0.2c-0.2-0.1-0.2-0.3-0.3-0.5
				s-0.1-0.4-0.4-0.4c-0.2,0-0.3,0.2-0.4,0.4c-0.1,0.3-0.1,0.6-0.5,0.6c-0.1,0-0.2,0-0.3,0.1c-0.3,0.1-0.9-0.2-0.6,0.5
				c0,0,0.1,0.1,0.1,0.1c0.7,0.5,0.7,0.5,0.4,1.3c0,0.2,0,0.4,0.2,0.5c0.1,0,0.1,0,0.2,0c0.5-0.2,0.5,0,0.4,0.4c0,0.5,0,0.9-0.1,1.4
				c0,0.1-0.1,0.3-0.1,0.4c-0.1,0.4,0,0.9-0.2,1.3c-0.1,0.5-0.1,0.9-0.4,1.4c0,0.1,0,0.2,0,0.3c0,0.2,0,0.4-0.1,0.7
				c-0.1,0.2-0.1,0.4-0.1,0.6c0,0.3-0.1,0.5-0.2,0.7c0,0.1,0,0.1,0,0.2c-0.1,0.7-0.3,1.4-0.5,2.1c0,0.1,0,0.1,0,0.2
				c0,0.2-0.1,0.3-0.1,0.5c-0.2,1.1-0.5,2.3-0.5,3.4c-0.1,0.2-0.1,0.4-0.3,0.4c-0.3,0-0.3-0.2-0.3-0.4c0-0.1,0-0.2,0-0.2
				c0-0.1-0.1-0.2-0.2-0.2c-0.1,0-0.1,0-0.2,0c-0.2,0.1-0.3,0.3-0.3,0.5c0,0.2,0.1,0.3-0.1,0.4c-0.2,0.1-0.4,0.1-0.5,0.2
				c-0.1,0.2-0.1,0.4-0.1,0.5c-0.1,0.6,0,1.3-0.5,1.8c-0.1,0.2,0.1,0.4,0.2,0.5c0.4,0.3,0.2,0.8,0.3,1.2c0,0.1,0,0.2,0,0.2
				c0,0.2,0,0.3,0,0.5c0,0.3-0.2,0.4-0.2,0.7c0,0.7,0,1.4-0.1,2.1c0,0.3,0.2,0.6,0.3,0.9c0,0.1,0,0.3,0,0.4c-0.1,0.2,0,0.5-0.1,0.7
				c0,0.1,0,0.2,0,0.2c0,0.5,0,0.9,0,1.4c0,0.1,0,0.2-0.1,0.3c0,0.1,0,0.1-0.1,0.1c0,0-0.1,0-0.1,0c-0.1,0-0.2,0-0.3,0.1
				c0,0.1-0.1,0.1-0.1,0.2c0,0.2-0.1,0.4-0.1,0.6c0,0.4,0,0.9-0.2,1.3c0.1,0.6-0.2,1.2-0.1,1.8c0.3,1.1-0.2,2.2-0.3,3.3
				c0,0.1-0.1,0.2-0.2,0.3c-0.2,0-0.3,0.3-0.5,0.2c-0.1-0.1-0.2-0.2-0.3-0.3c-0.1-0.1-0.3-0.2-0.3-0.3c-0.3-0.7-0.3-1.4-0.4-2.1
				c0-0.2-0.1-0.4-0.3-0.4c-0.2,0-0.3,0.2-0.3,0.4c-0.1,0.8-0.1,1.7-0.4,2.4c-0.2,0.3,0,0.8-0.3,1.1c0,0-0.1,0.1-0.1,0.1
				c-0.1,0.3,0,0.7-0.2,1c-0.1,0.1-0.1,0.3-0.1,0.4c0,0.1,0,0.2,0.1,0.2c0,0.1,0.1,0.1,0.1,0.2c0,0-0.1,0-0.1-0.1
				c-0.1-0.1-0.2-0.1-0.3-0.1c-0.1,0-0.2,0.1-0.2,0.2c-0.1,0.1,0,0.3-0.1,0.4c0,0.2,0,0.4-0.2,0.5c-0.2,0.3-0.4,0.2-0.7,0.2
				c-0.1,0-0.2,0.1-0.3,0.2c0,0.1-0.1,0.2-0.1,0.2s-0.1,0.2-0.1,0.2c0.1,0.5-0.1,0.7-0.6,0.8c-0.2,0.1-0.5,0.1-0.7,0.2
				c-0.2,0.1-0.4,0.2-0.6,0.3c-0.5,0.3-1.1,0.6-1.6,0.9c-0.7,0.5-1.4,1.1-2.1,1.7c-0.2,0.2-0.3,0.5-0.5,0.7
				c-0.3,0.2-0.3,0.1-0.3-0.2c0-0.3-0.1-0.6-0.2-0.9c-0.3-0.6-0.4-1.1-0.5-1.7c-0.1-0.2-0.2-0.4-0.2-0.6c-0.1-0.5-0.1-1.1-0.6-1.5
				c-0.1,0-0.1,0-0.2,0c-0.5,0.3-0.3,0.9-0.6,1.3c0,0.3-0.1,0.6-0.3,0.8c-0.1,0.3-0.1,0.6-0.3,0.8c0,0.1,0,0.1-0.1,0.2
				c-0.3,0.7-0.5,1.5-0.9,2.1c0,0.1,0,0.1,0,0.2c-0.1,0.2,0,0.4-0.3,0.5c-0.1-0.2,0-0.3-0.1-0.5c0-0.1-0.1-0.1-0.1-0.1
				c-0.2,0-0.3,0.1-0.4,0.2c-0.3,0.4-0.2,0.9-0.6,1.2c-0.2,0.1-0.2,0.3-0.2,0.5c0,0.2,0,0.4-0.2,0.6c0,0.1,0,0.3,0,0.4
				c0.1,0.3,0.1,0.7,0,1c0,9.3,0,18.6,0,27.9c0,0.4,6.9,24.8,7.3,24.8c36.6,0,73.4-4.6,110-4.6c0.8-4.5-2-24.3-1.7-26.3
				C520.7,127,517.2,122.1,518.1,116.9z"/>
		</g>
		<g>
			<g>
				<rect x="451.8" y="157" class="st23" width="69.9" height="58.8"/>
				<g>
					<rect x="458.2" y="163.9" class="st23" width="57.1" height="15.1"/>
					<line class="st21" x1="464.6" y1="168.1" x2="464.6" y2="174.4"/>
					<line class="st21" x1="469.5" y1="168.1" x2="469.5" y2="174.4"/>
					<line class="st21" x1="474.4" y1="168.1" x2="474.4" y2="174.4"/>
					<line class="st21" x1="509.2" y1="168.1" x2="509.2" y2="174.4"/>
					<line class="st21" x1="503.1" y1="171.5" x2="479.1" y2="171.5"/>
				</g>
				<g>
					<rect x="458.2" y="178.9" class="st23" width="57.1" height="15.1"/>
					<line class="st21" x1="464.6" y1="183" x2="464.6" y2="189.3"/>
					<line class="st21" x1="469.5" y1="183" x2="469.5" y2="189.3"/>
					<line class="st21" x1="474.4" y1="183" x2="474.4" y2="189.3"/>
					<line class="st21" x1="509.2" y1="183" x2="509.2" y2="189.3"/>
					<line class="st21" x1="503.1" y1="186.4" x2="479.1" y2="186.4"/>
				</g>
				<g>
					<rect x="458.2" y="193.9" class="st23" width="57.1" height="15.1"/>
					<line class="st21" x1="464.6" y1="198" x2="464.6" y2="204.4"/>
					<line class="st21" x1="469.5" y1="198" x2="469.5" y2="204.4"/>
					<line class="st21" x1="474.4" y1="198" x2="474.4" y2="204.4"/>
					<line class="st21" x1="509.2" y1="198" x2="509.2" y2="204.4"/>
					<line class="st21" x1="503.1" y1="201.4" x2="479.1" y2="201.4"/>
				</g>
			</g>
			<g>
				<rect x="425.9" y="141.1" class="st23" width="69.9" height="74.6"/>
				<g>
					<rect x="432.5" y="163.9" class="st23" width="56.8" height="15"/>
					<line class="st21" x1="438.8" y1="168" x2="438.8" y2="174.3"/>
					<line class="st21" x1="443.7" y1="168" x2="443.7" y2="174.3"/>
					<line class="st21" x1="448.6" y1="168" x2="448.6" y2="174.3"/>
					<line class="st21" x1="483.2" y1="168" x2="483.2" y2="174.3"/>
					<line class="st21" x1="477.5" y1="171.2" x2="452.9" y2="171.2"/>
				</g>
				<g>
					<rect x="432.5" y="149" class="st23" width="56.8" height="15"/>
					<line class="st21" x1="438.8" y1="153.1" x2="438.8" y2="159.4"/>
					<line class="st21" x1="443.7" y1="153.1" x2="443.7" y2="159.4"/>
					<line class="st21" x1="448.6" y1="153.1" x2="448.6" y2="159.4"/>
					<line class="st21" x1="483.2" y1="153.1" x2="483.2" y2="159.4"/>
					<line class="st21" x1="477.5" y1="156.2" x2="452.9" y2="156.2"/>
				</g>
				<g>
					<rect x="432.5" y="178.9" class="st23" width="56.8" height="15"/>
					<line class="st21" x1="438.8" y1="183" x2="438.8" y2="189.3"/>
					<line class="st21" x1="443.7" y1="183" x2="443.7" y2="189.3"/>
					<line class="st21" x1="448.6" y1="183" x2="448.6" y2="189.3"/>
					<line class="st21" x1="483.2" y1="183" x2="483.2" y2="189.3"/>
					<line class="st21" x1="477.5" y1="186.1" x2="452.9" y2="186.1"/>
				</g>
				<rect x="432.5" y="199.9" class="st23" width="56.8" height="9.4"/>
				<line class="st21" x1="480.6" y1="199.9" x2="480.6" y2="209.4"/>
			</g>
			<g>
				<rect x="404.4" y="128.3" class="st23" width="69.9" height="87.5"/>
				<g>
					<rect x="411.5" y="135.9" class="st23" width="55.6" height="14.6"/>
					<line class="st21" x1="417.7" y1="139.9" x2="417.7" y2="146.1"/>
					<line class="st21" x1="425.1" y1="139.9" x2="425.1" y2="146.1"/>
					<line class="st21" x1="432.1" y1="143.2" x2="462" y2="143.2"/>
				</g>
				<g>
					<rect x="411.5" y="150.6" class="st23" width="55.6" height="14.6"/>
					<line class="st21" x1="417.7" y1="154.6" x2="417.7" y2="160.7"/>
					<line class="st21" x1="425.1" y1="154.6" x2="425.1" y2="160.7"/>
					<line class="st21" x1="432.1" y1="157.9" x2="462" y2="157.9"/>
				</g>
				<g>
					<rect x="411.5" y="165.2" class="st23" width="55.6" height="14.6"/>
					<line class="st21" x1="417.7" y1="169.2" x2="417.7" y2="175.4"/>
					<line class="st21" x1="425.1" y1="169.2" x2="425.1" y2="175.4"/>
					<line class="st21" x1="432.1" y1="172.5" x2="462" y2="172.5"/>
				</g>
				<g>
					<rect x="411.5" y="179.8" class="st23" width="55.6" height="14.6"/>
					<line class="st21" x1="417.7" y1="183.9" x2="417.7" y2="190"/>
					<line class="st21" x1="425.1" y1="183.9" x2="425.1" y2="190"/>
					<line class="st21" x1="432.1" y1="187.2" x2="462" y2="187.2"/>
				</g>
				<rect x="411.5" y="199.9" class="st21" width="55.6" height="9.4"/>
				<line class="st21" x1="431.1" y1="199.9" x2="431.1" y2="209.4"/>
				<line class="st21" x1="441" y1="199.9" x2="441" y2="209.4"/>
				<line class="st21" x1="421.1" y1="199.9" x2="421.1" y2="209.4"/>
			</g>
		</g>
	</g>
	<g class="st1">
		<g>
			<path class="st23" d="M161.1,116.8c-0.2-2.1-0.3-4-0.5-5.9c-0.1-0.7-0.3-1.4-0.6-2c-1.1-2.3-0.6-4.5,0.2-6.8
				c0.4-1,1.1-1.5,2.3-1.5c7.6,0.2,15.1,0.3,22.7,0.4c2.3,0,4.6-0.1,6.9-0.1c4.6,0.1,9.3,0.1,13.9,0.4c2.1,0.1,4.2,0.9,6.2,1.4
				c1.1,0.3,2.4-0.4,3.1-1.6c0.8-1.2,0.8-2.5-0.2-3.4c-2.6-2.2-4-5.3-5.5-8.2c-0.8-1.4-0.9-3.2-1.1-4.9c-0.2-1.2,0.5-2,1.9-2.6
				c-0.9-0.2-1.5-0.4-2.1-0.5c-1.4-0.4-2.9-0.8-4.3-1.1c-4.3-1-7.6-3.5-10.5-6.6c-1.1-1.2-1.8-1.2-2.9,0c-1.3,1.3-2.4,2.7-2.6,4.7
				c-0.1,1.3-0.7,1.4-1.9,1.1c-1.1-0.3-2.3-0.4-3.5-0.6c-1-0.2-2-0.4-2.9-0.8c-0.3-0.1-0.4-0.7-0.7-1.1c0.4-0.2,0.7-0.4,1.1-0.5
				c0.9-0.2,1.7-0.2,2.6-0.3c2.6-0.3,4.1-2,5.4-4c0.2-0.3,0.2-0.6,0.4-1.1c-2.3,0.1-4.2-0.8-5.9-2.1c-0.9-0.7-2.2-0.9-3.3-1.4
				c-1.4-0.6-2.8-1.2-4.1-1.9c-0.7-0.4-1.1-0.3-1.3,0.4c-0.3,1.8-0.6,3.6-0.7,5.4c-0.1,0.9,0.1,1.9-1.1,2.5c1.5,0.3,2.8,1,3.3,2.4
				c0.5,1.4,0.7,3-0.1,4.6c-1.5-0.9-2.9-1.7-4.4-2.5c-0.1,0-0.1-0.1-0.2-0.2c-0.5-1.3-0.8-2.8-1.6-4c-1-1.5-0.3-2.7,0.2-4.1
				c0.7-1.8,1.2-3.6,1.9-5.6c-1.7,0.2-3,0.7-3.9,1.6c-1.2,1.2-2.3,2.5-3.5,3.8c-0.5,0.5-1.1,0.9-1.6,1.3c0.4,0.6,1,1.4,1.7,2.3
				c-0.5,1.4-1.1,2.9-1.6,4.4c-0.1,0-0.3,0-0.4,0c-0.6-0.7-1-1.4-1.7-1.9c-1.4-1.2-1.4-2.6-1-4.2c0.2-0.8,0-1.6,0-2.4
				c0-0.8,0.2-1.5,1-1.9c2.8-1.2,4.8-3.4,6.8-5.5c1.3-1.3,2.6-2.2,4.6-1.8c0.2,0,0.6-0.2,0.8-0.4c0.7-0.8,1.6-1,2.7-0.8
				c1.5,0.2,3,0.3,4.6,0.3c0.7,0,1-0.3,1.1-1c0.4-2.6,1.5-5,3-7.2c0.6-0.8,0.9-1.9,1.3-2.9c1.1-2.8,2.2-5.7,4.1-8.2
				c0.7-0.8,1.2-1.8,1.8-2.7c-1.9-1.2-3.7-1.2-5.6-0.8c-0.5,0.1-0.8,0.6-1.3,0.8c-1,0.3-2,0.6-3,0.5c-0.6,0-1.5-0.5-1-1.6
				c-0.4,0-0.7,0.1-1,0.1c-0.9,0.1-1.5-0.3-1.5-1.3c0-1.1-0.1-2.2,0.1-3.2c0.1-0.5,0.6-1.1,1-1.2c2.9-0.7,5.3-2.2,7.8-3.8
				c1-0.6,1.9-1.3,2.9-1.8c0.6-0.3,1.4-0.3,2.1-0.4c1-0.1,1.4-0.5,1.5-1.5c0-0.8,0.2-1.6,0.5-2.6c0.7,1.2,1.4,2.4,2,3.3
				c1.6,0.2,3,0.4,4.5,0.6c1,0.1,1.8,0.4,2.3,1.4c0.3,0.5,1.2,0.6,1.9,0.9c1,0.4,2,0.9,2.1,2.3c-0.5-0.1-0.9-0.1-1.3-0.2
				c1.3,1.8,2.6,3.5,3.7,5.4c0.5,0.8,0.5,1.8,0.8,2.7c-0.1,0-0.2,0.1-0.3,0.1c-0.4-0.2-0.8-0.3-1.3-0.6c0.1,0.8,0.2,1.5,0.2,2.2
				c-0.4,0.1-0.7,0.2-0.9,0.3c-0.2,1.1-0.4,2.1-0.6,3.1c0.7-0.1,1.5-0.3,2.3-0.4c0.2-1,0.3-2,0.6-2.9c1.1-3.4,3.9-5.4,6.7-7.3
				c1.2-0.8,1.2-1.4,0.2-2.3c-0.3-0.3-0.4-0.8-0.5-1.3c-0.1-0.6,0.1-1.3,0.1-1.9c0-0.1,0-0.3,0-0.3c1.1-0.6,0.8-2,1.3-2.9
				c0.2-0.4,0.4-0.7,0.7-1c0.5-0.5,0.9-1,1.6-1.7c0.6,0.3,1.5,0.6,2.2,1c2.8,1.6,2.9,3.9,2.6,6.4c-0.1,0.5-0.2,1-0.3,1.4
				c-0.2,1.4-0.9,2-2.4,1.8c3.3,1.5,2.9,4.6,3.3,7.3c0.4,3.2,0.6,6.5,0.8,9.7c0.1,1.1-0.1,2.2-1,3c-0.1,0.1-0.2,0.5-0.2,0.7
				c0.6,2.9,1.1,5.8,2.5,8.4c0.6,1,1.2,1.7,2.4,2.1c2.1,0.6,3.6,2.1,4.7,3.9c1.6,2.7,3.1,5.6,4.7,8.4c0.2,0.3,0.5,0.5,0.8,0.7
				c2.5,0.8,4.1,2.6,5.2,4.9c1,1.9,2.1,3.7,3.1,5.6c1.6,3.2,1.7,6.9,2.5,10.3c0.4,1.8,0.9,3.6,1.4,5.3c0.8,2.6,2,4.9,4.2,6.8
				c2.1,1.9,4,4.2,6,6.3c-0.5,0.6-0.5,0.6-3.4,0.8c0.6,0.4,1.2,0.8,1.9,1.3c-0.1,0.1-0.3,0.2-0.5,0.2c0.2,0.1,0.4,0.3,0.7,0.5
				c-0.5,0.2-0.9,0.3-1.4,0.4c0.1,0.3,0.2,0.7,0.3,1.2c-0.6,0.1-1.2,0.1-1.8,0.2c-0.4,0-1.1-0.3-1,0.7c0,0.1-0.5,0.3-0.7,0.3
				c-1.1,0-2.2,0-3.5,0c0.2,0.3,0.4,0.6,0.6,0.8c2.1,2.3,4.3,4.4,7.1,5.8c0.3,0.1,0.5,0.4,0.7,0.6c6.1,9.3,12,18.7,16.4,29
				c0.7,1.7,1.3,3.4,1.8,5.2c0.2,0.8,0.2,1.7,0.3,2.7c-0.6,0-1,0-1.5,0c-42.8,0.1-85.6,0.3-128.5,0.5c-1,0-1.4-0.2-1.6-1.2
				c-1-5.3-1.8-10.6-0.8-16c0.3-1.7,1-3.4,1.7-5.1c0.8-1.8,2.3-3,4.2-3.8c3.8-1.6,7.3-3.5,10.5-6c1.9-1.4,3.5-3.1,4.6-5.2
				c0.2-0.5,0.6-0.8,1-1.3c2-2.6,1.5-5.1-1.3-6.8C165.6,118.2,163.6,116.8,161.1,116.8z M227.6,106.9c2.7,0.8,5.1,1.5,7.5,2.2
				c5.1,1.4,10,3.1,13.9,6.8c0,0,0.1,0,0.2-0.1c-0.7-1.8-1.4-3.5-2.1-5.3c-2.3-5.7-4.2-11.5-4.8-17.6c-0.2-1.7-0.6-3.3-1.8-4.7
				c-0.5-0.6-0.6-1.4-0.9-2.2c-0.4-1-0.9-2-1.3-3c-0.1,0-0.2,0-0.4,0.1c-1.6,3.5-4.5,5.2-8.2,5.7c0,0.2,0,0.4,0.1,0.5
				c0.9,2.2,2,4.3,4.2,5.7c1.5,0.9,1.6,2.1,0.5,3.4c-0.3,0.3-0.6,0.7-0.9,1C231.7,101.8,229.8,104.3,227.6,106.9z M218.3,104.4
				c1.8,0.5,3.2,0.9,4.7,1.3c0.3,0.1,0.8-0.1,1-0.3c1.2-1.6,2.6-3.1,3.6-4.8c1.4-2.5,0.5-4.5-2.1-5.7c-1.1-0.5-2.2-1.1-3-1.9
				c-0.8-0.8-1.6-0.9-2.6-0.6c0.2,2.6,1,4.9,2.6,7c1.3,1.7,0.8,3-1.1,3.8C220.4,103.5,219.5,103.9,218.3,104.4z"/>
		</g>
		<g>
			<g>
				<rect x="202.5" y="163.8" class="st23" width="85.8" height="72.1"/>
				<g>
					<rect x="210.4" y="172.3" class="st23" width="70.1" height="18.5"/>
					<line class="st21" x1="218.2" y1="177.4" x2="218.2" y2="185.2"/>
					<line class="st21" x1="224.2" y1="177.4" x2="224.2" y2="185.2"/>
					<line class="st21" x1="230.3" y1="177.4" x2="230.3" y2="185.2"/>
					<line class="st21" x1="273" y1="177.4" x2="273" y2="185.2"/>
					<line class="st21" x1="265.5" y1="181.5" x2="236.1" y2="181.5"/>
				</g>
				<g>
					<rect x="210.4" y="190.6" class="st23" width="70.1" height="18.5"/>
					<line class="st21" x1="218.2" y1="195.7" x2="218.2" y2="203.5"/>
					<line class="st21" x1="224.2" y1="195.7" x2="224.2" y2="203.5"/>
					<line class="st21" x1="230.3" y1="195.7" x2="230.3" y2="203.5"/>
					<line class="st21" x1="273" y1="195.7" x2="273" y2="203.5"/>
					<line class="st21" x1="265.5" y1="199.9" x2="236.1" y2="199.9"/>
				</g>
				<g>
					<rect x="210.4" y="209.1" class="st23" width="70.1" height="18.5"/>
					<line class="st21" x1="218.2" y1="214.2" x2="218.2" y2="222"/>
					<line class="st21" x1="224.2" y1="214.2" x2="224.2" y2="222"/>
					<line class="st21" x1="230.3" y1="214.2" x2="230.3" y2="222"/>
					<line class="st21" x1="273" y1="214.2" x2="273" y2="222"/>
					<line class="st21" x1="265.5" y1="218.3" x2="236.1" y2="218.3"/>
				</g>
			</g>
			<g>
				<rect x="170.7" y="144.3" class="st23" width="85.8" height="91.6"/>
				<g>
					<rect x="178.8" y="172.3" class="st23" width="69.7" height="18.4"/>
					<line class="st21" x1="186.6" y1="177.4" x2="186.6" y2="185.1"/>
					<line class="st21" x1="192.6" y1="177.4" x2="192.6" y2="185.1"/>
					<line class="st21" x1="198.6" y1="177.4" x2="198.6" y2="185.1"/>
					<line class="st21" x1="241" y1="177.4" x2="241" y2="185.1"/>
					<line class="st21" x1="234" y1="181.2" x2="203.9" y2="181.2"/>
				</g>
				<g>
					<rect x="178.8" y="153.9" class="st23" width="69.7" height="18.4"/>
					<line class="st21" x1="186.6" y1="159" x2="186.6" y2="166.7"/>
					<line class="st21" x1="192.6" y1="159" x2="192.6" y2="166.7"/>
					<line class="st21" x1="198.6" y1="159" x2="198.6" y2="166.7"/>
					<line class="st21" x1="241" y1="159" x2="241" y2="166.7"/>
					<line class="st21" x1="234" y1="162.9" x2="203.9" y2="162.9"/>
				</g>
				<g>
					<rect x="178.8" y="190.7" class="st23" width="69.7" height="18.4"/>
					<line class="st21" x1="186.6" y1="195.7" x2="186.6" y2="203.4"/>
					<line class="st21" x1="192.6" y1="195.7" x2="192.6" y2="203.4"/>
					<line class="st21" x1="198.6" y1="195.7" x2="198.6" y2="203.4"/>
					<line class="st21" x1="241" y1="195.7" x2="241" y2="203.4"/>
					<line class="st21" x1="234" y1="199.6" x2="203.9" y2="199.6"/>
				</g>
				<rect x="178.8" y="216.5" class="st23" width="69.7" height="11.6"/>
				<line class="st21" x1="237.8" y1="216.5" x2="237.8" y2="228.1"/>
			</g>
			<g>
				<rect x="144.3" y="128.5" class="st23" width="85.8" height="107.4"/>
				<g>
					<rect x="153.1" y="137.9" class="st23" width="68.2" height="18"/>
					<line class="st21" x1="160.7" y1="142.8" x2="160.7" y2="150.4"/>
					<line class="st21" x1="169.7" y1="142.8" x2="169.7" y2="150.4"/>
					<line class="st21" x1="178.3" y1="146.9" x2="215.1" y2="146.9"/>
				</g>
				<g>
					<rect x="153.1" y="155.9" class="st23" width="68.2" height="18"/>
					<line class="st21" x1="160.7" y1="160.8" x2="160.7" y2="168.4"/>
					<line class="st21" x1="169.7" y1="160.8" x2="169.7" y2="168.4"/>
					<line class="st21" x1="178.3" y1="164.9" x2="215.1" y2="164.9"/>
				</g>
				<g>
					<rect x="153.1" y="173.9" class="st23" width="68.2" height="18"/>
					<line class="st21" x1="160.7" y1="178.8" x2="160.7" y2="186.4"/>
					<line class="st21" x1="169.7" y1="178.8" x2="169.7" y2="186.4"/>
					<line class="st21" x1="178.3" y1="182.8" x2="215.1" y2="182.8"/>
				</g>
				<g>
					<rect x="153.1" y="191.8" class="st23" width="68.2" height="18"/>
					<line class="st21" x1="160.7" y1="196.8" x2="160.7" y2="204.3"/>
					<line class="st21" x1="169.7" y1="196.8" x2="169.7" y2="204.3"/>
					<line class="st21" x1="178.3" y1="200.8" x2="215.1" y2="200.8"/>
				</g>
				<rect x="153.1" y="216.5" class="st21" width="68.2" height="11.6"/>
				<line class="st21" x1="177.1" y1="216.5" x2="177.1" y2="228.1"/>
				<line class="st21" x1="189.2" y1="216.5" x2="189.2" y2="228.1"/>
				<line class="st21" x1="164.9" y1="216.5" x2="164.9" y2="228.1"/>
			</g>
		</g>
	</g>
	<g class="st1">
		<path class="st3" d="M323.3,291c0.2,0.9,0.3,1.8,0.3,2.7c0,8.1-6.6,14.7-14.7,14.7c-8.1,0-14.7-6.6-14.7-14.7
			c0-8.1,6.6-14.7,14.7-14.7c4.1,0,7.8,1.6,10.4,4.3l3-3c-3.4-3.4-8.2-5.6-13.4-5.6c-10.5,0-19,8.5-19,19s8.5,19,19,19s19-8.5,19-19
			c0-0.9-0.1-1.8-0.2-2.7L323.3,291z"/>
		<g>
			<path class="st3" d="M309.4,291v4.5h24c0.1-1.5,0.1-3,0.2-4.5H309.4z"/>
		</g>
		<ellipse class="st3" cx="308.8" cy="293.7" rx="4.5" ry="4.5"/>
		<path class="st3" d="M337.3,294.8l4.1-1.1l-0.2-2.7l-3,0l-5-0.1h-0.1l0,0.1h0c0,0.2,0,0.4,0.1,0.6c1.2,13.5-8.8,25.3-22.3,26.5
			s-25.3-8.8-26.5-22.3s8.8-25.3,22.3-26.5c7.4-0.6,14.4,2.1,19.3,7l5.8-5.8l-4.3-3.6l-3.3,2.8c-1.2-0.8-2.4-1.4-3.6-2l0.6-4.3
			l-5.3-1.7l-2,3.9c-1.3-0.2-2.6-0.4-3.9-0.4l-1.1-4.3l-5.6,0.5l-0.4,4.4c-1.4,0.3-2.8,0.7-4.1,1.2l-2.7-3.6l-5,2.6l1.4,4.3
			c-1.1,0.8-2.1,1.6-3.1,2.5l-3.9-2.3l-3.6,4.3l3,3.5c-0.7,1.1-1.4,2.3-1.9,3.5l-4.5-0.6l-1.7,5.3l4.1,2.1c-0.2,1.3-0.4,2.6-0.4,4
			l-4.5,1.2l0.5,5.6l4.6,0.4c0.3,1.3,0.6,2.6,1.1,3.8l-3.7,2.8l2.6,5l4.4-1.4c0.8,1.1,1.6,2.1,2.5,3.1l-2.3,3.9l4.3,3.6l3.5-3
			c1.1,0.7,2.3,1.4,3.5,2l-0.6,4.5l5.3,1.7l2-4c1.4,0.3,2.8,0.4,4.2,0.5l1.1,4.3l5.6-0.5l0.4-4.4c1.3-0.3,2.6-0.6,3.8-1.1l2.6,3.5
			l5-2.6l-1.4-4.1c1.1-0.8,2.2-1.6,3.3-2.6l3.7,2.2l3.6-4.3l-2.8-3.3c0.8-1.2,1.4-2.4,2-3.6l4.3,0.6l1.7-5.3l-3.8-1.9
			C337.1,297.6,337.2,296.2,337.3,294.8z"/>
		<g>
			<path class="st3" d="M287.2,328.4L287.2,328.4c-2.8-1.5-3.4-5.6-3.4-5.6l0,0c-0.4-1.3-1.3-2.4-2.5-2.9c-2.5-1-5.6,0.6-6.9,3.6
				c-1.3,3-0.2,6.4,2.3,7.4c1,0.4,2.1,0.4,3.1,0c4-0.8,6.2,0.2,6.9,0.7c0.1,0.1,0.2,0.1,0.3,0.2l0,0l0,0c0.4,0.2,0.8,0.3,1.3,0.2
				c1-0.2,1.5-1.1,1.3-2.1c0-0.1,0-0.2-0.1-0.2C288.9,329.3,288,328.9,287.2,328.4z"/>
			<path class="st3" d="M288.4,331.1l-1.1-0.6l20-35.9l2,1.1l-19.5,35C289.5,331.2,288.8,331.4,288.4,331.1z"/>
		</g>
	</g>
</g>
<g id="Слой_5" class="st0">
	<path class="st6" d="M65.2,134.7h383.3c7.8,0,14.2,6.4,14.2,14.2V222c0,7.8-6.4,14.2-14.2,14.2H79.3c-7.8,0-14.2,6.4-14.2,14.2
		v76.6c0,7.8,6.3,14.2,14.2,14.2h369.1c7.8,0,14.2,6.4,14.2,14.2v79.4c0,7.8-6.4,14.2-14.2,14.2H86.2"/>
	<circle class="st5" cx="65.2" cy="134.7" r="37"/>
	<circle class="st26" cx="462.6" cy="184.3" r="8.9"/>
	<g class="st1">
		<g>
			<g>
				<path class="st27" d="M65.3,131.4L65.3,131.4c-5.6,0-10.1-4.5-10.1-10.1v-3.6c0-5.6,4.5-10.1,10.1-10.1l0,0
					c5.6,0,10.1,4.5,10.1,10.1v3.6C75.4,126.8,70.9,131.4,65.3,131.4z"/>
				<path class="st27" d="M86.6,142c-3.5-3.7-7.9-6.4-12.9-7.9c-0.9-0.3-1.8,0.1-2.3,0.9c-0.7,1.2-2.1,2.1-3.6,2.1h-5.2
					c-1.5,0-2.8-0.8-3.6-2c-0.5-0.8-1.4-1.2-2.3-0.9c-5,1.5-9.5,4.3-13,8.1c-3.9,4.1-2.8,10.8,2.1,13.5l0,0
					c11.8,6.5,26.1,6.6,37.9,0.2l0.7-0.4C89.4,152.9,90.5,146.2,86.6,142z"/>
			</g>
		</g>
	</g>
	<g class="st1">
		<path class="st2" d="M314.3,55.1h-71c-4.8,0-8.6,3.9-8.6,8.6v36.8c0,4.8,3.9,8.6,8.6,8.6h25.6l9.4,9.4l9.4-9.4h26.5
			c4.8,0,8.6-3.9,8.6-8.6V63.7C322.9,59,319,55.1,314.3,55.1z"/>
		<line class="st2" x1="246.4" y1="80.7" x2="310" y2="80.7"/>
		<line class="st2" x1="246.4" y1="69.7" x2="310" y2="69.7"/>
		<line class="st2" x1="246.4" y1="91.8" x2="310" y2="91.8"/>
	</g>
	<path class="st5" d="M514.3,249c-17.5,0-31.6-13-31.6-29c0-8.9,4.4-16.8,11.2-22.2c-1-4-3.2-11.1-7.3-13.6c0,0,10.6-0.2,16.5,8.6
		c3.5-1.2,7.2-1.9,11.2-1.9c17.5,0,31.6,13,31.6,29S531.7,249,514.3,249z"/>
	<circle class="st26" cx="278" cy="134.1" r="8.9"/>
	<g class="st1">
		<path class="st2" d="M498.1,263.1h-71c-4.8,0-8.6,3.9-8.6,8.6v36.8c0,4.8,3.9,8.6,8.6,8.6h25.6l9.4,9.4l9.4-9.4h26.5
			c4.8,0,8.6-3.9,8.6-8.6v-36.8C506.8,267,502.9,263.1,498.1,263.1z"/>
		<line class="st2" x1="430.3" y1="288.7" x2="493.9" y2="288.7"/>
		<line class="st2" x1="430.3" y1="277.7" x2="493.9" y2="277.7"/>
		<line class="st2" x1="476.7" y1="299.9" x2="493.9" y2="299.9"/>
		<line class="st2" x1="430.3" y1="299.9" x2="447.5" y2="299.9"/>
	</g>
	<circle class="st26" cx="461.9" cy="342.1" r="8.9"/>
	<circle class="st26" cx="461.9" cy="446.6" r="8.9"/>
	<path class="st26" d="M307.4,252.8h-57.3c-5.3,0-9.6-4.3-9.6-9.6v-14.2c0-5.3,4.3-9.6,9.6-9.6h57.3c5.3,0,9.6,4.3,9.6,9.6v14.2
		C317,248.5,312.7,252.8,307.4,252.8z"/>
	<path class="st26" d="M301.4,240.2h-45.3c-2.3,0-4.1-1.8-4.1-4.1l0,0c0-2.3,1.8-4.1,4.1-4.1h45.3c2.3,0,4.1,1.8,4.1,4.1l0,0
		C305.5,238.4,303.6,240.2,301.4,240.2z"/>
	<path class="st26" d="M275.3,234.3l29.6-59.6c1-2,3.5-2.9,5.5-1.8l0,0c2,1,2.9,3.5,1.8,5.5L282.6,238c-1,2-3.5,2.9-5.5,1.8l0,0
		C275.1,238.8,274.3,236.3,275.3,234.3z"/>
	<circle class="st26" cx="309" cy="176.1" r="15.6"/>
	<polygon class="st28" points="285.3,232.4 282.4,240.2 296.3,232.1 	"/>
	<path class="st5" d="M108.3,335.7c-1.4-0.7-2.8-1.7-4.3-2.4c-1.9-0.9-0.9-2.5-1-3.8c0-0.5,0.7-1.3,1.3-1.6c1.7-0.8,4.2-1,4.9-2.3
		c0.7-1.3-0.3-3.6-0.6-5.5c0-0.1-0.1-0.3-0.1-0.4c0-1-0.5-1.4-1.6-1.3c-1.6,0.2-3.1,0.4-4.7,0.4c-0.6,0-1.5-0.5-1.9-1
		c-2-2.6-2.7-5.3,0.5-7.6c0.1-0.1,0.2-0.3,0.3-0.5c1.1-1.3,1.2-2.4-0.4-3.5c-1.3-0.9-2.5-3-3.7-3c-1.3,0-2.6,1.9-3.9,2.9
		c-0.4,0.3-1.1,0.9-1.4,0.7c-1.7-0.9-3.4-1.8-4.7-3.1c-0.5-0.5-0.1-2,0-3c0.4-4.2,0.4-4.1-3.6-5.3c-1.8-0.6-2.6-0.2-3.2,1.6
		c-1.3,4.1-1.4,3.9-5.6,4.1c-2.3,0.1-3.4-0.6-4-2.6c0-0.1-0.1-0.2-0.2-0.3c-2-4.1-2.1-4.1-6.4-2.6c-1.2,0.5-1.9,1-1.7,2.5
		c0.2,1.4,0.1,2.9,0.1,4.3c0,0.5-0.1,1-0.4,1.4c-2.2,2.3-4.2,2.4-6.6,0.5c-3.4-2.7-3.4-2.7-6.3,0.5c0,0-0.1,0.1-0.1,0.1
		c-1.6,1.2-1.5,2.4-0.2,3.9c2.9,3.4,2.8,3.4,0.6,7.1c-0.5,0.9-1.1,1.2-2.1,1c-1.9-0.3-3.8-0.5-5.9-0.8c-0.7,1.8-1.3,3.5-2,5.3
		c-0.4,0.9-0.2,1.5,0.7,2c1.6,0.9,3.2,1.8,4.7,2.7c0.5,0.3,1,0.8,1.1,1.3c0.6,3.2,0.1,4-3,5.2c-5.3,2.1-5.3,2.1-3.8,7.7
		c0,0.1,0,0.1,0,0.2c0.5,0.4,1,1.1,1.5,1.1c2.1,0.1,4.2,0,6.2-0.1c2.2-0.2,2.1,1.8,3,2.9c0.7,0.9,0.3,1.6-0.4,2.3
		c-0.8,0.8-1.4,1.7-2.1,2.6c-2.3,3-2.2,2,0,4.9c0.3,0.4,0.7,0.8,1,1.3c0.5,0.2,0.8,0.4,1.2,0.6c1.7-0.7,3.1-1.5,4.7-2.5
		c0,0,0-0.1,0-0.1c2-1.9,2-1.7,4.5-0.3c1.6,0.9,2.1,2,1.7,3.6c-0.2,0.8-0.1,1.6-0.2,2.4c-0.4,4-0.4,4,3.4,4.9
		c0.2,0.1,0.5,0.1,0.7,0.1c1.2,0.4,2,0.1,2.5-1.2c0.7-1.5,1.5-2.9,2.3-4.3c0.3-0.5,0.8-1,1.3-1.1c3.8-0.7,4.7-0.2,6.3,3.3
		c0.1,0.1,0.1,0.2,0.1,0.4c1.8,4,1.8,3.9,6,3c1.4-0.3,1.7-0.9,1.7-2.2c0-1.8,0.2-3.6,0.3-5.5c0.1-0.9,4.4-3.8,5.2-3.5
		c0.3,0.1,0.6,0.4,0.9,0.7c1.3,1,2.5,2.1,3.8,3.1c0.4,0.3,1.2,0.4,1.6,0.2c4.1-2.4,4.2-2.8,2.2-6.9c-0.1-0.2-0.2-0.5-0.3-0.7
		c-1.5-2.1-1.3-4,0.2-6.1c0.8-1.1,1.4-1.6,2.8-1.3c5,1,5,1,6.8-3.9c0.1-0.3,0.2-0.6,0.3-0.9C109.4,336.7,109.2,336.1,108.3,335.7z"
		/>
	<circle class="st5" cx="74.1" cy="329.9" r="7.9"/>
	<path class="st5" d="M221.7,296.1c-24.9,12.9-34.5,43.5-21.6,68.4s43.5,34.5,68.4,21.6s34.5-43.5,21.6-68.4
		C277.1,292.9,246.5,283.2,221.7,296.1z M281,322.4c2.5,4.7,3.9,9.8,4.4,14.8l-30.6-0.1c-0.1-0.3-0.2-0.6-0.4-0.9
		c-2-3.8-6.1-5.8-10.1-5.3l-14.3-27.5C249.2,295.8,271.4,303.8,281,322.4z M224,306.5l14.3,27.6c-2.7,3-3.5,7.5-1.5,11.3
		c0.3,0.5,0.6,0.9,0.9,1.4l-18.1,25.9c-4.2-3.4-7.9-7.7-10.5-12.9C199.2,340.7,205.9,317.5,224,306.5z M263.7,377.1
		c-12.6,6.5-27,5.8-38.5-0.6l18.1-26c2.2,0.5,4.7,0.3,6.9-0.9c2.4-1.3,4.1-3.4,4.9-5.8l30.4,0.1
		C284.5,357.6,276.7,370.4,263.7,377.1z"/>
	<circle class="st28" cx="245.6" cy="341.1" r="3.8"/>
	<g class="st1">
		<path class="st4" d="M505.4,210.6c0,0-0.5-8.9,8.9-8.9s9.1,9.1,9.1,9.1s0.8,9.3-9.3,9.3v9.5"/>
		
			<ellipse transform="matrix(0.3827 -0.9239 0.9239 0.3827 98.0588 621.9553)" class="st3" cx="514.4" cy="237.6" rx="2.8" ry="2.8"/>
	</g>
	<path class="st26" d="M420.5,484.1H321c-2.2,0-4.1-1.8-4.1-4.1v-61.5c0-2.2,1.8-4.1,4.1-4.1h99.5c2.2,0,4.1,1.8,4.1,4.1V480
		C424.5,482.2,422.7,484.1,420.5,484.1z"/>
	<g class="st1">
		<circle class="st4" cx="102.2" cy="448.8" r="32.4"/>
		<polyline class="st4" points="84.5,446.2 99.2,460.8 121.2,438.8 		"/>
	</g>
	<rect x="341.3" y="428.2" class="st29" width="9.3" height="36.7"/>
	<rect x="391.3" y="428.2" class="st29" width="9.3" height="36.7"/>
	<path class="st5" d="M346,389.8L346,389.8c-2.6,0-4.7,2.1-4.7,4.7v47.5c0,2.6,2.1,4.7,4.7,4.7l0,0c2.6,0,4.7-2.1,4.7-4.7v-47.5
		C350.6,391.9,348.6,389.8,346,389.8z"/>
	<path class="st5" d="M396,446.6L396,446.6c-2.6,0-4.7,2.1-4.7,4.7v47.5c0,2.6,2.1,4.7,4.7,4.7l0,0c2.6,0,4.7-2.1,4.7-4.7v-47.5
		C400.6,448.7,398.6,446.6,396,446.6z"/>
	<circle class="st5" cx="396" cy="503.4" r="10.5"/>
	<circle class="st5" cx="346" cy="390.2" r="10.5"/>
	<polyline class="st6" points="157.5,428.2 137.1,448.6 155.4,467 	"/>
</g>
</svg>
