<?xml version="1.0" encoding="utf-8"?>
<svg version="1.1" id="Слой_1" xmlns="http://www.w3.org/2000/svg" xmlns:xlink="http://www.w3.org/1999/xlink" x="0px" y="0px"
	 viewBox="0 0 566.9 566.9" style="enable-background:new 0 0 566.9 566.9;" xml:space="preserve">
<style type="text/css">
	.st0{display:none;fill:#FFFFFF;stroke:#00A89D;stroke-width:3;stroke-linecap:round;stroke-linejoin:round;stroke-miterlimit:10;}
	.st1{fill:#FFFFFF;stroke:#FF825C;stroke-width:3;stroke-linecap:round;stroke-linejoin:round;stroke-miterlimit:10;}
	.st2{enable-background:new    ;}
	.st3{fill:#FF825C;}
	.st4{fill:none;stroke:#FF825C;stroke-width:3;stroke-linecap:round;stroke-linejoin:round;stroke-miterlimit:10;}
	.st5{fill:#FFFFFF;stroke:#00A89D;stroke-width:3;stroke-linecap:round;stroke-linejoin:round;stroke-miterlimit:10;}
	.st6{fill:#FFFFFF;stroke:#00505A;stroke-width:3;stroke-linecap:round;stroke-linejoin:round;stroke-miterlimit:10;}
	.st7{fill:#FFFFFF;stroke:#00505A;stroke-width:3;stroke-linecap:round;stroke-linejoin:round;stroke-miterlimit:9.9998;}
	.st8{fill:none;stroke:#00505A;stroke-width:3;stroke-linecap:round;stroke-linejoin:round;stroke-miterlimit:10;}
	.st9{fill:none;stroke:#00A89D;stroke-width:3;stroke-linecap:round;stroke-linejoin:round;stroke-miterlimit:10;}
</style>
<path class="st0" d="M711.3,275.6"/>
<path class="st0" d="M629.4,345.1c-9.2,5.3-20.9,2.1-26.2-7l0,0c-5.3-9.2-2.1-20.9,7-26.2l75-43.3"/>
<path class="st1" d="M450.4,100.1h-21.7H198c-12,0-21.7,9.7-21.7,21.7v328h252.4v-318h21.7c12,0,21.7,1.9,21.7-10.1l0,0
	C472.1,109.8,462.4,100.1,450.4,100.1z"/>
<path class="st1" d="M453.4,100.1h-6.1c-10.3,0-18.7,8.4-18.7,18.7v13.1H472v-13.1C472.1,108.4,463.7,100.1,453.4,100.1z"/>
<g class="st2">
	<path class="st3" d="M207.3,177.8c-1.4,0-2.9-0.1-4.4-0.3s-2.9-0.5-4.3-0.9c-1.4-0.4-2.6-0.9-3.6-1.5c-0.8-0.4-1.3-0.9-1.6-1.6
		s-0.4-1.3-0.3-2c0.1-0.7,0.3-1.3,0.8-1.8c0.4-0.5,1-0.9,1.6-1c0.7-0.2,1.4,0,2.2,0.4c1.4,0.8,2.9,1.4,4.6,1.7
		c1.7,0.4,3.3,0.6,4.9,0.6c2.5,0,4.3-0.4,5.3-1.2c1.1-0.8,1.6-1.7,1.6-2.9c0-1-0.4-1.8-1.1-2.4c-0.8-0.6-2.1-1.1-3.9-1.5l-5.8-1.2
		c-3.3-0.7-5.7-1.9-7.3-3.5c-1.6-1.7-2.4-3.8-2.4-6.5c0-1.7,0.4-3.3,1.1-4.7c0.7-1.4,1.7-2.6,3-3.6s2.8-1.8,4.6-2.4
		c1.8-0.5,3.8-0.8,5.9-0.8c1.9,0,3.8,0.2,5.6,0.7s3.5,1.1,4.9,2c0.7,0.4,1.2,0.9,1.4,1.6c0.3,0.6,0.3,1.3,0.3,1.9
		c-0.1,0.6-0.3,1.2-0.8,1.7c-0.4,0.5-1,0.8-1.6,0.9c-0.6,0.1-1.4,0-2.4-0.5c-1.1-0.6-2.3-1-3.6-1.3s-2.6-0.4-3.9-0.4
		c-1.4,0-2.7,0.2-3.7,0.6c-1,0.4-1.8,0.9-2.3,1.6c-0.5,0.7-0.8,1.5-0.8,2.4c0,1,0.4,1.8,1.1,2.4s2,1.1,3.7,1.5l5.8,1.2
		c3.3,0.7,5.8,1.9,7.5,3.5c1.6,1.6,2.5,3.7,2.5,6.3c0,1.7-0.3,3.3-1,4.6c-0.7,1.4-1.7,2.6-3,3.6s-2.9,1.8-4.7,2.3
		C211.6,177.6,209.5,177.8,207.3,177.8z"/>
	<path class="st3" d="M231.3,177.3c-1.3,0-2.3-0.4-3-1.1c-0.7-0.7-1.1-1.7-1.1-3v-28.1c0-1.3,0.3-2.3,1-3s1.7-1,3-1s2.2,0.3,2.9,1
		s1,1.7,1,3v25.5h13.7c1.1,0,1.9,0.3,2.5,0.9c0.6,0.6,0.9,1.4,0.9,2.5s-0.3,1.9-0.9,2.5s-1.4,0.9-2.5,0.9L231.3,177.3L231.3,177.3z"
		/>
	<path class="st3" d="M257,177.7c-1,0-1.7-0.2-2.3-0.7c-0.6-0.4-1-1-1.1-1.8c-0.2-0.8,0-1.6,0.4-2.5l13.1-28.8
		c0.5-1.2,1.2-2,1.9-2.5c0.8-0.5,1.6-0.8,2.6-0.8s1.9,0.3,2.6,0.8c0.8,0.5,1.4,1.4,1.9,2.5l13.2,28.8c0.4,0.9,0.6,1.8,0.5,2.5
		c-0.1,0.8-0.5,1.4-1.1,1.8s-1.3,0.6-2.3,0.6c-1.2,0-2.1-0.3-2.7-0.8s-1.2-1.4-1.7-2.6l-3.1-7.1l3.2,2.2h-21.4l3.2-2.2l-3,7.1
		c-0.5,1.2-1.1,2.1-1.6,2.6S258.1,177.7,257,177.7z M271.5,149.6l-6.6,15.6l-1.4-2h16l-1.4,2L271.5,149.6L271.5,149.6z"/>
	<path class="st3" d="M317.6,177.8c-1.5,0-3-0.2-4.5-0.6c-1.5-0.4-2.9-1-4.2-1.8c-0.7-0.3-1.2-0.8-1.4-1.5c-0.3-0.6-0.3-1.3-0.2-1.9
		c0.1-0.6,0.4-1.2,0.8-1.7s0.9-0.8,1.6-1c0.6-0.2,1.4,0,2.2,0.3c1.1,0.6,2.1,1,3,1.2s1.9,0.4,2.8,0.4c1.8,0,3.3-0.4,4.6-1.2
		s2.2-2.1,2.8-3.7c0.6-1.7,0.9-3.7,0.9-6.1v-3.3h0.7c-0.3,1.6-0.8,3-1.7,4.2c-0.9,1.2-1.9,2.1-3.2,2.7s-2.7,0.9-4.3,0.9
		c-2,0-3.8-0.5-5.4-1.5s-2.9-2.4-3.8-4.2s-1.4-3.8-1.4-6c0-2.4,0.5-4.5,1.5-6.4s2.5-3.3,4.3-4.4c1.8-1.1,4-1.6,6.4-1.6
		c3.1,0,5.7,0.7,7.9,2.1c2.1,1.4,3.8,3.5,4.9,6.2s1.7,6,1.7,9.8c0,3-0.4,5.7-1.1,8.1c-0.7,2.4-1.8,4.4-3.2,6c-1.4,1.6-3,2.9-5,3.7
		S320.1,177.8,317.6,177.8z M319.7,158.4c1.1,0,2-0.2,2.8-0.7s1.4-1.2,1.9-2.1c0.4-0.9,0.7-1.9,0.7-3c0-1.2-0.2-2.2-0.7-3.1
		c-0.4-0.9-1.1-1.6-1.9-2.1s-1.7-0.7-2.8-0.7c-1.1,0-2,0.2-2.8,0.7s-1.4,1.2-1.9,2.1c-0.5,0.9-0.7,1.9-0.7,3.1c0,1.1,0.2,2.1,0.7,3
		s1.1,1.6,1.9,2.1S318.6,158.4,319.7,158.4z"/>
	<path class="st3" d="M348.4,177.8c-1.5,0-3-0.2-4.5-0.6c-1.5-0.4-2.9-1-4.2-1.8c-0.7-0.3-1.2-0.8-1.4-1.5c-0.3-0.6-0.3-1.3-0.2-1.9
		c0.1-0.6,0.4-1.2,0.8-1.7s0.9-0.8,1.6-1c0.6-0.2,1.4,0,2.2,0.3c1.1,0.6,2.1,1,3,1.2c1,0.2,1.9,0.4,2.8,0.4c1.8,0,3.3-0.4,4.6-1.2
		c1.3-0.8,2.2-2.1,2.8-3.7c0.6-1.7,0.9-3.7,0.9-6.1v-3.3h0.7c-0.3,1.6-0.8,3-1.7,4.2c-0.9,1.2-1.9,2.1-3.2,2.7
		c-1.3,0.6-2.7,0.9-4.3,0.9c-2,0-3.8-0.5-5.4-1.5s-2.9-2.4-3.8-4.2s-1.4-3.8-1.4-6c0-2.4,0.5-4.5,1.5-6.4s2.5-3.3,4.3-4.4
		c1.8-1.1,4-1.6,6.4-1.6c3.1,0,5.7,0.7,7.9,2.1s3.8,3.5,4.9,6.2s1.7,6,1.7,9.8c0,3-0.4,5.7-1.1,8.1c-0.7,2.4-1.8,4.4-3.2,6
		c-1.4,1.6-3.1,2.9-5,3.7S350.9,177.8,348.4,177.8z M350.4,158.4c1.1,0,2-0.2,2.8-0.7s1.4-1.2,1.9-2.1c0.4-0.9,0.7-1.9,0.7-3
		c0-1.2-0.2-2.2-0.7-3.1c-0.4-0.9-1.1-1.6-1.9-2.1s-1.7-0.7-2.8-0.7s-2,0.2-2.8,0.7s-1.4,1.2-1.9,2.1c-0.5,0.9-0.7,1.9-0.7,3.1
		c0,1.1,0.2,2.1,0.7,3s1.1,1.6,1.9,2.1C348.5,158.2,349.4,158.4,350.4,158.4z"/>
	<path class="st3" d="M378,162.7c-3,0-5.3-1-6.9-3s-2.5-4.7-2.5-8.1c0-2.3,0.4-4.3,1.1-5.9c0.7-1.6,1.8-2.9,3.2-3.8
		c1.4-0.9,3.1-1.3,5-1.3c2.9,0,5.2,1,6.9,3s2.5,4.7,2.5,8c0,2.3-0.4,4.2-1.1,5.9s-1.8,2.9-3.2,3.8C381.7,162.2,380,162.7,378,162.7z
		 M378,157.7c0.7,0,1.3-0.2,1.7-0.6c0.5-0.4,0.8-1.1,1.1-2c0.3-0.9,0.4-2.1,0.4-3.5c0-2.2-0.3-3.7-0.8-4.6c-0.6-0.9-1.3-1.4-2.3-1.4
		c-0.7,0-1.3,0.2-1.7,0.6c-0.5,0.4-0.8,1.1-1.1,1.9c-0.2,0.9-0.4,2-0.4,3.5c0,2.2,0.3,3.8,0.8,4.7C376.2,157.3,377,157.7,378,157.7z
		 M384.5,176.6c-0.4,0.7-0.9,1.1-1.5,1.4c-0.6,0.2-1.2,0.3-1.7,0.1c-0.6-0.1-1.1-0.4-1.5-0.8s-0.6-0.9-0.7-1.6s0.1-1.3,0.5-1.9
		l18.4-31.9c0.4-0.7,0.9-1.2,1.5-1.4s1.2-0.3,1.7-0.1c0.6,0.2,1.1,0.4,1.5,0.9c0.4,0.4,0.7,0.9,0.8,1.6s-0.1,1.3-0.5,1.9
		L384.5,176.6z M404.4,177.8c-3,0-5.3-1-6.9-3s-2.5-4.7-2.5-8.1c0-2.3,0.4-4.2,1.1-5.8c0.8-1.6,1.8-2.9,3.2-3.8
		c1.4-0.9,3.1-1.3,5-1.3c2.9,0,5.2,1,6.9,3c1.7,2,2.5,4.6,2.5,8c0,2.3-0.4,4.2-1.1,5.9s-1.8,3-3.2,3.9
		C408.1,177.4,406.4,177.8,404.4,177.8z M404.4,172.9c0.7,0,1.3-0.2,1.7-0.6c0.5-0.4,0.8-1.1,1.1-2c0.3-0.9,0.4-2.1,0.4-3.5
		c0-2.2-0.3-3.7-0.8-4.6c-0.6-0.9-1.3-1.4-2.3-1.4c-0.7,0-1.3,0.2-1.7,0.6s-0.8,1.1-1.1,1.9c-0.3,0.9-0.4,2.1-0.4,3.5
		c0,2.2,0.3,3.8,0.8,4.7C402.6,172.4,403.4,172.9,404.4,172.9z"/>
</g>
<polyline class="st4" points="190.7,209.5 204.7,223.4 224,204.6 "/>
<line class="st4" x1="240.7" y1="214" x2="389.5" y2="214"/>
<polyline class="st4" points="190.7,253 204.7,267 224,248.1 "/>
<line class="st4" x1="240.7" y1="257.5" x2="389.5" y2="257.5"/>
<polyline class="st4" points="190.7,297.9 204.7,311.9 224,293 "/>
<line class="st4" x1="240.7" y1="302.5" x2="389.5" y2="302.5"/>
<polyline class="st4" points="190.7,341.4 204.7,355.4 224,336.6 "/>
<line class="st4" x1="240.7" y1="346" x2="389.5" y2="346"/>
<g>
	<circle class="st5" cx="450.3" cy="261.7" r="46"/>
	<polyline class="st5" points="420.4,256.7 445.5,281.8 480.2,247.9 	"/>
</g>
<g>
	<circle class="st5" cx="190.7" cy="95.3" r="39.7"/>
	<path class="st5" d="M192.5,74.8l3.6,11.2c0.3,0.8,1,1.3,1.8,1.3h11.8c1.8,0,2.6,2.3,1.1,3.4l-9.5,6.9c-0.7,0.5-0.9,1.3-0.7,2.1
		l3.6,11.2c0.6,1.7-1.4,3.2-2.9,2.1l-9.5-6.9c-0.7-0.5-1.6-0.5-2.2,0l-9.5,6.9c-1.5,1.1-3.5-0.4-2.9-2.1l3.6-11.2
		c0.3-0.8,0-1.6-0.7-2.1l-9.5-6.9c-1.5-1.1-0.7-3.4,1.1-3.4h11.8c0.8,0,1.5-0.5,1.8-1.3l3.6-11.2C189.5,73.1,191.9,73.1,192.5,74.8z
		"/>
</g>
<g>
	<path class="st5" d="M354.1,346.7L299,286.5l-30.3,27.8c-6.1,5.6-14.5,7.5-22.5,5.5c-1.1-0.3-2.2-0.5-3.4-0.6
		c-7.1-0.9-14,0.9-19.6,4.6l-75.1,31.6c-8.2,3.4-10.4,12-5,18.9l2.9,3.7c3.8,4.9,11.7,7,17.5,4.6l29.3-12.3l-64.1,58.6l72.8,78
		l99.1-90.6c3.6-3.3,5.9-7.5,6.8-12c2.3-11.3,7.7-21.8,16.2-29.6L354.1,346.7z"/>
	<path class="st5" d="M213.9,327l-45.3-11.9c-0.7-0.2-1.3-0.3-2-0.4c-10.8-1.5-20.9-6.3-28.3-14.5l-15.8-17.4l-63.8,58.8l23.4,25.8
		c9.3,10.3,15.9,23,17.9,36.8c0.7,5,2.9,9.8,6.5,13.8l79.2,87.3c9.7,10.7,20.5,6,31.1-3.8l49.7-44.1c10.6-9.8,16.1-21.7,6.4-32.4
		l-59-64.8"/>
	<path class="st5" d="M223.3,323.8L153.7,353c-9.2,3.9-13.9,13.4-10.6,21.3l0,0c3.3,7.9,13.5,11.2,22.6,7.3l50-21.1
		c0,0,14,17.9,42.4,18.2"/>
	<path class="st5" d="M233.5,381.7l52.4,58.1c5.6,6.1,5.2,15.6-0.9,21.2l0,0c-6.1,5.6-15.6,5.2-21.2-0.9l-42.2-46.7"/>
	<path class="st5" d="M221.6,413.4l46,50.2c5.6,6.1,5.2,15.6-0.9,21.2l0,0c-6.1,5.6-15.6,5.2-21.2-0.9l-44.4-48.5"/>
	<path class="st5" d="M203.4,437.8l41.8,45.6c5.6,6.1,5.2,15.6-0.9,21.2l0,0c-6.1,5.6-15.6,5.2-21.2-0.9l-52.5-57.3"/>
	<path class="st5" d="M194,516.4l-52.5-57.3c-5.6-6.1-5.2-15.6,0.9-21.2l0,0c6.1-5.6,15.6-5.2,21.2,0.9l52.5,57.3
		c5.6,6.1,5.2,15.6-0.9,21.2l0,0C209.1,522.9,199.6,522.5,194,516.4z"/>
	<path class="st5" d="M118.1,414.1l-8.7,8c-6.2,5.7-6.6,15.4-0.9,21.7l0,0c5.7,6.2,15.4,6.6,21.7,0.9l8.7-8
		c6.2-5.7,6.6-15.4,0.9-21.7l0,0C134,408.7,124.3,408.3,118.1,414.1z"/>
	<path class="st5" d="M153.9,423.8L129,446.7c-6.1,5.6-6.5,15.1-0.9,21.3l0,0c5.6,6.1,15.1,6.5,21.3,0.9l24.9-22.9
		c6.1-5.6,6.5-15.1,0.9-21.3l0,0C169.5,418.5,160,418.1,153.9,423.8z"/>
	<path class="st5" d="M173.7,446.8l-23.5,21.6c-6.5,6-6.9,16.1-0.9,22.6l0,0c6,6.5,16.1,6.9,22.6,0.9l23.5-21.6
		c6.5-6,6.9-16.1,0.9-22.6l0,0C190.3,441.2,180.2,440.8,173.7,446.8z"/>
	<path class="st5" d="M187.9,477l-10.2,9.4c-5.8,5.4-6.2,14.4-0.8,20.2l0,0c5.4,5.8,14.4,6.2,20.2,0.8l10.2-9.4
		c5.8-5.4,6.2-14.4,0.8-20.2l0,0C202.7,472,193.7,471.6,187.9,477z"/>
	
		<rect x="47.5" y="285.8" transform="matrix(0.737 -0.6759 0.6759 0.737 -190.6624 152.7722)" class="st6" width="106.9" height="71.1"/>
	
		<rect x="276.1" y="276.8" transform="matrix(0.737 -0.6759 0.6759 0.737 -141.2416 297.4759)" class="st6" width="71.1" height="106.9"/>
</g>
<rect x="412.6" y="364.6" class="st6" width="31.9" height="69.5"/>
<rect x="405.8" y="346" class="st6" width="45.5" height="20.8"/>
<rect x="404.9" y="414.6" transform="matrix(0.7071 -0.7071 0.7071 0.7071 -166.9747 445.3267)" class="st7" width="98.4" height="19.3"/>
<path class="st6" d="M505,405.6l-32.2-32.2l0,0c5.9-5.9,15.3-5.9,21.2,0l11,11C510.8,390.2,510.8,399.7,505,405.6L505,405.6z"/>
<rect x="387.5" y="378.1" transform="matrix(0.7071 -0.7071 0.7071 0.7071 -179.1829 402.4335)" class="st7" width="17.4" height="78.8"/>
<path class="st6" d="M384.5,373.5l-32.2,32.2l0,0c-5.9-5.9-5.9-15.3,0-21.2l11-11C369.1,367.7,378.6,367.7,384.5,373.5L384.5,373.5z
	"/>
<circle class="st6" cx="428.6" cy="448.8" r="71.1"/>
<path class="st3" d="M428.6,442.2c0.1-1.4,0-55.1,0-55.1s25.2-1.8,43.5,17.9l-43.5,43.9V442.2z"/>
<g>
	<path class="st6" d="M379.3,448.8c0-1,0-2.1,0.1-3.1h-12.6v6.2h12.6C379.3,450.9,379.3,449.8,379.3,448.8z"/>
	<path class="st6" d="M428.6,399.5c1,0,2.1,0,3.1,0.1V387h-6.2v12.6C426.5,399.5,427.6,399.5,428.6,399.5z"/>
	<path class="st6" d="M477.8,445.7c0.1,1,0.1,2,0.1,3.1s0,2.1-0.1,3.1h12.6v-6.2H477.8z"/>
	<path class="st6" d="M428.6,498.1c-1,0-2.1,0-3.1-0.1v12.6h6.2V498C430.7,498,429.6,498.1,428.6,498.1z"/>
</g>
<circle class="st8" cx="428.6" cy="448.8" r="61.8"/>
<rect x="422.1" y="430" transform="matrix(0.7071 -0.7071 0.7071 0.7071 -177.0711 440.6449)" class="st7" width="42.5" height="8.2"/>
<circle class="st6" cx="428.6" cy="448.8" r="6.6"/>
<g>
	<path class="st8" d="M105.2,55.6h-23c-8.5,0-15.3,6.9-15.3,15.3v107.7c0,8.5,6.9,15.3,15.3,15.3h22.9"/>
	<polyline class="st8" points="86.3,174.3 105.9,193.9 86,213.8 	"/>
</g>
<g>
	<path class="st8" d="M472.1,194.1H495c8.5,0,15.3-6.9,15.3-15.3V71c0-8.5-6.9-15.3-15.3-15.3h-22.9"/>
	<polyline class="st8" points="490.9,75.4 471.3,55.8 491.2,35.8 	"/>
</g>
<g>
	<circle class="st5" cx="264" cy="57.6" r="25.8"/>
	<path class="st5" d="M264,60.5L264,60.5c-4.2,0-7.7-3.4-7.7-7.7v-4.4c0-4.2,3.4-7.7,7.7-7.7l0,0c4.2,0,7.7,3.4,7.7,7.7v4.4
		C271.7,57.1,268.2,60.5,264,60.5z"/>
	<path class="st9" d="M245.2,75.3c0,0,5.8-10.4,18.8-10.4s18.8,10.4,18.8,10.4"/>
</g>
</svg>
