<?xml version="1.0" encoding="utf-8"?>
<!-- Generator: Adobe Illustrator 23.1.0, SVG Export Plug-In . SVG Version: 6.00 Build 0)  -->
<svg version="1.1" id="Слой_1" xmlns="http://www.w3.org/2000/svg" xmlns:xlink="http://www.w3.org/1999/xlink" x="0px" y="0px"
	 viewBox="0 0 193.87 74.02" style="enable-background:new 0 0 193.87 74.02;" xml:space="preserve">
<style type="text/css">
	.st0{fill:#00A89D;}
	.st1{fill:#FFFFFF;}
	.st2{fill:#FF825C;}
</style>
<g>
	<path class="st0" d="M51.34,31.27c0.17,0.93,0.27,1.88,0.27,2.86c0,8.48-6.87,15.35-15.35,15.35c-8.48,0-15.35-6.87-15.35-15.35
		s6.87-15.35,15.35-15.35c4.24,0,8.07,1.72,10.85,4.49l3.14-3.14c-3.58-3.58-8.53-5.8-13.99-5.8c-10.93,0-19.79,8.86-19.79,19.79
		c0,10.93,8.86,19.79,19.79,19.79c10.93,0,19.79-8.86,19.79-19.79c0-0.97-0.07-1.92-0.21-2.85L51.34,31.27z"/>
	<path class="st1" d="M70.37,34.1l-0.24-2.77l-8.36-0.03c0.02,0.21,0.05,0.41,0.07,0.62c1.21,14.02-9.22,26.4-23.23,27.6
		C24.59,60.73,12.21,50.31,11,36.3C9.8,22.28,20.22,9.9,34.24,8.69c7.74-0.67,14.98,2.22,20.12,7.3l6-6L55.9,6.23l-3.44,2.94
		c-1.21-0.78-2.48-1.47-3.79-2.07l0.62-4.49l-5.56-1.76l-2.07,4.07c-1.34-0.24-2.71-0.39-4.09-0.44L36.4,0l-5.81,0.5l-0.36,4.6
		c-1.46,0.31-2.87,0.73-4.23,1.24l-2.81-3.72L18,5.31l1.46,4.48c-1.15,0.8-2.23,1.68-3.25,2.64l-4.09-2.4l-3.76,4.46l3.1,3.62
		c-0.75,1.16-1.41,2.38-2,3.64L4.73,21.1l-1.76,5.56l4.26,2.17c-0.24,1.35-0.39,2.72-0.45,4.12l-4.63,1.21l0.5,5.81l4.77,0.37
		c0.29,1.37,0.68,2.7,1.15,3.98L4.75,47.2l2.69,5.18l4.54-1.48c0.79,1.14,1.65,2.23,2.59,3.25l-2.41,4.11l4.46,3.76l3.6-3.08
		c1.17,0.76,2.39,1.45,3.66,2.04l-0.65,4.67l5.56,1.76l2.11-4.15c1.43,0.27,2.89,0.44,4.38,0.49l1.16,4.47l5.81-0.5l0.36-4.6
		c1.36-0.29,2.68-0.67,3.96-1.13l2.76,3.64l5.18-2.69l-1.4-4.31c1.19-0.82,2.32-1.72,3.38-2.69l3.9,2.29l3.76-4.46l-2.92-3.42
		c0.8-1.21,1.5-2.48,2.12-3.81l4.43,0.61l1.76-5.56l-3.96-2.02c0.27-1.42,0.43-2.88,0.49-4.36L70.37,34.1z"/>
	<g>
		<path class="st0" d="M94.74,55.84c-1.3,0.79-2.73,1.42-4.3,1.87c-1.57,0.45-3.05,0.68-4.42,0.68c-3.89,0-6.74-0.85-8.55-2.55
			c-1.81-1.7-2.71-4.4-2.71-8.08V35.93H37.94v-4.69h42.78V46.8c0,2.26,0.44,3.9,1.33,4.93c0.88,1.03,2.29,1.54,4.21,1.54
			c1.06,0,2.23-0.17,3.51-0.51c1.28-0.34,2.37-0.76,3.27-1.28V35.93h-4.71v-4.69h10.67v20.44l8.06,1.01l-0.4,4.69L94.74,55.84z"/>
		<path class="st0" d="M115.9,33.32c1.53-1.03,3.09-1.79,4.69-2.29c1.59-0.49,3.78-0.43,5.35-0.43c1.45,0,3.92,0.64,4.78,1
			l5.37,2.19l-2.88,4.52l-4.84-2.06c-1.96-0.61-5.76-0.68-7.72-0.09c-0.01,0-0.02,0.01-0.04,0.01c-1.18,0.36-2.2,0.83-3.06,1.43
			l-0.06,15.03h5.78v4.75h-16.62v-4.75h4.95V37.18l-5.66-1.9l1.59-4.81L115.9,33.32z"/>
		<path class="st0" d="M160.22,58.63l-7.66-2.67c-2.28,1.62-4.85,2.44-7.72,2.44c-4.28,0-7.61-1.28-9.99-3.83
			c-2.38-2.55-3.57-6.09-3.57-10.61c0-4.36,1.19-7.74,3.57-10.16c2.38-2.42,5.71-3.62,9.99-3.62c0.9,0,1.87,0.1,2.89,0.3
			c1.02,0.2,2,0.48,2.95,0.83v-6.36l-5.72-2.02l1.65-4.93l9.96,3.45v30.36l5.24,1.84L160.22,58.63z M144.9,53.58
			c0.86,0,1.83-0.16,2.89-0.48c1.06-0.32,2.02-0.73,2.89-1.25V36.35c-0.75-0.4-1.66-0.71-2.74-0.95c-1.08-0.24-2.09-0.36-3.04-0.36
			c-2.28,0-4.12,0.81-5.51,2.44c-1.39,1.62-2.09,3.76-2.09,6.42c0,2.93,0.7,5.28,2.09,7.04C140.78,52.7,142.62,53.58,144.9,53.58z"
			/>
		<path class="st0" d="M176.42,61.42l-11.85-25.49h-9.6v-4.69h18.91v4.69h-3.3l8.43,19.79L176.42,61.42z M169,71.34
			c-0.75,0-1.5-0.07-2.27-0.21c-0.77-0.14-1.58-0.39-2.45-0.74l1-4.58c0.67,0.2,1.27,0.36,1.8,0.48c0.53,0.12,1.07,0.18,1.62,0.18
			c1.02,0,1.87-0.2,2.53-0.59c0.67-0.4,1.31-1.13,1.92-2.2c0.61-1.07,1.27-2.59,1.97-4.58l8.6-23.17h-3.12l0.18-4.69h13.08v4.69
			h-4.42l-10.37,26.26c-1.26,3.13-2.69,5.44-4.3,6.92C173.16,70.6,171.24,71.34,169,71.34z"/>
	</g>
	
		<ellipse transform="matrix(0.7071 -0.7071 0.7071 0.7071 -13.5107 35.634)" class="st2" cx="36.26" cy="34.13" rx="4.69" ry="4.69"/>
	<g>
		<path class="st2" d="M13.91,70.19L13.91,70.19c-2.87-1.6-3.53-5.88-3.53-5.88l0,0c-0.43-1.39-1.34-2.52-2.65-3.07
			c-2.63-1.09-5.83,0.6-7.15,3.77c-1.32,3.18-0.25,6.64,2.38,7.73c1.06,0.44,2.2,0.42,3.28,0.05c4.19-0.87,6.46,0.23,7.23,0.74
			c0.09,0.09,0.2,0.16,0.3,0.22c0,0,0.01,0.01,0.01,0.01s0,0,0,0c0.38,0.22,0.85,0.31,1.31,0.21c0.99-0.22,1.62-1.19,1.4-2.18
			c-0.02-0.09-0.05-0.17-0.08-0.25C15.64,71.16,14.71,70.79,13.91,70.19z"/>
		<path class="st2" d="M14.51,72.77l-0.62-0.34l20.84-37.38l2.11,1.18L16.84,72.11C16.38,72.93,15.34,73.23,14.51,72.77z"/>
	</g>
</g>
</svg>
