<?xml version="1.0" encoding="utf-8"?>
<!-- Generator: Adobe Illustrator 23.1.0, SVG Export Plug-In . SVG Version: 6.00 Build 0)  -->
<svg version="1.1" xmlns="http://www.w3.org/2000/svg" xmlns:xlink="http://www.w3.org/1999/xlink" x="0px" y="0px"
	 viewBox="0 0 1000 1000" style="enable-background:new 0 0 1000 1000;" xml:space="preserve">
<style type="text/css">
	.st0{display:none;}
	.st1{display:inline;opacity:0.13;}
	.st2{display:inline;fill:#FF4B33;}
	.st3{display:inline;fill:#00A89D;}
	.st4{display:inline;fill:#00505A;}
	.st5{display:inline;fill:#FF825C;}
	.st6{display:inline;}
	.st7{fill:#FFFFFF;stroke:#FF825C;stroke-width:8;stroke-miterlimit:10;}
	.st8{fill:none;stroke:#FF825C;stroke-width:8;stroke-linecap:round;stroke-linejoin:round;stroke-miterlimit:10;}
	
		.st9{display:inline;fill:#FFFFFF;stroke:#FF4B33;stroke-width:8;stroke-linecap:round;stroke-linejoin:round;stroke-miterlimit:10;}
	.st10{display:inline;fill:none;stroke:#FF825C;stroke-width:8;stroke-linecap:round;stroke-linejoin:round;stroke-miterlimit:10;}
	.st11{display:inline;fill:#FF3115;}
	.st12{fill:none;stroke:#00505A;stroke-width:5;stroke-miterlimit:10;}
	.st13{fill:#FF4B33;}
	.st14{opacity:0.21;}
	.st15{fill:#00A89D;}
	.st16{fill:#FFFFFF;stroke:#FF3115;stroke-width:4;stroke-miterlimit:10;}
	.st17{fill:#FFFFFF;stroke:#FF3115;stroke-width:4;stroke-linecap:round;stroke-linejoin:round;stroke-miterlimit:10;}
	.st18{display:inline;fill:#FFFFFF;stroke:#FF825C;stroke-width:5;stroke-miterlimit:10;}
	.st19{fill:#FF825C;}
	.st20{display:inline;fill:none;stroke:#FFFFFF;stroke-width:3;stroke-linecap:round;stroke-miterlimit:10;}
	.st21{display:inline;fill:#FFFFFF;}
	.st22{display:inline;fill:#FFFFFF;stroke:#FF3115;stroke-width:5;stroke-miterlimit:10;}
	.st23{fill:#00505B;}
	.st24{display:inline;fill:#FFFFFF;stroke:#00A89D;stroke-width:5;stroke-miterlimit:10;}
	.st25{display:inline;fill:#FFFFFF;stroke:#00505A;stroke-width:5;stroke-miterlimit:10;}
	.st26{fill:#FFFFFF;stroke:#FF825C;stroke-width:4;stroke-linecap:round;stroke-linejoin:round;stroke-miterlimit:10;}
	.st27{fill:none;stroke:#FF4B33;stroke-width:5;stroke-linecap:round;stroke-linejoin:round;stroke-miterlimit:10;}
	.st28{display:inline;fill:none;stroke:#00505A;stroke-width:4;stroke-linejoin:round;stroke-miterlimit:10;}
	.st29{font-family:'Nunito-SemiBold';}
	.st30{font-size:49.6202px;}
	.st31{fill:#FF825C;fill-opacity:0.35;stroke:#FF825C;stroke-width:5;stroke-miterlimit:10;}
	.st32{fill:none;stroke:#FF825C;stroke-width:5;stroke-miterlimit:10;}
	.st33{fill:#FFFFFF;stroke:#FF825C;stroke-width:5;stroke-miterlimit:10;}
	
		.st34{fill:#00A89D;fill-opacity:0.14;stroke:#00A89D;stroke-width:5;stroke-linecap:round;stroke-linejoin:round;stroke-miterlimit:10;}
	.st35{fill:none;stroke:#00A89D;stroke-width:5;stroke-linecap:round;stroke-miterlimit:10;}
	.st36{fill:none;stroke:#00A89D;stroke-width:5;stroke-miterlimit:10;}
	.st37{fill:none;stroke:#00505A;stroke-width:5;stroke-linecap:round;stroke-linejoin:round;stroke-miterlimit:10;}
</style>
<g id="Слой_1" class="st0">
	
		<image style="display:inline;overflow:visible;" width="1280" height="1280" xlink:href="35652183.jpg"  transform="matrix(0.6001 0 0 0.6001 116.3531 115.8076)">
	</image>
	
		<image style="overflow:visible;" width="1280" height="1280" xlink:href="35652181.jpg"  transform="matrix(0.6001 0 0 0.6001 116.3531 115.8076)">
	</image>
	
		<image style="overflow:visible;" width="1280" height="1280" xlink:href="35652187.jpg"  transform="matrix(0.6001 0 0 0.6001 116.3531 115.8076)">
	</image>
	
		<image style="overflow:visible;" width="1280" height="1280" xlink:href="35652180.jpg"  transform="matrix(0.6001 0 0 0.6001 116.3531 115.8076)">
	</image>
</g>
<g id="Слой_3" class="st0">
</g>
<g id="Слой_4" class="st0">
	<g class="st1">
		<image style="overflow:visible;" width="645" height="569" xlink:href="35652183.png"  transform="matrix(1 0 0 1 160 264)">
		</image>
	</g>
	<polygon class="st2" points="335.5,499.3 196.3,606 195.5,593.7 329.3,491.2 	"/>
	
		<rect x="332" y="507.1" transform="matrix(0.971 0.2391 -0.2391 0.971 134.5264 -84.6626)" class="st2" width="168.6" height="10.2"/>
	
		<rect x="485.8" y="479.7" transform="matrix(0.8353 -0.5497 0.5497 0.8353 -172.6385 393.2137)" class="st2" width="168.6" height="10.2"/>
	<path class="st3" d="M338.3,796.1L338.3,796.1c-2.3,0-4.1-1.8-4.1-4.1V286.2c0-2.3,1.8-4.1,4.1-4.1l0,0c2.3,0,4.1,1.8,4.1,4.1V792
		C342.4,794.2,340.6,796.1,338.3,796.1z"/>
	<path class="st3" d="M491.2,796.1L491.2,796.1c-2.3,0-4.1-1.8-4.1-4.1V286.2c0-2.3,1.8-4.1,4.1-4.1l0,0c2.3,0,4.1,1.8,4.1,4.1V792
		C495.3,794.2,493.5,796.1,491.2,796.1z"/>
	<path class="st3" d="M644.1,796.1L644.1,796.1c-2.3,0-4.1-1.8-4.1-4.1V286.2c0-2.3,1.8-4.1,4.1-4.1l0,0c2.3,0,4.1,1.8,4.1,4.1V792
		C648.2,794.2,646.4,796.1,644.1,796.1z"/>
	<path class="st4" d="M815.7,790.3L815.7,790.3l-33-33c-1.6-1.6-4.2-1.6-5.8,0c-1.6,1.6-1.6,4.2,0,5.8l28.9,28.9H200.4V176.9
		c0-0.3,0-0.6-0.1-0.9l29.6,29.6c1.6,1.6,4.2,1.6,5.8,0l0,0c1.6-1.6,1.6-4.2,0-5.8l-33-33c-3.2-3.2-8.4-3.2-11.6,0v0l-33,33
		c-1.6,1.6-1.6,4.2,0,5.8s4.2,1.6,5.8,0l28.3-28.3V792h-17.1c-2.3,0-4.1,1.8-4.1,4.1v0c0,2.3,1.8,4.1,4.1,4.1h17.1v17.1
		c0,2.3,1.8,4.1,4.1,4.1s4.1-1.8,4.1-4.1v-17.1h605.4L776.9,829c-1.6,1.6-1.6,4.2,0,5.8h0c1.6,1.6,4.2,1.6,5.8,0l33-33
		C818.9,798.7,818.9,793.5,815.7,790.3z"/>
	<circle class="st5" cx="196.3" cy="796.1" r="16.9"/>
	<g class="st6">
		<circle class="st7" cx="773.4" cy="425.1" r="65.5"/>
		<line class="st8" x1="773.4" y1="455.4" x2="773.4" y2="394.7"/>
		<line class="st8" x1="743" y1="425.1" x2="803.8" y2="425.1"/>
	</g>
	<g class="st6">
		<circle class="st7" cx="718.9" cy="568.6" r="32.6"/>
		<line class="st8" x1="718.9" y1="583.8" x2="718.9" y2="553.5"/>
		<line class="st8" x1="703.8" y1="568.6" x2="734.1" y2="568.6"/>
	</g>
	<path class="st2" d="M801.4,322.1l9.2-124.7c0.1-1.1-1-1.8-2-1.4l-113.3,52.8c-1.3,0.6-0.9,2.6,0.5,2.7l51.3,2.2l-99,167.8l8.4,5.8
		l121.9-152l20.3,47.2C799.3,323.9,801.3,323.6,801.4,322.1z"/>
	<circle class="st9" cx="338.3" cy="495.2" r="17"/>
	<circle class="st9" cx="491.2" cy="532.8" r="17"/>
	<circle class="st9" cx="644.1" cy="433.9" r="17"/>
	<polyline class="st10" points="196.3,630.4 338.3,618.6 491.2,688.5 644.1,630.4 768.7,688.5 	"/>
	<polyline class="st10" points="196.3,731.4 338.3,685.5 491.2,740.9 644.1,731.4 768.7,717.7 	"/>
	<circle class="st11" cx="338.3" cy="618.6" r="9.4"/>
	<circle class="st11" cx="196.3" cy="630.4" r="9.4"/>
	<circle class="st11" cx="338.3" cy="685.5" r="9.4"/>
	<circle class="st11" cx="196.3" cy="731.4" r="9.4"/>
	<circle class="st11" cx="491.2" cy="688.5" r="9.4"/>
	<circle class="st11" cx="491.2" cy="740.9" r="9.4"/>
	<circle class="st11" cx="644.1" cy="630.4" r="9.4"/>
	<circle class="st11" cx="644.1" cy="731.4" r="9.4"/>
</g>
<g id="Слой_2" class="st0">
	<g class="st6">
		<path class="st12" d="M323.1,517H121.8c-15.1,0-27.3-12.2-27.3-27.3v-12.2c0-15.1,12.2-27.3,27.3-27.3h201.3
			c15.1,0,27.3,12.2,27.3,27.3v12.2C350.5,504.8,338.2,517,323.1,517z"/>
		<circle class="st13" cx="124.6" cy="483.6" r="8.3"/>
		<rect x="144" y="472.5" class="st13" width="12.5" height="19.4"/>
		<rect x="165" y="472.5" class="st13" width="43.7" height="19.4"/>
		<rect x="216.4" y="472.5" class="st13" width="43.6" height="19.4"/>
		<rect x="268" y="472.5" class="st13" width="27.9" height="19.4"/>
		<rect x="303.5" y="472.5" class="st13" width="27.9" height="19.4"/>
	</g>
	<g class="st6">
		<path class="st12" d="M354.2,597.4H152.9c-15.1,0-27.3-12.2-27.3-27.3v-12.2c0-15.1,12.2-27.3,27.3-27.3h201.3
			c15.1,0,27.3,12.2,27.3,27.3v12.2C381.5,585.2,369.3,597.4,354.2,597.4z"/>
		<circle class="st13" cx="155.6" cy="564" r="8.3"/>
		<rect x="175" y="552.9" class="st13" width="12.5" height="19.4"/>
		<rect x="196.1" y="552.9" class="st13" width="43.7" height="19.4"/>
		<rect x="247.4" y="552.9" class="st13" width="43.6" height="19.4"/>
		<rect x="299" y="552.9" class="st13" width="27.9" height="19.4"/>
		<rect x="334.5" y="552.9" class="st13" width="27.9" height="19.4"/>
	</g>
	<g class="st6">
		<path class="st12" d="M368.7,436.3H167.3c-15.1,0-27.3-12.2-27.3-27.3v-12.2c0-15.1,12.2-27.3,27.3-27.3h201.3
			c15.1,0,27.3,12.2,27.3,27.3V409C396,424.1,383.7,436.3,368.7,436.3z"/>
		<circle class="st13" cx="170.1" cy="402.9" r="8.3"/>
		<rect x="189.5" y="391.8" class="st13" width="12.5" height="19.4"/>
		<rect x="210.6" y="391.8" class="st13" width="43.7" height="19.4"/>
		<rect x="261.9" y="391.8" class="st13" width="43.6" height="19.4"/>
		<rect x="313.5" y="391.8" class="st13" width="27.9" height="19.4"/>
		<rect x="349" y="391.8" class="st13" width="27.9" height="19.4"/>
	</g>
	<g class="st6">
		<g class="st14">
			<path class="st15" d="M647.1,740.7l-8.6-32l0.2-0.9c0.2-0.7,0.1-1.5-0.4-2.1s-1.1-1-1.8-1.1c-8.9-0.8-18.2-2.3-27.7-4.3
				c-7.7-1.6-15.1-3.5-21.9-5.6c-0.2-0.1-0.5-0.1-0.7-0.1c-0.5,0-0.9,0.1-1.4,0.4c-0.6,0.4-1,1-1.1,1.8l0,0.4l-20.6,27.1l-21.5-8.9
				l2.8-34.7l0-0.1c0.5-0.6,0.7-1.3,0.6-2.1c-0.1-0.7-0.6-1.4-1.3-1.7c-13.2-7-26.1-15.6-38.4-25.4c-0.5-0.4-0.9-0.7-1.4-1.1
				c-0.6-0.5-1.2-0.9-1.8-1.4c-0.5-0.4-1-0.6-1.6-0.6c-0.1,0-0.3,0-0.4,0c-0.7,0.1-1.4,0.6-1.7,1.2l0,0c-0.2,0.2-0.5,0.4-0.6,0.6
				l-2.7,1.4c0,0-0.1,0-0.1,0.1L469.1,667l-17.8-17.8l16.6-28.7c0.2-0.2,0.5-0.4,0.6-0.6c0.7-0.3,1.1-1,1.3-1.7
				c0.2-0.7,0-1.5-0.5-2.1c-0.4-0.5-0.8-1-1.1-1.5c-0.3-0.4-0.6-0.8-1-1.2c-10-12.4-18.7-25.6-25.9-39.1c-0.3-0.7-1-1.1-1.7-1.3
				c-0.2,0-0.4-0.1-0.5-0.1c-0.5,0-1.1,0.2-1.5,0.5c0,0-0.5,0.3-0.5,0.4l-0.5,0.4l-7.5,0.6c-0.1,0-0.1,0-0.2,0l-25.4,3.5l-9.3-22.5
				c0-0.1-0.1-0.3-0.1-0.4c0,0,26.4-20.3,26.5-20.4l0.5-0.4l0.3,0c0.8-0.1,1.5-0.5,1.9-1.1c0.4-0.6,0.5-1.4,0.3-2.1
				c-2.4-8-4.5-16.2-6.1-24.4c-1.6-8.3-2.9-16.7-3.7-25c-0.1-0.7-0.5-1.4-1.1-1.8c-0.4-0.3-0.9-0.4-1.4-0.4c-0.2,0-0.4,0-0.6,0.1
				l0,0l-32.9-8.6v-23.1l32.9-10.6c0.2,0.1,0.5,0.1,0.7,0.1c0.5,0,1-0.1,1.4-0.4c0.6-0.4,1.1-1.1,1.1-1.9c0.6-6.2,1.5-12.8,2.8-20.1
				c1.8-10.2,4.1-20,6.9-29c0.2-0.7,0.1-1.5-0.3-2.1c-0.4-0.6-1.1-1-1.9-1.1l-0.9-0.1l-25.8-22.2l8.9-21.4l32.9,4.3l1,0.8
				c0.4,0.3,1,0.5,1.5,0.5c0.2,0,0.4,0,0.5-0.1c0.7-0.2,1.3-0.6,1.7-1.3c5.1-9.8,11.3-19.6,18.2-29.1c3.7-5.1,6.9-9.3,10-13.1
				c0.5-0.6,0.7-1.3,0.5-2c-0.1-0.7-0.6-1.4-1.2-1.7l0,0l-17.2-29.4l16.3-16.3l30.8,15.8c0.4,0.6,1,1.1,1.7,1.2
				c0.2,0,0.3,0.1,0.5,0.1c0.6,0,1.1-0.2,1.6-0.6c6.4-5.3,13.2-10.4,20.2-15c6.9-4.6,14.1-8.9,21.4-12.8c0.7-0.4,1.1-1,1.3-1.7
				c0.1-0.7-0.1-1.5-0.5-2.1L544,236l-2.5-33.7l21.4-8.9l20.4,26.5l0.1,0.7c0.1,0.7,0.5,1.4,1.1,1.8c0.4,0.3,0.9,0.4,1.3,0.4
				c0.2,0,0.5,0,0.7-0.1c16-5,32.8-8.3,49.8-9.9c0.7-0.1,1.4-0.5,1.8-1.1c0.4-0.6,0.6-1.4,0.4-2.1l0,0l8.6-32.9h23.1l10.6,32.9
				c-0.2,0.7-0.1,1.4,0.3,2c0.4,0.6,1.1,1,1.9,1.1c16.7,1.6,33.2,4.8,49.1,9.7c0.2,0.1,0.5,0.1,0.7,0.1c0.5,0,1-0.1,1.4-0.4
				c0.6-0.4,1-1.1,1.1-1.9l0-0.6l22-25.5l21.6,8.9l-4.3,33.1l-0.3,0.4c-0.4,0.6-0.6,1.3-0.4,2c0.2,0.7,0.6,1.3,1.3,1.7
				c7.4,3.9,14.6,8.2,21.6,12.9c7,4.7,13.9,9.8,20.3,15.1c0.5,0.4,1,0.6,1.6,0.6c0.1,0,0.3,0,0.4,0c0.7-0.1,1.4-0.6,1.7-1.2l0,0
				c0.2-0.2,0.5-0.4,0.6-0.6l2.7-1.4c0,0,0.1,0,0.1-0.1l25.9-15.2l17.8,17.8l-16.4,28.5c-0.3,0.2-0.6,0.5-0.8,0.8
				c-0.6,0.4-1.1,1-1.2,1.7c-0.2,0.7,0,1.5,0.5,2.1c10.8,13,20.2,27,28,41.7c0.4,0.7,1,1.1,1.7,1.3c0.2,0,0.3,0,0.5,0
				c0.6,0,1.2-0.2,1.6-0.6l0.3-0.2l33.6-2.5l8.9,21.4l-26.3,20.2l-0.5,0.1c-0.7,0.1-1.4,0.5-1.8,1.1c-0.4,0.6-0.5,1.4-0.3,2.1
				c4.9,16.1,8.3,32.7,9.8,49.3c0.1,1.3,1.2,2.3,2.5,2.3l1.2,0l32.4,10.7v23.1l-32,8.6l-0.9-0.2c-0.2-0.1-0.4-0.1-0.6-0.1
				c-0.5,0-1,0.2-1.4,0.5c-0.6,0.4-1,1.1-1.1,1.8c-1.6,17-4.9,33.7-9.8,49.7c-0.2,0.7-0.1,1.5,0.3,2.1c0.4,0.6,0.9,1,1.6,1.1
				l27.2,20.6l-8.8,21.3l-34.5-2.8c-0.4-0.3-0.9-0.5-1.5-0.5c-0.2,0-0.3,0-0.5,0c-0.7,0.1-1.4,0.6-1.7,1.3
				c-7.8,14.7-17.1,28.6-27.6,41.3c-0.8,1-0.8,2.4,0.2,3.4l0.8,0.8l15.4,30.5L850.2,667l-28.7-16.6l-0.5-0.8c-0.4-0.6-1-1.1-1.7-1.2
				c-0.1,0-0.3,0-0.4,0c-0.6,0-1.1,0.2-1.6,0.6c-3.5,2.9-7.5,6-12.1,9.3c-9.8,7.1-19.9,13.5-30,18.8c-0.7,0.3-1.1,1-1.3,1.7
				c-0.2,0.7,0,1.5,0.5,2.1l0.1,0.1l4.7,33.8l-21.3,8.8L735.1,697c-0.1-0.7-0.5-1.3-1.1-1.7c-0.4-0.3-0.9-0.4-1.4-0.4
				c-0.2,0-0.5,0-0.7,0.1c-7.9,2.4-16,4.4-24.1,6c-8.3,1.7-16.8,2.9-25.1,3.7c-0.8,0.1-1.4,0.5-1.9,1.1c-0.4,0.6-0.5,1.4-0.3,2.1
				l0.2,0.8l-10.6,32H647.1z M701.7,508.7c-0.6,0-1.1,0.2-1.6,0.6c-6.5,5.2-13.7,9-21.5,11.4c-1,0.3-1.8,1.3-1.8,2.4L676,658.6
				c0,0.7,0.3,1.4,0.8,1.9c0.5,0.4,1.1,0.7,1.7,0.7c0.1,0,0.2,0,0.2,0c54.1-5,102.9-30.9,137.7-72.9c0.5-0.5,0.6-1.3,0.5-2
				s-0.5-1.3-1.1-1.7l-112.7-75.4C702.7,508.8,702.2,508.7,701.7,508.7z M618.5,509.4c-0.5,0-1,0.1-1.4,0.4l-111.3,77.4
				c-0.6,0.4-1,1-1.1,1.7s0.1,1.4,0.6,1.9c33.9,39.6,81,64.4,132.6,69.9c0.1,0,0.2,0,0.3,0c0.6,0,1.2-0.2,1.7-0.6
				c0.5-0.5,0.8-1.1,0.8-1.8l0.9-135.6c0-1.1-0.7-2.1-1.7-2.4c-7.2-2.3-13.8-5.8-19.8-10.5C619.5,509.6,619,509.4,618.5,509.4z
				 M482.4,361.9c-0.2,0-0.4,0-0.6,0.1c-0.7,0.2-1.3,0.6-1.6,1.2c-15.6,29.2-23.8,62.2-23.8,95.5c0,34.5,8.8,68.7,25.5,98.7
				c0.3,0.6,0.9,1.1,1.6,1.2c0.2,0,0.4,0.1,0.6,0.1c0.5,0,1-0.2,1.4-0.4l111.3-77.4c0.9-0.6,1.3-1.8,1-2.8
				c-1.9-6.2-2.9-12.8-2.9-19.3c0-6.2,0.9-12.3,2.6-18.2c0.3-1-0.1-2.2-1-2.8l-112.7-75.4C483.3,362,482.9,361.9,482.4,361.9z
				 M835.2,358.7c-0.5,0-1,0.2-1.4,0.4l-111.3,77.4c-0.9,0.6-1.3,1.8-1,2.8c1.9,6.2,2.9,12.8,2.9,19.3c0,6.2-0.9,12.3-2.6,18.2
				c-0.3,1,0.1,2.2,1,2.8l112.7,75.4c0.4,0.3,0.9,0.4,1.4,0.4c0.2,0,0.4,0,0.6-0.1c0.7-0.2,1.3-0.6,1.6-1.2
				c15.6-29.2,23.8-62.2,23.8-95.5c0-34.5-8.8-68.7-25.5-98.7c-0.3-0.6-0.9-1.1-1.6-1.2C835.6,358.7,835.4,358.7,835.2,358.7z
				 M640.8,256.3c-0.1,0-0.2,0-0.2,0c-54.1,5-102.9,30.9-137.7,72.9c-0.5,0.5-0.6,1.3-0.5,2s0.5,1.3,1.1,1.7l112.7,75.4
				c0.4,0.3,0.9,0.4,1.4,0.4c0.6,0,1.1-0.2,1.6-0.6c6.5-5.2,13.7-9,21.5-11.4c1-0.3,1.8-1.3,1.8-2.4l0.9-135.6
				c0-0.7-0.3-1.4-0.8-1.9C642,256.6,641.4,256.3,640.8,256.3z M681.1,256.6c-0.6,0-1.2,0.2-1.7,0.6c-0.5,0.5-0.8,1.1-0.8,1.8
				l-0.9,135.6c0,1.1,0.7,2.1,1.7,2.4c7.2,2.3,13.8,5.8,19.8,10.5c0.4,0.3,1,0.5,1.5,0.5c0.5,0,1-0.1,1.4-0.4l111.3-77.4
				c0.6-0.4,1-1,1.1-1.7s-0.1-1.4-0.6-1.9c-33.9-39.6-81-64.4-132.6-69.9C681.3,256.6,681.2,256.6,681.1,256.6z"/>
		</g>
		<path class="st15" d="M649,179.2l19.3,0l9.8,30.6c-0.1,1.1,0.2,2.3,0.8,3.2c0.8,1.3,2.2,2.1,3.7,2.2c16.5,1.5,32.9,4.8,48.6,9.6
			c0.5,0.1,1,0.2,1.5,0.2c1,0,2-0.3,2.8-0.9c1.2-0.8,2-2.1,2.1-3.5l20.3-23.6l18.1,7.5l-4,30.5c-0.8,1.1-1.1,2.6-0.8,4
			c0.3,1.4,1.2,2.7,2.5,3.3c7.3,3.9,14.5,8.2,21.4,12.8c6.9,4.6,13.7,9.7,20.1,15c0.9,0.7,2,1.1,3.2,1.1c0.3,0,0.6,0,0.9-0.1
			c1.3-0.2,2.4-0.9,3.1-1.9c0.1-0.1,0.2-0.2,0.3-0.3l2.3-1.1c0.1,0,0.2-0.1,0.3-0.2l24.3-14.2l15,15L849.6,295
			c-0.2,0.2-0.5,0.4-0.7,0.7c-1,0.7-1.6,1.8-1.9,3c-0.3,1.5,0.1,3,1,4.2c10.7,12.9,20,26.8,27.7,41.3c0.7,1.3,2,2.3,3.5,2.6
			c0.3,0.1,0.6,0.1,0.9,0.1c1,0,2-0.3,2.8-0.9l31.1-2.3l7.4,17.9l-24.2,18.6c-1.4,0.2-2.6,1-3.4,2.2c-0.8,1.2-1,2.8-0.6,4.2
			c4.9,15.9,8.2,32.3,9.7,48.8c0.2,2.6,2.4,4.5,5,4.5l0.8,0l30.3,10v19.4l-29.5,7.9l-0.3-0.1c-0.4-0.1-0.8-0.2-1.3-0.2
			c-1,0-2,0.3-2.9,0.9c-1.2,0.8-2,2.2-2.1,3.6c-1.6,16.8-4.9,33.4-9.7,49.2c-0.4,1.4-0.2,2.9,0.6,4.2c0.6,0.9,1.5,1.7,2.6,2
			l25.2,19.1l-7.4,17.9l-32.1-2.6c-0.7-0.3-1.4-0.5-2.2-0.5c-0.3,0-0.6,0-0.9,0.1c-1.5,0.3-2.8,1.2-3.5,2.6
			c-7.7,14.5-16.9,28.3-27.4,40.9c-1.6,2-1.5,4.9,0.3,6.7l0.6,0.6l14.4,28.5l-13.7,13.7l-26.5-15.3l-0.1-0.2c-0.7-1.3-2-2.1-3.4-2.4
			c-0.3-0.1-0.6-0.1-0.9-0.1c-1.2,0-2.3,0.4-3.2,1.2c-3.5,2.9-7.4,5.9-12,9.3c-9.7,7.1-19.7,13.3-29.7,18.7
			c-1.3,0.7-2.2,1.9-2.5,3.4c-0.3,1.2-0.1,2.5,0.6,3.6l4.3,31.3l-17.9,7.4l-21-24.7c-0.3-1-1-2-1.9-2.6c-0.8-0.6-1.8-0.9-2.8-0.9
			c-0.5,0-1,0.1-1.5,0.2c-7.8,2.4-15.8,4.4-23.9,6c-8.3,1.6-16.6,2.9-24.9,3.6c-1.5,0.1-2.9,1-3.7,2.2c-0.8,1.3-1.1,2.8-0.6,4.3
			l-1.1,3.3l-8.6,26.2H649l-7.9-29.5l0.1-0.3c0.4-1.4,0.1-2.9-0.7-4.1c-0.8-1.2-2.2-2-3.6-2.1c-8.8-0.8-18-2.2-27.4-4.2
			c-7.8-1.6-14.8-3.4-21.6-5.5c-0.5-0.1-1-0.2-1.5-0.2c-0.9,0-1.9,0.3-2.7,0.8c-1.2,0.7-1.9,1.9-2.2,3.3l-19,25.1l-18.1-7.5
			l2.6-32.2c0.6-1,0.9-2.3,0.6-3.5c-0.3-1.5-1.2-2.8-2.6-3.5c-13.1-7-25.9-15.4-38-25.1c-0.5-0.4-0.9-0.7-1.4-1.1
			c-0.6-0.5-1.2-0.9-1.7-1.3c-0.9-0.7-2-1.1-3.2-1.1c-0.3,0-0.6,0-0.9,0.1c-1.3,0.2-2.4,0.9-3.2,2c-0.1,0.1-0.2,0.2-0.3,0.3
			l-2.3,1.1c-0.1,0-0.2,0.1-0.3,0.2l-24.3,14.2l-15-15l15.4-26.7c0.1-0.1,0.2-0.2,0.3-0.3c1.1-0.7,1.8-1.8,2.1-3.1
			c0.3-1.5-0.1-3-1-4.2c-0.4-0.4-0.7-0.9-1.1-1.4c-0.3-0.4-0.7-0.9-1-1.3c-9.9-12.3-18.5-25.3-25.6-38.7c-0.7-1.3-1.9-2.2-3.4-2.5
			c-0.4-0.1-0.7-0.1-1.1-0.1c-1.1,0-2.2,0.4-3.1,1l-0.4,0.3c0,0,0,0-0.1,0l-6.7,0.5c-0.1,0-0.2,0-0.3,0l-23.5,3.2l-8-19.3l24.9-19.2
			c0,0,0.1-0.1,0.1-0.1c1.3-0.2,2.4-1,3.2-2.1c0.9-1.3,1.1-2.8,0.7-4.3c-2.4-7.9-4.5-16-6.1-24.2c-1.6-8.2-2.8-16.5-3.6-24.7
			c-0.1-1.5-0.9-2.8-2.1-3.6c-0.8-0.6-1.8-0.9-2.9-0.9c-0.2,0-0.4,0-0.6,0l-30.5-8l0-19.3l23.4-7.5l7.3-2.3c0.2,0,0.3,0,0.5,0
			c1,0,1.9-0.3,2.7-0.8c1.3-0.8,2.1-2.2,2.2-3.7c0.6-6.1,1.5-12.6,2.8-19.9c1.8-10.1,4.1-19.8,6.8-28.7c0.4-1.4,0.2-3-0.6-4.3
			c-0.9-1.3-2.2-2.1-3.7-2.2l-0.1,0l-23.8-20.5l7.5-18l30.3,4l0.5,0.4c0.9,0.7,1.9,1,3,1c0.4,0,0.7,0,1.1-0.1
			c1.4-0.3,2.7-1.3,3.3-2.5c5.1-9.7,11.2-19.4,18-28.8c3.7-5.1,6.8-9.2,9.9-12.9c0.9-1.1,1.3-2.6,1.1-4.1c-0.2-1.2-0.9-2.3-1.8-3
			l-11.7-20l-4.2-7.2l13.7-13.7l28.6,14.7c0.7,0.9,1.7,1.5,2.8,1.7c0.3,0.1,0.7,0.1,1,0.1c1.2,0,2.3-0.4,3.2-1.1
			c6.3-5.2,13.1-10.3,20-14.9c6.8-4.6,14-8.8,21.2-12.7c1.3-0.7,2.3-2,2.6-3.5c0.3-1.5-0.1-3-1.1-4.2l0,0l-2.3-31.1l17.9-7.4
			l18.8,24.5l0,0c0.2,1.5,1,2.7,2.3,3.5c0.8,0.5,1.7,0.8,2.7,0.8c0.5,0,1-0.1,1.5-0.2c15.9-4.9,32.4-8.2,49.3-9.8
			c1.5-0.1,2.8-0.9,3.6-2.1c0.7-1,1-2.2,0.9-3.4l4.3-16.5L649,179.2 M617.5,411.3c1.1,0,2.2-0.4,3.1-1.1c6.2-5,13.2-8.7,20.7-11
			c2.1-0.6,3.5-2.6,3.5-4.7l0.9-135.6c0-1.4-0.6-2.8-1.6-3.7c-0.9-0.8-2.1-1.3-3.4-1.3c-0.2,0-0.3,0-0.5,0
			c-54.7,5.1-104.2,31.3-139.4,73.8c-0.9,1.1-1.3,2.5-1.1,3.9c0.2,1.4,1,2.6,2.2,3.4l112.7,75.4C615.6,411,616.5,411.3,617.5,411.3
			 M700.8,410.5c1,0,2-0.3,2.9-0.9L815,332.2c1.2-0.8,1.9-2.1,2.1-3.5c0.2-1.4-0.2-2.8-1.2-3.9c-34.3-40.1-82-65.2-134.2-70.7
			c-0.2,0-0.4,0-0.5,0c-1.2,0-2.4,0.4-3.3,1.3c-1.1,0.9-1.7,2.3-1.7,3.7l-0.9,135.6c0,2.2,1.4,4.1,3.5,4.8c6.9,2.2,13.3,5.6,19,10.1
			C698.6,410.2,699.7,410.5,700.8,410.5 M836.9,558.1c0.4,0,0.8,0,1.2-0.2c1.4-0.3,2.5-1.3,3.2-2.5c15.8-29.6,24.1-63,24.1-96.7
			c0-35-8.9-69.5-25.9-99.9c-0.7-1.2-1.9-2.1-3.2-2.4c-0.4-0.1-0.8-0.1-1.1-0.1c-1,0-2,0.3-2.9,0.9L721,434.5
			c-1.8,1.2-2.6,3.5-1.9,5.6c1.9,6,2.8,12.3,2.8,18.6c0,5.9-0.8,11.8-2.5,17.5c-0.6,2.1,0.2,4.3,2,5.6l112.7,75.4
			C834.9,557.8,835.9,558.1,836.9,558.1 M484.1,561.2c1,0,2-0.3,2.9-0.9l111.3-77.4c1.8-1.2,2.6-3.5,1.9-5.6
			c-1.9-6-2.8-12.3-2.8-18.6c0-5.9,0.8-11.8,2.5-17.5c0.6-2.1-0.2-4.3-2-5.6l-112.7-75.4c-0.8-0.6-1.8-0.8-2.8-0.8
			c-0.4,0-0.8,0-1.2,0.1c-1.4,0.3-2.5,1.3-3.2,2.5c-15.8,29.6-24.1,63-24.1,96.7c0,35,8.9,69.5,25.9,99.9c0.7,1.2,1.9,2.1,3.2,2.4
			C483.3,561.2,483.7,561.2,484.1,561.2 M678.5,663.6c0.2,0,0.3,0,0.5,0c54.7-5.1,104.2-31.3,139.4-73.8c0.9-1.1,1.3-2.5,1.1-3.9
			c-0.2-1.4-1-2.6-2.2-3.4L704.5,507c-0.8-0.6-1.8-0.8-2.8-0.8c-1.1,0-2.2,0.4-3.1,1.1c-6.2,5-13.2,8.7-20.7,11
			c-2.1,0.6-3.5,2.6-3.5,4.7l-0.9,135.6c0,1.4,0.6,2.8,1.6,3.7C676,663.1,677.2,663.6,678.5,663.6 M638.1,663.3
			c1.2,0,2.4-0.4,3.3-1.3c1.1-0.9,1.7-2.3,1.7-3.7l0.9-135.6c0-2.2-1.4-4.1-3.5-4.8c-6.9-2.2-13.3-5.6-19-10.1c-0.9-0.7-2-1-3.1-1
			c-1,0-2,0.3-2.9,0.9l-111.3,77.4c-1.2,0.8-1.9,2.1-2.1,3.5c-0.2,1.4,0.2,2.8,1.2,3.9c34.3,40.1,82,65.2,134.2,70.7
			C637.8,663.3,637.9,663.3,638.1,663.3 M380.1,446.4L380.1,446.4L380.1,446.4 M645.1,174.2l-4.6,17.7l-4.6,17.7l0.2,0.7
			c-17.3,1.6-34.2,5-50.3,10l-0.2-1.3l-0.2-0.2l0,0l-21.8-28.3l-24.8,10.3l2.7,36.2l0.2,0.2l0,0.1l0.9,1.1
			c-7.4,3.9-14.6,8.2-21.6,12.9c-7.1,4.7-13.9,9.8-20.4,15.2l-0.3-0.6l-33.1-17l-19,19l6.2,10.5l12.3,21.1l0.6,0.3
			c-3.5,4.3-6.9,8.7-10.1,13.2c-6.9,9.5-13,19.3-18.4,29.4l-1.5-1.2l-35.4-4.6l-10.3,24.8l0.2,0.2l0,0.1l27.5,23.7l1.7,0.1
			c-2.9,9.5-5.2,19.3-7,29.3c-1.2,6.8-2.2,13.5-2.9,20.3l-0.2-0.1l-0.5-0.2h0l-8.6,2.8l-26.8,8.6l0,26.8h0v0l35.5,9.3h0h0l0.2,0
			l0.5-0.1c0.8,8.4,2,16.9,3.7,25.2c1.7,8.4,3.7,16.6,6.2,24.6l-1.1,0.1l-1.1,1L391,554.6l0.7,1.6l0,0l10.3,24.8l27.3-3.8l8.3-0.6
			l1.1-1l0.4-0.3c7.3,13.8,16.1,27,26.2,39.5c0.7,0.9,1.4,1.8,2.1,2.7l-0.6,0.3l-0.2,0.4l-0.5,0.3l-17.8,31l1.5,1.5l19,19l27.6-16.1
			l3.4-1.7l0.2-0.4l0.5-0.3l0.3-0.6c1,0.9,2.1,1.7,3.2,2.5c12.3,9.9,25.2,18.5,38.8,25.6l-0.6,0.7l-3,37.1l0.2,0.1l0,0.2l24.8,10.3
			l22.1-29.2l0.1-1c7.2,2.2,14.6,4.1,22.1,5.6c9.3,1.9,18.6,3.4,28,4.3l-0.1,0.5l-0.3,1.1v0l9.3,34.5H672h0l9.8-29.6l1.6-4.9v0
			l-0.2-0.8l-0.2-0.8c8.5-0.8,17-2,25.4-3.7c8.3-1.6,16.4-3.7,24.4-6.1l0,0.6l0.2,0.2l0,0.1l24.1,28.4l24.8-10.3l-5-36.3l-0.2-0.2
			l0,0l-0.3-0.4c10.5-5.5,20.6-11.9,30.3-19c4.2-3,8.3-6.2,12.2-9.4l0.8,1.4l31,17.8l19-19l-16.3-32.5l-1.1-1.1
			c10.6-12.9,20-26.8,27.9-41.7l0.5,0.4l37.1,3l10.3-24.8l-29.2-22.1l-0.5-0.1c5-16.1,8.3-32.9,9.9-50.2l1.6,0.4l34.5-9.3v-26.8h0v0
			L909.6,435l-1.6,0c-1.6-16.8-4.9-33.5-9.9-49.8l1.2-0.2l28.3-21.8l-10.3-24.8l-36.2,2.7l-0.9,0.8c-7.8-14.8-17.3-28.9-28.3-42.2
			l0.6-0.3l0.3-0.6l0.4-0.1l17.8-31l-1.5-1.5l-19-19L823,263.4l-3.4,1.7l-0.2,0.4l-0.5,0.3l-0.3,0.6c-6.6-5.4-13.4-10.5-20.5-15.3
			c-7.1-4.8-14.4-9.1-21.8-13l0.7-0.9l4.6-35.4l-0.2-0.1l0-0.2l-24.8-10.3l-23.7,27.5l-0.1,1.4c-15.9-4.9-32.5-8.2-49.6-9.8l0.2-0.7
			L672,174.2L645.1,174.2L645.1,174.2z M617.5,406.3l-112.7-75.4c33.1-40,81.4-67,136-72l-0.9,135.6
			C631.6,396.9,624.1,401,617.5,406.3L617.5,406.3z M700.8,405.5c-6.1-4.7-13-8.4-20.6-10.9l0.9-135.6c52.3,5.6,98.5,31.2,131,69
			L700.8,405.5L700.8,405.5z M836.9,553.1l-112.7-75.4c1.8-6,2.7-12.4,2.7-18.9c0-7-1.1-13.7-3.1-20.1l111.3-77.4
			c16.1,28.9,25.2,62.1,25.2,97.5C860.4,492.8,851.9,524.9,836.9,553.1L836.9,553.1z M484.1,556.2c-16.1-28.9-25.2-62.1-25.2-97.5
			c0-34.1,8.5-66.2,23.5-94.3l112.7,75.4c-1.8,6-2.7,12.4-2.7,18.9c0,7,1.1,13.7,3.1,20.1L484.1,556.2L484.1,556.2z M678.5,658.6
			l0.9-135.6c8.2-2.5,15.8-6.6,22.4-11.9l112.7,75.4C781.4,626.6,733.1,653.5,678.5,658.6L678.5,658.6z M638.1,658.3
			c-52.3-5.6-98.5-31.2-131-69l111.3-77.4c6.1,4.7,13,8.4,20.6,10.9L638.1,658.3L638.1,658.3z"/>
	</g>
	<g class="st6">
		<circle class="st16" cx="309.7" cy="323.9" r="34.3"/>
		<line class="st17" x1="309.7" y1="344.8" x2="309.7" y2="302.9"/>
		<line class="st17" x1="288.8" y1="323.9" x2="330.7" y2="323.9"/>
	</g>
	<g class="st6">
		<circle class="st16" cx="116.3" cy="598.3" r="34.3"/>
		<line class="st17" x1="116.3" y1="619.3" x2="116.3" y2="577.4"/>
		<line class="st17" x1="95.3" y1="598.3" x2="137.2" y2="598.3"/>
	</g>
	<path class="st18" d="M694.7,487.4c-79.4-36.5-278.2,67.6-278.2,67.6s-119.4,67-137.6,95.9c-18.2,28.8,20,19.4,38.2,11.8
		c18.2-7.6,50.4-23.5,40.6,4.1c-9.3,26.2-106.4,86.4-107.6,53.5c-1.2-32.9-94.1,40-117,111.7S284,867.5,462,780.7
		C669.4,679.5,774.1,523.9,694.7,487.4z M219.7,791.7c-16.7,15-34.8,22-40.4,15.7c-5.6-6.3,3.3-23.5,20-38.5s34.8-22,40.4-15.7
		C245.3,759.5,236.4,776.7,219.7,791.7z"/>
	<path class="st3" d="M625.3,594.2c-4.7-5.9-18.2-3.3-33.3,5.4c-3-1.7-6.5-2.8-10.3-2.8c-11.4,0-20.6,9.2-20.6,20.6
		c0,2.5,0.5,4.8,1.2,7c-9.2,11.1-13.1,21.6-9,26.8c6.1,7.6,27.1,1.1,46.9-14.7C620.2,620.8,631.4,601.8,625.3,594.2z"/>
	<path class="st4" d="M514.7,690.8c-0.9-1.8-2.5-3.2-4.8-4c-4.8-8.2-12.7-13.5-21.7-13.5c-12.9,0-23.7,11.1-26,25.8
		c-14.3,9.2-22.6,20.4-19.3,27.2c4,8.2,23.3,6.8,43.1-2.9C505.9,713.5,518.7,699,514.7,690.8z"/>
	<path class="st5" d="M670.3,523c-1-2-2.8-3.5-5.3-4.5c-5.3-9.1-14.2-15.1-24.2-15.1c-14.4,0-26.4,12.4-29,28.8
		c-16,10.3-25.3,22.8-21.5,30.4c4.5,9.1,26.1,7.6,48.2-3.3C660.5,548.3,674.8,532.1,670.3,523z"/>
	<path class="st11" d="M527.8,517.6c-5.5-6.9-16.8-9.5-27.8-5.6c-11.5,4-18.8,13.7-18.2,22.9c-9.9,6.4-15.4,13-13.7,17.8
		c2.8,7.9,24.4,7.5,48.3-0.9c23.9-8.4,41-21.6,38.3-29.5C552.8,516.9,542.1,515.4,527.8,517.6z"/>
	<path class="st2" d="M371.9,755.1c-5.7-5.8-16.2-7.1-25.8-2.6c-10,4.7-15.8,14.1-14.4,22.5c-8.4,6.7-12.8,13.2-10.9,17.4
		c3.2,6.9,22.8,4.6,43.8-5.2c21-9.8,35.3-23.4,32.1-30.3C394.5,752.1,384.6,751.7,371.9,755.1z"/>
	<path class="st4" d="M551.8,476.8c0,0,66.7-16.6,71.7,21.6c5,38.1-26.3,71.4-51.8,77.6l5.1-14.1l-25,19.6c0,0,32.1-39.3,27.8-47.3
		s-26.9-13.9-33.7-26.4C541.2,499.2,551.8,476.8,551.8,476.8z"/>
	<g class="st6">
		<path class="st19" d="M233.1,169.6c-3.3-3.4-3.4-8.8-0.2-12c1.5-1.5,3.6-2.4,5.8-2.4c2.3,0,4.5,0.9,6.2,2.6l273.7,265.6
			l-20.1,20.1L233.1,169.6z"/>
		<path class="st13" d="M238.7,157.7L238.7,157.7c1.7,0,3.2,0.7,4.5,1.9L515,423.4l-16.5,16.5L234.9,167.8c-2.4-2.4-2.5-6.2-0.2-8.5
			C235.7,158.3,237.1,157.7,238.7,157.7 M238.7,152.7c-2.8,0-5.5,1-7.5,3.1c-4.2,4.2-4.1,11.1,0.2,15.5l267.1,275.7l23.7-23.7
			L246.6,156C244.4,153.8,241.5,152.7,238.7,152.7L238.7,152.7z"/>
	</g>
	<path class="st3" d="M561.4,462.6l-59.7-59.7l-0.1,0.1c5.1,6.6,4.7,16.1-1.4,22.1s-15.6,6.5-22.1,1.4l-0.1,0.1l59.7,59.7
		c6.5,6.5,17.2,6.5,23.7,0C567.9,479.8,567.9,469.2,561.4,462.6z"/>
	<line class="st20" x1="502.7" y1="427.7" x2="557.1" y2="482.1"/>
	<circle class="st21" cx="579.7" cy="605.9" r="2.9"/>
	<circle class="st21" cx="495.6" cy="702.4" r="4.4"/>
	<circle class="st21" cx="350.6" cy="763.8" r="6.8"/>
	<circle class="st21" cx="506.6" cy="526.7" r="4.7"/>
	
		<ellipse transform="matrix(0.2842 -0.9588 0.9588 0.2842 -43.8389 989.8273)" class="st21" cx="641" cy="524.3" rx="11.2" ry="4.5"/>
	<circle class="st21" cx="357.4" cy="770.6" r="3.5"/>
</g>
<g id="Слой_6" class="st0">
	<path class="st22" d="M911.9,586.3l6.2-94L666,475.6l-6.2,94c-17.7-1.2-33.1,12.2-34.2,30c-1.2,17.7,12.2,33.1,30,34.2l-6.2,94
		l252.2,16.7l6.2-94c17.7,1.2,33.1-12.2,34.2-30S929.7,587.5,911.9,586.3z"/>
	<g class="st6">
		<path class="st15" d="M295.2,592c0.5,2.5,0.7,5.1,0.7,7.8c0,23.2-18.8,42-42,42c-23.2,0-42-18.8-42-42s18.8-42,42-42
			c11.6,0,22.1,4.7,29.7,12.3l8.6-8.6c-9.8-9.8-23.3-15.9-38.3-15.9c-29.9,0-54.2,24.2-54.2,54.2c0,29.9,24.2,54.2,54.2,54.2
			c29.9,0,54.2-24.2,54.2-54.2c0-2.7-0.2-5.3-0.6-7.8L295.2,592z"/>
		<g>
			<path class="st15" d="M255.5,592v12.8H324c0.2-4.3,0.4-8.6,0.6-12.8H255.5z"/>
		</g>
		
			<ellipse transform="matrix(0.7071 -0.7071 0.7071 0.7071 -349.7628 355.272)" class="st19" cx="254" cy="599.8" rx="12.8" ry="12.8"/>
		<path class="st23" d="M335.1,602.9l11.8-3.1l-0.7-7.6l-8.5,0l-14.1-0.2h-0.3l0,0.2l0,0c0.1,0.6,0.1,1.1,0.2,1.7
			c3.3,38.4-25.2,72.3-63.6,75.6c-38.4,3.3-72.3-25.2-75.6-63.6c-3.3-38.4,25.2-72.3,63.6-75.6c21.2-1.8,41,6.1,55.1,20l16.4-16.4
			l-12.2-10.3l-9.4,8c-3.3-2.1-6.8-4-10.4-5.7l1.7-12.3l-15.2-4.8l-5.7,11.1c-3.7-0.7-7.4-1.1-11.2-1.2l-3.2-12.2l-15.9,1.4l-1,12.6
			c-4,0.8-7.9,2-11.6,3.4l-7.7-10.2l-14.2,7.4l4,12.3c-3.1,2.2-6.1,4.6-8.9,7.2l-11.2-6.6l-10.3,12.2l8.5,9.9c-2,3.2-3.9,6.5-5.5,10
			l-12.9-1.8l-4.8,15.2l11.7,5.9c-0.7,3.7-1.1,7.5-1.2,11.3l-12.7,3.3l1.4,15.9l13.1,1c0.8,3.7,1.8,7.4,3.1,10.9l-10.4,7.9l7.4,14.2
			l12.4-4c2.2,3.1,4.5,6.1,7.1,8.9l-6.6,11.3l12.2,10.3l9.8-8.4c3.2,2.1,6.5,4,10,5.6l-1.8,12.8l15.2,4.8l5.8-11.4
			c3.9,0.7,7.9,1.2,12,1.4l3.2,12.2l15.9-1.4l1-12.6c3.7-0.8,7.3-1.8,10.8-3.1l7.5,10l14.2-7.4l-3.8-11.8c3.3-2.2,6.4-4.7,9.3-7.4
			l10.7,6.3l10.3-12.2l-8-9.3c2.2-3.3,4.1-6.8,5.8-10.4l12.1,1.7l4.8-15.2l-10.8-5.5C334.5,610.9,335,606.9,335.1,602.9z"/>
		<g>
			<path class="st19" d="M192.3,698.6L192.3,698.6c-7.9-4.4-9.7-16.1-9.7-16.1l0,0c-1.2-3.8-3.7-6.9-7.3-8.4
				c-7.2-3-16,1.6-19.6,10.3c-3.6,8.7-0.7,18.2,6.5,21.2c2.9,1.2,6,1.2,9,0.1c11.5-2.4,17.7,0.6,19.8,2c0.3,0.2,0.5,0.4,0.8,0.6
				c0,0,0,0,0,0l0,0c1,0.6,2.3,0.9,3.6,0.6c2.7-0.6,4.4-3.3,3.8-6c-0.1-0.2-0.1-0.5-0.2-0.7C197.1,701.3,194.5,700.2,192.3,698.6z"
				/>
			<path class="st19" d="M197.2,707.4l-4.9-2.7l57-102.3l5.8,3.2L198.6,707C198.3,707.5,197.7,707.7,197.2,707.4z"/>
		</g>
	</g>
	<path class="st24" d="M370.8,567.9v-98.4h-99.3c0-0.3,0-0.6,0-0.9c0-18.6-15.1-33.6-33.6-33.6c-18.6,0-33.6,15.1-33.6,33.6
		c0,0.3,0,0.6,0,0.9h-97.6v264.2h264.2v-98.4c18.6,0,33.6-15.1,33.6-33.6S389.4,567.9,370.8,567.9z"/>
	<g class="st6">
		<path class="st15" d="M282,592c0.5,2.5,0.7,5.1,0.7,7.8c0,23.2-18.8,42-42,42c-23.2,0-42-18.8-42-42s18.8-42,42-42
			c11.6,0,22.1,4.7,29.7,12.3l8.6-8.6c-9.8-9.8-23.3-15.9-38.3-15.9c-29.9,0-54.2,24.2-54.2,54.2c0,29.9,24.2,54.2,54.2,54.2
			c29.9,0,54.2-24.2,54.2-54.2c0-2.7-0.2-5.3-0.6-7.8L282,592z"/>
		<g>
			<path class="st15" d="M242.3,592v12.8h68.5c0.2-4.3,0.4-8.6,0.6-12.8H242.3z"/>
		</g>
		
			<ellipse transform="matrix(0.7071 -0.7071 0.7071 0.7071 -353.6443 345.9015)" class="st19" cx="240.7" cy="599.8" rx="12.8" ry="12.8"/>
		<path class="st23" d="M321.9,602.9l11.8-3.1l-0.7-7.6l-8.5,0l-14.1-0.2h-0.3l0,0.2l0,0c0.1,0.6,0.1,1.1,0.2,1.7
			c3.3,38.4-25.2,72.3-63.6,75.6c-38.4,3.3-72.3-25.2-75.6-63.6c-3.3-38.4,25.2-72.3,63.6-75.6c21.2-1.8,41,6.1,55.1,20l16.4-16.4
			L294,523.5l-9.4,8c-3.3-2.1-6.8-4-10.4-5.7l1.7-12.3l-15.2-4.8l-5.7,11.1c-3.7-0.7-7.4-1.1-11.2-1.2l-3.2-12.2l-15.9,1.4l-1,12.6
			c-4,0.8-7.9,2-11.6,3.4l-7.7-10.2l-14.2,7.4l4,12.3c-3.1,2.2-6.1,4.6-8.9,7.2l-11.2-6.6l-10.3,12.2l8.5,9.9c-2,3.2-3.9,6.5-5.5,10
			l-12.9-1.8l-4.8,15.2l11.7,5.9c-0.7,3.7-1.1,7.5-1.2,11.3l-12.7,3.3l1.4,15.9l13.1,1c0.8,3.7,1.8,7.4,3.1,10.9l-10.4,7.9l7.4,14.2
			l12.4-4c2.2,3.1,4.5,6.1,7.1,8.9l-6.6,11.3l12.2,10.3l9.8-8.4c3.2,2.1,6.5,4,10,5.6l-1.8,12.8l15.2,4.8l5.8-11.4
			c3.9,0.7,7.9,1.2,12,1.4l3.2,12.2l15.9-1.4l1-12.6c3.7-0.8,7.3-1.8,10.8-3.1l7.5,10l14.2-7.4l-3.8-11.8c3.3-2.2,6.4-4.7,9.3-7.4
			l10.7,6.3l10.3-12.2l-8-9.3c2.2-3.3,4.1-6.8,5.8-10.4l12.1,1.7l4.8-15.2l-10.8-5.5C321.3,610.9,321.7,606.9,321.9,602.9z"/>
		<g>
			<path class="st19" d="M179.1,698.6L179.1,698.6c-7.9-4.4-9.7-16.1-9.7-16.1l0,0c-1.2-3.8-3.7-6.9-7.3-8.4
				c-7.2-3-16,1.6-19.6,10.3c-3.6,8.7-0.7,18.2,6.5,21.2c2.9,1.2,6,1.2,9,0.1c11.5-2.4,17.7,0.6,19.8,2c0.3,0.2,0.5,0.4,0.8,0.6
				c0,0,0,0,0,0l0,0c1,0.6,2.3,0.9,3.6,0.6c2.7-0.6,4.4-3.3,3.8-6c-0.1-0.2-0.1-0.5-0.2-0.7C183.8,701.3,181.3,700.2,179.1,698.6z"
				/>
			<path class="st19" d="M184,707.4l-4.9-2.7l57-102.3l5.8,3.2L185.3,707C185.1,707.5,184.5,707.7,184,707.4z"/>
		</g>
	</g>
	<path class="st18" d="M632.7,289.7l-5-91.9l-91.9,5c-0.9-17.3-15.8-30.6-33.1-29.7c-17.3,0.9-30.6,15.8-29.7,33.1l-91.9,5
		l13.5,246.6l91.9-5c0.9,17.3,15.8,30.6,33.1,29.7c17.3-0.9,30.6-15.8,29.7-33.1l91.9-5l-5-91.9c17.3-0.9,30.6-15.8,29.7-33.1
		C664.9,302,650.1,288.7,632.7,289.7z"/>
	<path class="st25" d="M516.1,503.1c-18.6,0-33.6-15.1-33.6-33.6H384v98.4c18.6,0,33.6,15.1,33.6,33.6s-15.1,33.6-33.6,33.6v98.4
		h98.4c0,18.6,15.1,33.6,33.6,33.6c18.6,0,33.6-15.1,33.6-33.6h98.4v-98.4c-18.6,0-33.6-15.1-33.6-33.6s15.1-33.6,33.6-33.6v-98.4
		h-98.4C549.8,488,534.7,503.1,516.1,503.1z"/>
	<g class="st6">
		<path class="st19" d="M522.1,244.2c0.8,0,1.5,0.3,2,0.8c1.1,1,2.3,2,3.4,3c0.2,0.2,0.5,0.3,0.8,0.2c0.7-0.3,1.5-0.6,2.2-0.8
			c0.3-0.1,0.4-0.3,0.5-0.6c0.2-1.2,0.5-2.3,0.8-3.5c0.6-2.3,1.2-2.9,3.5-2.7c1.8,0.1,3.7,0.3,5.5,0.6c0.4,0,0.8,0.2,1.2,0.4
			c0.7,0.4,1.2,0.9,1.2,1.8c0,1.5,0.1,3,0.2,4.5c0,0.3,0.1,0.6,0.5,0.7c0.7,0.3,1.3,0.6,2,0.9c0.4,0.2,0.8,0.2,1.2-0.1
			c1.1-0.7,2.2-1.4,3.4-2.1c1.3-0.7,2-0.7,3.1,0.2c1.8,1.6,3.4,3.4,4.6,5.5c0.5,0.8,0.5,1.5-0.1,2.2c-0.9,1.2-1.8,2.3-2.8,3.4
			c-0.6,0.7-0.8,1.2-0.4,2.1c0.3,0.6,0.3,1.4,0.7,1.8c0.4,0.4,1.2,0.3,1.8,0.5c1.1,0.3,2.2,0.6,3.3,0.8c1,0.2,1.4,0.9,1.5,1.8
			c0.3,2.6,0,5.2-0.6,7.8c-0.2,0.9-0.9,1.3-1.7,1.4c-1.6,0.1-3.2,0.3-4.8,0.3c-0.4,0-0.7,0.1-0.8,0.5c-0.3,0.6-0.6,1.2-0.9,1.8
			c-0.2,0.3-0.2,0.6,0,0.9c0.8,1.3,1.6,2.7,2.5,4c0.6,1,0.5,2-0.3,2.8c-1.5,1.7-3.2,3.2-5.2,4.4c-1.1,0.7-1.9,0.7-3-0.1
			c-1.1-0.9-2.2-1.9-3.3-2.8c-0.4-0.3-0.7-0.4-1.2-0.2c-0.7,0.3-1.4,0.5-2.1,0.8c-0.2,0.1-0.3,0.3-0.3,0.5c-0.3,1.2-0.5,2.4-0.8,3.6
			c-0.1,0.3-0.2,0.6-0.3,1c-0.3,1-1,1.5-2,1.6c-2.5,0.2-5-0.1-7.5-0.7c-1.1-0.3-1.4-1.1-1.5-2.1c-0.1-1.5-0.2-3-0.3-4.5
			c0-0.3-0.1-0.5-0.4-0.6c-0.7-0.3-1.4-0.7-2.1-1.1c-0.3-0.2-0.5-0.1-0.8,0c-1.3,0.8-2.5,1.6-3.8,2.4c-1.3,0.8-2,0.7-3.1-0.3
			c-1.8-1.6-3.3-3.4-4.5-5.5c-0.5-0.8-0.5-1.6,0.1-2.3c0.9-1.2,1.9-2.3,2.9-3.4c0.5-0.6,0.7-1,0.4-1.7c-0.2-0.5-0.4-1-0.5-1.6
			c-0.1-0.3-0.3-0.5-0.6-0.5c-1.5-0.3-2.9-0.6-4.4-1c-1.6-0.4-2-1-2-2.6c-0.1-2.2,0.2-4.3,0.6-6.5c0.2-1.1,0.8-1.8,2-1.9
			c1.6-0.1,3.1-0.2,4.7-0.3c0.4,0,0.6-0.1,0.8-0.5c0.3-0.7,0.6-1.3,0.9-2c0.2-0.3,0.1-0.6-0.1-1c-0.8-1.2-1.5-2.4-2.2-3.6
			c-0.7-1.3-0.7-1.9,0.3-3.1c1.6-1.9,3.5-3.4,5.6-4.7c0.1,0,0.1-0.1,0.2-0.2C521.9,244.2,522,244.2,522.1,244.2z M536.1,245
			c-0.1,0.3-0.1,0.6-0.2,0.9c-0.3,1.4-0.7,2.8-1,4.2c-0.1,0.5-0.4,0.7-0.8,0.9c-1.9,0.6-3.7,1.2-5.6,1.9c-1.1,0.4-2,0.2-2.8-0.6
			c-0.9-0.8-1.9-1.6-2.8-2.4c-0.4-0.4-0.8-0.4-1.2,0c-0.3,0.3-0.6,0.5-0.9,0.8c-0.3,0.3-0.3,0.5-0.1,0.8c0.7,1.1,1.4,2.2,2.1,3.3
			c0.8,1.1,0.6,2.1,0,3.2c-0.7,1.3-1.4,2.6-2,3.9c-0.5,1-1.2,1.6-2.3,1.6c-1.3,0.1-2.6,0.2-3.9,0.3c-0.8,0.1-0.8,0.1-0.9,0.9
			c0,0.4,0,0.7-0.1,1.1c-0.1,0.5,0.1,0.8,0.7,0.9c1.4,0.3,2.8,0.6,4.2,1c0.7,0.1,1,0.5,1.2,1.1c0.6,2,1.2,3.9,1.9,5.9
			c0.2,0.7,0.1,1.3-0.4,1.9c-0.8,0.9-1.6,1.9-2.5,2.8c-0.3,0.3-0.5,0.6-0.8,0.9c0.2,0.3,0.4,0.5,0.6,0.8c1,1.2,1,1.2,2.4,0.4
			c1.1-0.7,2.3-1.4,3.5-2c0.2-0.1,0.6-0.1,0.8,0c2.1,1.1,4.2,2.2,6.3,3.3c0.2,0.1,0.5,0.5,0.5,0.8c0.2,1.2,0.3,2.4,0.3,3.6
			c0.1,1.8,0.2,1.9,2,2c0.4,0,0.7-0.1,0.7-0.5c0-0.2,0.1-0.4,0.2-0.6c0.3-1.3,0.7-2.6,1-3.9c0.1-0.6,0.5-1,1.1-1.2
			c1.8-0.6,3.6-1.2,5.4-1.8c0.9-0.3,1.7-0.2,2.4,0.4c0.9,0.8,1.8,1.6,2.7,2.3c1.1,0.9,0.8,1.1,2,0c1-0.8,0.9-0.8,0.3-1.9
			c-0.7-1.2-1.4-2.3-2.1-3.5c-0.1-0.3-0.2-0.7-0.1-0.9c0.9-1.9,1.9-3.9,2.8-5.8c0.4-0.8,1.2-1.2,2.1-1.3c1.1-0.1,2.2-0.1,3.3-0.2
			c1.2-0.1,1.1,0.2,1.3-1.3c0.1-1.3,0.1-1.4-1.3-1.7c-1.3-0.3-2.6-0.6-3.9-1c-0.3-0.1-0.7-0.4-0.8-0.7c-0.8-2.2-1.4-4.3-2.1-6.5
			c-0.1-0.4,0-0.8,0.3-1.2c1-1.2,2-2.3,3-3.5c0.2-0.2,0.3-0.4,0.5-0.6c-0.5-0.5-0.9-1-1.3-1.5c-0.3-0.4-0.6-0.4-1.1-0.1
			c-1,0.7-2.1,1.3-3.1,2c-1.1,0.8-2.2,0.7-3.3-0.1c-1-0.6-2.1-1.2-3.2-1.7c-1.5-0.6-2.3-1.6-2.3-3.2c0-1.2-0.2-2.4-0.2-3.6
			c0-0.3-0.1-0.4-0.4-0.5C537.6,245.1,536.9,245.1,536.1,245z"/>
		<path class="st19" d="M545.4,264.1c1.7,4.4-1.3,11.3-6.8,12.9c-5.3,1.5-11.2-1.6-12.9-6.8c-1.6-5.1,1.7-11.4,6.7-12.9
			C537.4,255.7,544,258.6,545.4,264.1z M541.1,265.3c-1-3.2-3.8-4.8-7-3.9c-3.4,1-5,3.9-4,7.3c1,3.3,3.8,4.8,7.2,3.8
			C540.3,271.7,542.3,269.1,541.1,265.3z"/>
	</g>
	<g class="st6">
		<path class="st19" d="M515.8,362.3c0.8,0.1,1.4,0.5,1.9,1.1c1,1.2,1.9,2.3,2.9,3.5c0.2,0.3,0.4,0.4,0.7,0.3
			c0.8-0.2,1.6-0.3,2.3-0.4c0.3,0,0.5-0.2,0.6-0.5c0.4-1.1,0.9-2.2,1.3-3.4c0.9-2.2,1.6-2.6,3.9-2.2c1.8,0.4,3.6,0.9,5.3,1.4
			c0.4,0.1,0.8,0.4,1.1,0.6c0.6,0.5,1,1,0.9,1.9c-0.2,1.5-0.3,3-0.5,4.5c0,0.3,0,0.6,0.3,0.8c0.6,0.4,1.2,0.8,1.8,1.2
			c0.4,0.3,0.8,0.3,1.2,0.1c1.2-0.5,2.4-1.1,3.7-1.6c1.4-0.5,2.1-0.4,3,0.7c1.6,1.8,2.8,3.9,3.7,6.1c0.3,0.8,0.2,1.6-0.4,2.1
			c-1.1,1-2.1,2-3.3,2.9c-0.7,0.6-1,1.1-0.8,2c0.2,0.6,0.1,1.4,0.4,1.9c0.3,0.4,1.1,0.5,1.7,0.8c1,0.4,2.1,0.9,3.1,1.3
			c0.9,0.4,1.2,1.1,1.2,2c-0.1,2.7-0.8,5.2-1.9,7.6c-0.4,0.8-1.1,1.2-1.9,1.1c-1.6-0.1-3.2-0.3-4.8-0.4c-0.4,0-0.7,0-0.9,0.4
			c-0.4,0.6-0.8,1.1-1.2,1.6c-0.2,0.3-0.2,0.5-0.1,0.8c0.6,1.4,1.2,2.9,1.8,4.4c0.4,1.1,0.2,2-0.8,2.7c-1.8,1.4-3.7,2.6-5.8,3.5
			c-1.2,0.5-2,0.4-2.9-0.6c-1-1.1-1.9-2.2-2.8-3.3c-0.3-0.4-0.7-0.5-1.1-0.4c-0.7,0.2-1.5,0.3-2.2,0.5c-0.2,0-0.3,0.2-0.4,0.4
			c-0.5,1.1-0.9,2.3-1.4,3.4c-0.1,0.3-0.3,0.6-0.4,0.9c-0.4,0.9-1.2,1.3-2.2,1.2c-2.5-0.2-4.9-0.9-7.2-1.9c-1-0.4-1.2-1.3-1.2-2.3
			c0.1-1.5,0.3-3,0.4-4.5c0-0.3-0.1-0.5-0.3-0.7c-0.6-0.4-1.3-0.9-1.9-1.4c-0.3-0.2-0.5-0.2-0.7-0.1c-1.4,0.6-2.8,1.2-4.2,1.8
			c-1.4,0.5-2.1,0.4-3-0.8c-1.5-1.9-2.7-3.9-3.6-6.1c-0.4-0.9-0.2-1.7,0.5-2.3c1.1-1,2.2-2,3.4-2.9c0.6-0.5,0.8-0.9,0.6-1.7
			c-0.2-0.5-0.2-1.1-0.3-1.6c0-0.3-0.2-0.5-0.5-0.6c-1.4-0.5-2.8-1.1-4.1-1.7c-1.5-0.7-1.8-1.3-1.6-2.9c0.3-2.2,0.9-4.3,1.6-6.3
			c0.4-1.1,1.1-1.7,2.3-1.6c1.6,0.1,3.1,0.3,4.7,0.4c0.4,0,0.6,0,0.8-0.4c0.4-0.6,0.8-1.2,1.2-1.8c0.2-0.3,0.2-0.6,0.1-1
			c-0.6-1.3-1.1-2.6-1.6-3.9c-0.5-1.4-0.3-2,0.8-3c1.9-1.6,4-2.8,6.3-3.7c0.1,0,0.2-0.1,0.2-0.1
			C515.6,362.3,515.7,362.3,515.8,362.3z M529.4,365.3c-0.1,0.3-0.2,0.6-0.3,0.8c-0.6,1.3-1.1,2.7-1.7,4c-0.2,0.4-0.5,0.7-1,0.7
			c-1.9,0.3-3.9,0.6-5.8,1c-1.1,0.2-2-0.1-2.7-1c-0.8-1-1.6-1.9-2.4-2.8c-0.4-0.4-0.7-0.5-1.2-0.2c-0.3,0.2-0.7,0.4-1,0.7
			c-0.3,0.2-0.4,0.4-0.2,0.8c0.5,1.2,1,2.4,1.6,3.5c0.6,1.2,0.2,2.2-0.5,3.2c-0.9,1.2-1.8,2.3-2.6,3.6c-0.6,0.9-1.4,1.4-2.5,1.3
			c-1.3-0.1-2.6-0.2-3.9-0.3c-0.8-0.1-0.8-0.1-1,0.7c-0.1,0.4-0.1,0.7-0.2,1.1c-0.2,0.5,0,0.8,0.5,1c1.4,0.5,2.7,1.1,4,1.6
			c0.6,0.2,0.9,0.7,1,1.3c0.3,2,0.6,4.1,0.9,6.1c0.1,0.7-0.1,1.3-0.7,1.8c-1,0.8-1.9,1.6-2.9,2.4c-0.3,0.3-0.6,0.5-0.9,0.8
			c0.2,0.3,0.3,0.6,0.5,0.9c0.8,1.4,0.8,1.4,2.3,0.8c1.2-0.5,2.5-1,3.7-1.4c0.2-0.1,0.6,0,0.8,0.1c1.9,1.4,3.9,2.8,5.8,4.2
			c0.2,0.2,0.4,0.6,0.4,0.9c0,1.2-0.1,2.4-0.2,3.6c-0.2,1.8-0.1,1.9,1.7,2.3c0.4,0.1,0.7,0,0.8-0.4c0.1-0.2,0.2-0.4,0.3-0.6
			c0.5-1.2,1.1-2.5,1.6-3.7c0.2-0.6,0.7-0.9,1.2-1c1.9-0.3,3.7-0.6,5.6-0.9c0.9-0.2,1.7,0.1,2.3,0.7c0.8,0.9,1.5,1.8,2.3,2.7
			c0.9,1,0.6,1.2,2,0.3c1.1-0.6,1.1-0.7,0.6-1.8c-0.5-1.3-1-2.5-1.5-3.8c-0.1-0.3-0.1-0.7,0.1-0.9c1.2-1.8,2.4-3.5,3.7-5.3
			c0.6-0.8,1.4-1,2.3-0.9c1.1,0.1,2.2,0.3,3.3,0.3c1.2,0.1,1.1,0.4,1.5-1c0.3-1.3,0.3-1.3-1-1.9c-1.2-0.5-2.5-1-3.6-1.6
			c-0.3-0.1-0.6-0.5-0.7-0.8c-0.4-2.3-0.7-4.5-1.1-6.8c-0.1-0.5,0.1-0.8,0.4-1.1c1.2-1,2.3-2,3.5-3c0.2-0.2,0.4-0.3,0.6-0.5
			c-0.4-0.6-0.7-1.1-1.1-1.7c-0.3-0.4-0.6-0.5-1-0.3c-1.1,0.5-2.2,1-3.3,1.5c-1.3,0.6-2.3,0.3-3.3-0.6c-0.9-0.8-1.9-1.5-2.9-2.1
			c-1.4-0.8-2-1.9-1.8-3.5c0.2-1.2,0.2-2.4,0.3-3.6c0-0.3,0-0.4-0.3-0.5C530.9,365.6,530.2,365.5,529.4,365.3z"/>
		<path class="st19" d="M535.7,385.6c1,4.6-3.1,11-8.8,11.7c-5.5,0.7-10.8-3.3-11.6-8.8c-0.8-5.3,3.4-11,8.6-11.7
			C529.1,376,535.1,380,535.7,385.6z M531.2,386.2c-0.4-3.3-3-5.3-6.4-4.9c-3.5,0.4-5.5,3-5.1,6.6c0.4,3.4,3,5.4,6.5,4.9
			C529.4,392.3,531.8,390,531.2,386.2z"/>
	</g>
	<g class="st6">
		<path class="st26" d="M572.7,376.3h-33.5c-3.9,0-7-3.1-7-7v-60.1c0-3.9,3.1-7,7-7h33.5c3.9,0,7,3.1,7,7v60.1
			C579.7,373.2,576.6,376.3,572.7,376.3z"/>
		<line class="st26" x1="548.7" y1="368.4" x2="563.4" y2="368.4"/>
		<circle class="st19" cx="556" cy="308.8" r="2.6"/>
	</g>
	<g class="st6">
		<path class="st26" d="M514.5,355.3h-79.8c-3.9,0-7-3.1-7-7v-74.2c0-3.9,3.1-7,7-7h79.8c3.9,0,7,3.1,7,7v74.2
			C521.5,352.2,518.3,355.3,514.5,355.3z"/>
		<path class="st26" d="M453,345.8h-14c-1.9,0-3.4-1.5-3.4-3.4v-62c0-1.9,1.5-3.4,3.4-3.4h14c1.9,0,3.4,1.5,3.4,3.4v62
			C456.4,344.3,454.9,345.8,453,345.8z"/>
		<path class="st26" d="M509.2,289.6h-40.4c-2.4,0-4.4-2-4.4-4.4v-5.1c0-2.4,2-4.4,4.4-4.4h40.4c2.4,0,4.4,2,4.4,4.4v5.1
			C513.5,287.6,511.6,289.6,509.2,289.6z"/>
		<rect x="465.6" y="296.6" class="st26" width="10.3" height="10.3"/>
		<rect x="483.5" y="296.6" class="st26" width="10.3" height="10.3"/>
		<rect x="501.5" y="296.6" class="st26" width="10.3" height="10.3"/>
		<rect x="465.6" y="314.7" class="st26" width="10.3" height="10.3"/>
		<rect x="483.5" y="314.7" class="st26" width="10.3" height="10.3"/>
		<rect x="501.5" y="314.7" class="st26" width="10.3" height="10.3"/>
		<rect x="465.6" y="332.7" class="st26" width="10.3" height="10.3"/>
		<rect x="483.5" y="332.7" class="st26" width="10.3" height="10.3"/>
		<rect x="501.5" y="332.7" class="st26" width="10.3" height="10.3"/>
	</g>
	<g class="st6">
		<polyline class="st27" points="713.8,580.9 723.2,581.8 717.9,641.2 		"/>
		<polyline class="st27" points="723.2,569.8 737.9,571.1 731.5,642.4 		"/>
		<path class="st27" d="M802.4,612.8c0.9-10.4-6.7-19.6-17.1-20.5c-10.4-0.9-19.6,6.7-20.5,17.1c-0.9,10.4,6.7,19.6,17.1,20.5
			l55.6,5"/>
		<path class="st27" d="M816.7,614.1c1.7-18.8-12.2-35.4-30.9-37.1c-18.8-1.7-35.4,12.2-37.1,30.9c-1.7,18.8,12.2,35.4,30.9,37.1
			l56.5,5.1"/>
	</g>
	<g class="st6">
		<circle class="st27" cx="848.1" cy="593.9" r="19.4"/>
		<line class="st27" x1="847.4" y1="602.2" x2="849" y2="584.1"/>
		<line class="st27" x1="839.1" y1="592.3" x2="857.3" y2="593.9"/>
	</g>
	<path class="st28" d="M516.1,556.6c-38.8,0-70.3,21.4-70.3,47.9c0,14.7,9.7,27.8,25,36.6c-2.2,6.6-7.1,18.3-16.2,22.4
		c0,0,23.5,0.3,36.7-14.2c7.7,2,16.1,3.1,24.8,3.1c38.8,0,70.3-21.4,70.3-47.9C586.5,578,555,556.6,516.1,556.6z"/>
	<text transform="matrix(1 0 0 1 463.2871 620.375)" class="st4 st29 st30">SMS</text>
</g>
<g id="Слой_5">
	<g>
		
			<ellipse transform="matrix(0.9731 -0.2303 0.2303 0.9731 -174.7458 140.3605)" class="st31" cx="514" cy="818.9" rx="110" ry="25"/>
		<path class="st32" d="M407,844.2l-5.8-24.3c-3.2-13.4,42.2-35.7,101.3-49.7s109.6-14.4,112.8-1l5.8,24.3"/>
	</g>
	<g>
		
			<ellipse transform="matrix(0.5196 -0.8544 0.8544 0.5196 -298.0553 959.491)" class="st31" cx="704.2" cy="744.8" rx="17.6" ry="77.6"/>
		<path class="st32" d="M637.9,704.5l9.2-15.1c5.1-8.3,38.8,3,75.4,25.2c36.6,22.3,62.2,47,57.1,55.4l-9.2,15.1"/>
	</g>
	<g>
		<path class="st31" d="M676.9,584.1l6.3,12.9c3.5,7.1-19.2,25.2-50.6,40.4s-59.6,21.7-63.1,14.6l-6.3-12.9"/>
		
			<ellipse transform="matrix(0.9001 -0.4357 0.4357 0.9001 -204.5147 331.2578)" class="st33" cx="620.1" cy="611.6" rx="63.2" ry="14.4"/>
	</g>
	<g>
		<path class="st31" d="M441.6,677.6L429.8,695c-6.5,9.6-46-5.9-88.2-34.5s-71.1-59.6-64.6-69.2l11.8-17.4"/>
		
			<ellipse transform="matrix(0.5616 -0.8274 0.8274 0.5616 -357.6313 576.5107)" class="st33" cx="365.2" cy="625.7" rx="21" ry="92.4"/>
	</g>
	<g>
		<path class="st31" d="M336.7,726.9l9.7,19c6.8,13.5-16.4,39.1-51.9,57.1s-69.9,21.7-76.7,8.2l-9.7-19"/>
		
			<ellipse transform="matrix(0.8919 -0.4522 0.4522 0.8919 -314.0205 205.2861)" class="st33" cx="272.4" cy="759.5" rx="72.1" ry="27.4"/>
	</g>
	<path class="st34" d="M802.9,316.5c-0.2,0-0.4,0-0.6,0c3.1-7.5,4.9-15.7,4.9-24.3c0-34.7-28.1-62.9-62.9-62.9c-1.7,0-3.3,0.1-5,0.2
		c-8.3-36.1-40.7-63.1-79.3-63.1c-9.2,0-18,1.5-26.2,4.3c-24.6-51.6-77.2-87.2-138.1-87.2c-75.2,0-137.8,54.4-150.5,126
		c-8.3-4.7-17.9-7.4-28.1-7.4c-31.5,0-57,25.5-57.1,56.9c-10.8-3.5-22.3-5.5-34.3-5.5c-58,0-105.6,45-109.7,102
		c-35,4.2-62.2,34-62.2,70.2c0,39.1,31.7,70.7,70.7,70.7h678.3c49.7,0,90-40.3,90-90S852.7,316.5,802.9,316.5z"/>
	<g>
		<image style="overflow:visible;" width="320" height="321" xlink:href="35652181.png"  transform="matrix(1 0 0 1 337 172)">
		</image>
	</g>
	<g>
		<path class="st15" d="M543.5,323.6c0.5,2.9,0.8,5.8,0.8,8.9c0,26.3-21.3,47.5-47.5,47.5c-26.3,0-47.5-21.3-47.5-47.5
			c0-26.3,21.3-47.5,47.5-47.5c13.1,0,25,5.3,33.6,13.9l9.7-9.7c-11.1-11.1-26.4-18-43.3-18c-33.8,0-61.3,27.4-61.3,61.3
			c0,33.8,27.4,61.3,61.3,61.3c33.8,0,61.3-27.4,61.3-61.3c0-3-0.2-5.9-0.6-8.8L543.5,323.6z"/>
		<g>
			<path class="st15" d="M498.6,323.5v14.5h77.5c0.2-4.9,0.4-9.7,0.6-14.5H498.6z"/>
		</g>
		
			<ellipse transform="matrix(0.7071 -0.7071 0.7071 0.7071 -89.5562 448.6534)" class="st19" cx="496.8" cy="332.4" rx="14.5" ry="14.5"/>
		<path class="st23" d="M588.6,335.9l13.3-3.5l-0.7-8.6l-9.6,0l-16-0.3h-0.3l0,0.2l0,0c0.1,0.6,0.2,1.3,0.2,1.9
			c3.7,43.4-28.5,81.8-72,85.5c-43.4,3.7-81.8-28.5-85.5-72c-3.7-43.4,28.5-81.8,72-85.5c24-2.1,46.4,6.9,62.3,22.6l18.6-18.6
			l-13.8-11.6l-10.6,9.1c-3.7-2.4-7.7-4.6-11.8-6.4l1.9-13.9l-17.2-5.5L513,242c-4.1-0.7-8.4-1.2-12.7-1.4l-3.6-13.8l-18,1.5
			l-1.1,14.3c-4.5,1-8.9,2.2-13.1,3.8l-8.7-11.5l-16,8.3l4.5,13.9c-3.6,2.5-6.9,5.2-10.1,8.2l-12.7-7.4l-11.6,13.8l9.6,11.2
			c-2.3,3.6-4.4,7.4-6.2,11.3l-14.6-2l-5.5,17.2l13.2,6.7c-0.8,4.2-1.2,8.4-1.4,12.8l-14.3,3.7l1.5,18l14.8,1.2
			c0.9,4.2,2.1,8.4,3.6,12.3l-11.8,8.9l8.3,16l14.1-4.6c2.4,3.5,5.1,6.9,8,10.1l-7.5,12.7l13.8,11.6l11.1-9.5
			c3.6,2.4,7.4,4.5,11.3,6.3l-2,14.4l17.2,5.5l6.5-12.9c4.4,0.8,9,1.4,13.6,1.5l3.6,13.8l18-1.5l1.1-14.3c4.2-0.9,8.3-2.1,12.3-3.5
			l8.5,11.3l16-8.3l-4.3-13.4c3.7-2.5,7.2-5.3,10.5-8.3l12.1,7.1l11.6-13.8l-9-10.6c2.5-3.8,4.7-7.7,6.6-11.8l13.7,1.9l5.5-17.2
			l-12.3-6.2C587.9,344.9,588.4,340.4,588.6,335.9z"/>
		<g>
			<path class="st19" d="M427.1,444.2L427.1,444.2c-8.9-5-10.9-18.2-10.9-18.2l0,0c-1.3-4.3-4.2-7.8-8.2-9.5
				c-8.2-3.4-18.1,1.8-22.2,11.7c-4.1,9.8-0.8,20.6,7.4,23.9c3.3,1.4,6.8,1.3,10.2,0.2c13-2.7,20,0.7,22.4,2.3
				c0.3,0.3,0.6,0.5,0.9,0.7c0,0,0,0,0,0l0,0c1.2,0.7,2.6,1,4.1,0.7c3.1-0.7,5-3.7,4.3-6.8c-0.1-0.3-0.2-0.5-0.3-0.8
				C432.4,447.2,429.6,446.1,427.1,444.2z"/>
			<path class="st19" d="M432.7,454.3l-5.7-3.2l64.6-115.8l6.5,3.6L434,453.9C433.8,454.3,433.2,454.5,432.7,454.3z"/>
		</g>
	</g>
	<path class="st35" d="M110.3,410.4c-2.5-6.1-3.8-12.7-3.8-19.6c0-28.8,23.3-52.1,52.1-52.1c11.6,0,22.4,3.8,31,10.2"/>
	<path class="st35" d="M186.5,364.4c0-21.7,17.6-39.3,39.3-39.3"/>
	<path class="st36" d="M260.1,259.1c12.6,4.1,24.2,10.4,34.4,18.5"/>
	<path class="st35" d="M282.4,308c7.7-39.7,41.7-70,83.1-72.1"/>
	<path class="st35" d="M671.5,223.5c0-30-24.3-54.3-54.3-54.3c-6.1,0-11.9,1-17.4,2.8"/>
	<path class="st35" d="M493,172.6c9.1-20.5,29.7-34.8,53.6-34.8c23.7,0,44.1,14.1,53.3,34.3"/>
	<path class="st35" d="M709.1,222.2c24.5,0,44.3,19.8,44.3,44.3"/>
	<path class="st35" d="M812.9,356.5c0-30-24.3-54.3-54.3-54.3"/>
	<line class="st37" x1="692.6" y1="529.5" x2="692.6" y2="575.5"/>
	<line class="st37" x1="704.2" y1="563.8" x2="704.2" y2="609.8"/>
	<line class="st37" x1="244.4" y1="565.6" x2="244.4" y2="611.6"/>
	<line class="st37" x1="392.2" y1="849.4" x2="392.2" y2="895.4"/>
	<line class="st37" x1="800.1" y1="718.1" x2="800.1" y2="764.1"/>
	<line class="st37" x1="815.4" y1="686.7" x2="815.4" y2="732.7"/>
	<line class="st37" x1="649.4" y1="795.9" x2="649.4" y2="872.4"/>
	<line class="st37" x1="185.1" y1="752.5" x2="185.1" y2="829"/>
	<line class="st37" x1="227.9" y1="565.6" x2="227.9" y2="642.1"/>
	<line class="st37" x1="476.5" y1="559.3" x2="476.5" y2="635.8"/>
	<line class="st37" x1="458.7" y1="587.5" x2="458.7" y2="664"/>
	<line class="st37" x1="637.9" y1="744.8" x2="637.9" y2="790.8"/>
	<line class="st37" x1="380.8" y1="790.8" x2="380.8" y2="836.8"/>
	<line class="st37" x1="165.1" y1="726.9" x2="165.1" y2="772.9"/>
</g>
</svg>
